<svg xmlns="http://www.w3.org/2000/svg" width="73" height="76" viewBox="0 0 73 76" fill="none">
  <path d="M20.3512 22.5249C20.9531 23.0659 21.7284 23.3722 22.5343 23.3722C22.5955 23.3722 22.6669 23.3722 22.7281 23.3722C23.5748 23.3211 24.3909 22.9128 24.9826 22.2594L39.9988 5.46634C40.7027 4.68028 40.6313 3.48587 39.8458 2.78148L37.8463 0.994984C37.4689 0.658101 36.9792 0.484556 36.4692 0.515182C35.9591 0.545807 35.5 0.770396 35.1634 1.14811L22.2895 15.5422L20.4328 13.8476C19.6575 13.1432 18.4538 13.1942 17.7499 13.9701L15.9443 15.9505C15.5974 16.3283 15.424 16.8081 15.4546 17.3185C15.475 17.8289 15.6995 18.2985 16.0769 18.6354L20.341 22.5249H20.3512ZM19.1781 15.6137L21.5652 17.7983C21.7998 18.0127 22.1058 18.125 22.4221 18.1045C22.7383 18.0841 23.0341 17.9412 23.2382 17.7166L36.6018 2.78148L38.2136 4.22089L23.3708 20.82C23.1566 21.0548 22.8811 21.1977 22.6057 21.2182C22.3099 21.2386 22.0242 21.1365 21.81 20.9425L17.7295 17.2266L19.1883 15.6341L19.1781 15.6137Z" fill="black"/>
  <path d="M45.2735 37.8387V39.37C41.2032 39.9621 40.0811 43.6167 40.0811 45.6278C40.0811 48.721 42.7844 49.9256 45.2735 50.7831V58.1741C44.0697 57.8679 42.3865 56.9593 42.3865 54.2847C42.3865 53.6517 41.8663 53.1311 41.2338 53.1311C40.6013 53.1311 40.0811 53.6517 40.0811 54.2847C40.0811 58.5212 43.0292 60.124 45.2735 60.5221V62.0738C45.2735 62.7067 45.7937 63.2274 46.4262 63.2274C47.0587 63.2274 47.579 62.7067 47.579 62.0738V60.5221C49.8232 60.124 52.7714 58.5212 52.7714 54.2847C52.7714 51.1915 50.0681 49.9869 47.579 49.1293V41.7179C50.3333 42.3611 50.4557 45.2603 50.4659 45.638C50.4659 46.2709 50.9862 46.7916 51.6186 46.7916C52.2511 46.7916 52.7714 46.2709 52.7714 45.638C52.7714 43.6269 51.6492 39.9621 47.579 39.3802V37.8489C47.579 37.2057 47.0587 36.6953 46.4262 36.6953C45.7937 36.6953 45.2735 37.216 45.2735 37.8489V37.8387ZM50.4659 54.2847C50.4659 56.9287 48.7827 57.8475 47.579 58.1639V51.5896C49.3948 52.2838 50.4659 52.978 50.4659 54.2847ZM45.2735 48.3229C43.4577 47.6287 42.3865 46.9345 42.3865 45.6278C42.3865 45.2603 42.4885 42.3509 45.2735 41.7179V48.3229Z" fill="black"/>
  <path d="M46.4253 74.2511C59.9469 74.2511 70.9083 63.2818 70.9083 49.7506C70.9083 36.2193 59.9469 25.25 46.4253 25.25C32.9038 25.25 21.9424 36.2193 21.9424 49.7506C21.9424 63.2818 32.9038 74.2511 46.4253 74.2511Z" stroke="black" stroke-width="2.34078" stroke-miterlimit="10"/>
  <path d="M46.4253 70.6619C57.9637 70.6619 67.3174 61.3015 67.3174 49.7548C67.3174 38.2081 57.9637 28.8477 46.4253 28.8477C34.8869 28.8477 25.5332 38.2081 25.5332 49.7548C25.5332 61.3015 34.8869 70.6619 46.4253 70.6619Z" stroke="black" stroke-width="2.0046" stroke-miterlimit="10"/>
  <path d="M21.9536 36.683H4.79515C3.20376 36.683 1.9082 35.3865 1.9082 33.7939V30.8539C1.9082 29.2613 3.20376 27.9648 4.79515 27.9648H30.0534" stroke="black" stroke-width="2.46529" stroke-miterlimit="10" stroke-linecap="round"/>
  <path d="M19.0769 45.3939H4.79515C3.20376 45.3939 1.9082 44.0974 1.9082 42.5049V39.5648C1.9082 37.9723 3.20376 36.6758 4.79515 36.6758H21.9536" stroke="black" stroke-width="2.46529" stroke-miterlimit="10" stroke-linecap="round"/>
  <path d="M19.0769 54.1126H4.79515C3.20376 54.1126 1.9082 52.8162 1.9082 51.2236V48.2836C1.9082 46.691 3.20376 45.3945 4.79515 45.3945H19.0871" stroke="black" stroke-width="2.46529" stroke-miterlimit="10" stroke-linecap="round"/>
  <path d="M21.9536 62.8158H4.79515C3.20376 62.8158 1.9082 61.5193 1.9082 59.9267V56.9867C1.9082 55.3941 3.20376 54.0977 4.79515 54.0977H19.0871" stroke="black" stroke-width="2.46529" stroke-miterlimit="10" stroke-linecap="round"/>
  <path d="M30.0534 71.5384H4.79515C3.20376 71.5384 1.9082 70.2419 1.9082 68.6494V65.7093C1.9082 64.1168 3.20376 62.8203 4.79515 62.8203H21.9536" stroke="black" stroke-width="2.46529" stroke-miterlimit="10" stroke-linecap="round"/>
</svg>