<svg xmlns="http://www.w3.org/2000/svg" width="17" height="16" viewBox="0 0 17 16" fill="none">
  <path fill-rule="evenodd" clip-rule="evenodd" d="M2.95237 7.9001C2.95237 4.91944 5.36866 2.50314 8.34931 2.50314C11.33 2.50314 13.7463 4.91944 13.7463 7.9001C13.7463 10.8808 11.33 13.2971 8.34931 13.2971C5.36866 13.2971 2.95237 10.8808 2.95237 7.9001ZM8.34931 1.26562C4.68519 1.26562 1.71484 4.23598 1.71484 7.9001C1.71484 11.5642 4.68519 14.5345 8.34931 14.5345C12.0134 14.5345 14.9838 11.5642 14.9838 7.9001C14.9838 4.23598 12.0134 1.26562 8.34931 1.26562ZM7.68577 5.24631C7.68577 4.8799 7.9828 4.58286 8.34921 4.58286H8.35566C8.72207 4.58286 9.01911 4.8799 9.01911 5.24631C9.01911 5.61272 8.72207 5.90975 8.35566 5.90975H8.34921C7.9828 5.90975 7.68577 5.61272 7.68577 5.24631ZM8.34921 7.16257C8.71562 7.16257 9.01266 7.45962 9.01266 7.82603V10.4061C9.01266 10.7725 8.71562 11.0695 8.34921 11.0695C7.9828 11.0695 7.68577 10.7725 7.68577 10.4061V7.82603C7.68577 7.45962 7.9828 7.16257 8.34921 7.16257Z" fill="black"/>
</svg>