<svg xmlns="http://www.w3.org/2000/svg" width="16" height="16" viewBox="0 0 16 16" fill="none">
  <path fill-rule="evenodd" clip-rule="evenodd" d="M9.14258 1.71359C9.14258 1.2402 9.52635 0.856445 9.99972 0.856445H14.2854C14.7588 0.856445 15.1426 1.2402 15.1426 1.71359V5.9993C15.1426 6.47267 14.7588 6.85645 14.2854 6.85645C13.8121 6.85645 13.4283 6.47267 13.4283 5.9993V2.57073H9.99972C9.52635 2.57073 9.14258 2.18698 9.14258 1.71359Z" fill="black"/>
  <path fill-rule="evenodd" clip-rule="evenodd" d="M14.8913 1.1075C15.2259 1.44224 15.2259 1.98494 14.8913 2.31968L9.7484 7.46256C9.41366 7.79725 8.87091 7.79725 8.53617 7.46256C8.20148 7.12782 8.20148 6.58508 8.53617 6.25033L13.679 1.1075C14.0138 0.772761 14.5565 0.772761 14.8913 1.1075Z" fill="black"/>
  <path fill-rule="evenodd" clip-rule="evenodd" d="M2.57073 4.85638H6.85645C7.32982 4.85638 7.71359 4.47262 7.71359 3.99923C7.71359 3.52584 7.32982 3.14209 6.85645 3.14209H2.28502C1.90614 3.14209 1.54277 3.2926 1.27486 3.56051C1.00695 3.82842 0.856445 4.19178 0.856445 4.57066V13.7135C0.856445 14.0924 1.00695 14.4557 1.27486 14.7237C1.54278 14.9916 1.90614 15.1421 2.28502 15.1421H11.4279C11.8067 15.1421 12.1701 14.9916 12.438 14.7237C12.7059 14.4557 12.8564 14.0924 12.8564 13.7135V9.14209C12.8564 8.66872 12.4727 8.28495 11.9993 8.28495C11.5259 8.28495 11.1422 8.66872 11.1422 9.14209V13.4278H2.57073V4.85638Z" fill="black"/>
</svg>