<svg width="28" height="28" viewBox="0 0 28 28" fill="none" xmlns="http://www.w3.org/2000/svg">
<path d="M3.11111 28C2.28599 28 1.49467 27.6722 0.911223 27.0888C0.327777 26.5053 0 25.714 0 24.8889V3.11111C0 2.28599 0.327777 1.49467 0.911223 0.911223C1.49467 0.327777 2.28599 0 3.11111 0H24.8889C25.714 0 26.5053 0.327777 27.0888 0.911223C27.6722 1.49467 28 2.28599 28 3.11111V24.8889C28 25.714 27.6722 26.5053 27.0888 27.0888C26.5053 27.6722 25.714 28 24.8889 28H3.11111ZM4.66667 15.5556H17.8889L12.4444 21L14.6533 23.2089L23.8622 14L14.6533 4.79111L12.4444 7L17.8889 12.4444H4.66667V15.5556Z" fill="white"/>
</svg>
