<svg xmlns="http://www.w3.org/2000/svg" width="16" height="16" viewBox="0 0 16 16" fill="none">
  <g clip-path="url(#clip0_330_293)">
    <path d="M11.8886 11.2268C11.7899 11.227 11.6921 11.2077 11.6009 11.17C11.5097 11.1323 11.4268 11.077 11.357 11.0072C11.2872 10.9374 11.2319 10.8545 11.1942 10.7632C11.1565 10.672 11.1372 10.5742 11.1373 10.4755L11.1373 5.92441L4.64079 12.4209C4.50014 12.5616 4.30937 12.6406 4.11046 12.6406C3.91155 12.6406 3.72078 12.5616 3.58013 12.4209C3.43948 12.2803 3.36046 12.0895 3.36046 11.8906C3.36046 11.6917 3.43948 11.5009 3.58013 11.3603L10.0767 4.86375L5.52467 4.86286C5.32541 4.86286 5.13432 4.78371 4.99342 4.64281C4.85252 4.50192 4.77337 4.31082 4.77337 4.11156C4.77337 3.9123 4.85252 3.72121 4.99342 3.58031C5.13432 3.43942 5.32541 3.36026 5.52467 3.36026L11.8886 3.36026C11.9873 3.36009 12.0851 3.37941 12.1763 3.4171C12.2676 3.4548 12.3505 3.51013 12.4203 3.57993C12.4901 3.64973 12.5454 3.73262 12.5831 3.82385C12.6208 3.91508 12.6401 4.01285 12.6399 4.11156L12.6399 10.4755C12.6401 10.5742 12.6208 10.672 12.5831 10.7632C12.5454 10.8545 12.4901 10.9374 12.4203 11.0072C12.3505 11.077 12.2676 11.1323 12.1763 11.17C12.0851 11.2077 11.9873 11.227 11.8886 11.2268Z" fill="black"/>
  </g>
  <defs>
    <clipPath id="clip0_330_293">
      <rect width="16" height="16" fill="white"/>
    </clipPath>
  </defs>
</svg>