<svg width="24" height="32" viewBox="0 0 24 32" fill="none" xmlns="http://www.w3.org/2000/svg">
<g clip-path="url(#clip0_3899_67880)">
<path d="M18 12C18.852 12 19.297 13.2818 18.783 14.1099L18.707 14.2191L12.707 22.0191C12.5348 22.2429 12.3057 22.3774 12.0626 22.3973C11.8196 22.4171 11.5794 22.321 11.387 22.127L11.293 22.0191L5.29295 14.2191L5.20995 14.0969L5.15595 13.9968L5.10195 13.872L5.08495 13.8252L5.05795 13.7381L5.02595 13.5977L5.01595 13.5288L5.00595 13.4508L5.00195 13.3767V13.2233L5.00695 13.1479L5.01595 13.0699L5.02595 13.0023L5.05795 12.8619L5.08495 12.7748L5.15495 12.6032L5.21995 12.4862L5.29295 12.3809L5.38695 12.273L5.46395 12.2028L5.55995 12.1326L5.59595 12.1105L5.66295 12.0754L5.77095 12.0338L5.82395 12.0208L5.88395 12.0078L5.94095 12.0026L18 12Z" fill="white"/>
</g>
<defs>
<clipPath id="clip0_3899_67880">
<rect width="24" height="31.2" fill="white" transform="translate(0 0.299805)"/>
</clipPath>
</defs>
</svg>
