<svg xmlns="http://www.w3.org/2000/svg" width="14" height="14" viewBox="0 0 14 14" fill="none">
  <path d="M4.56449 6.92921C4.76346 7.12843 4.87522 7.39848 4.87522 7.68004C4.87522 7.96161 4.76346 8.23166 4.56449 8.43088L3.87457 9.12221H9.83449C10.1163 9.12221 10.3865 9.23415 10.5858 9.43341C10.785 9.63267 10.897 9.90292 10.897 10.1847C10.897 10.4665 10.785 10.7368 10.5858 10.936C10.3865 11.1353 10.1163 11.2472 9.83449 11.2472H3.87457L4.5652 11.9371C4.76452 12.1364 4.8765 12.4068 4.8765 12.6887C4.8765 12.9706 4.76452 13.2409 4.5652 13.4402C4.36588 13.6395 4.09554 13.7515 3.81366 13.7515C3.53177 13.7515 3.26144 13.6395 3.06211 13.4402L0.558156 10.9355C0.358968 10.7363 0.24707 10.4661 0.24707 10.1844C0.24707 9.90262 0.358968 9.63242 0.558156 9.43317L3.06211 6.9285C3.16079 6.82977 3.27795 6.75144 3.4069 6.69801C3.53585 6.64457 3.67407 6.61706 3.81366 6.61706C3.95324 6.61706 4.09146 6.64457 4.22041 6.69801C4.34937 6.75144 4.46653 6.82977 4.5652 6.9285L4.56449 6.92921ZM9.43782 0.55421C9.62367 0.3682 9.87189 0.257707 10.1345 0.2441C10.3971 0.230493 10.6554 0.314738 10.8594 0.480544L10.9402 0.553502L13.4442 3.05817C13.6301 3.2441 13.7404 3.49237 13.7539 3.75496C13.7674 4.01754 13.683 4.2758 13.5171 4.47979L13.4442 4.56054L10.9402 7.06521C10.7481 7.26018 10.4881 7.37348 10.2145 7.38149C9.9409 7.38951 9.67475 7.29162 9.47155 7.10823C9.26834 6.92484 9.14375 6.6701 9.12374 6.39711C9.10373 6.12411 9.18986 5.85393 9.36416 5.64288L9.43712 5.56213L10.1277 4.87221H4.16782C3.8936 4.87411 3.62927 4.76991 3.43011 4.5814C3.23095 4.3929 3.11238 4.13469 3.0992 3.86078C3.08603 3.58687 3.17927 3.31847 3.35942 3.11173C3.53957 2.90498 3.79269 2.77589 4.06582 2.75146L4.16782 2.74721H10.1277L9.43712 2.05659C9.33838 1.95791 9.26006 1.84075 9.20662 1.7118C9.15318 1.58285 9.12568 1.44463 9.12568 1.30504C9.12568 1.16546 9.15318 1.02724 9.20662 0.898285C9.26006 0.769332 9.33838 0.652173 9.43712 0.553502L9.43782 0.55421Z" fill="black"/>
</svg>