<svg xmlns="http://www.w3.org/2000/svg" width="84" height="14" viewBox="0 0 84 14" fill="none">
  <g clip-path="url(#clip0_5931_312896)">
    <path d="M29.9772 13.4383H17.0219C16.8024 13.4399 16.5863 13.3833 16.3958 13.2743C16.2052 13.1653 16.047 13.0077 15.9372 12.8176C15.8273 12.6275 15.7698 12.4117 15.7705 12.1922C15.7712 11.9726 15.8301 11.7572 15.9411 11.5678L22.0656 0.960382C22.2108 0.709051 22.4196 0.500359 22.671 0.355265C22.9224 0.210172 23.2075 0.133789 23.4978 0.133789C23.7881 0.133789 24.0732 0.210172 24.3246 0.355265C24.576 0.500359 24.7848 0.709051 24.93 0.960382L31.0545 11.5678C31.1655 11.7572 31.2244 11.9726 31.2251 12.1922C31.2258 12.4117 31.1682 12.6275 31.0584 12.8176C30.9486 13.0077 30.7904 13.1653 30.5998 13.2743C30.4093 13.3833 30.1932 13.4399 29.9737 13.4383H29.9772ZM19.1853 10.9449H27.8175L23.5013 3.46804L19.1853 10.9449Z" fill="url(#paint0_linear_5931_312896)"/>
    <path d="M81.8654 13.4383H68.9098C68.6906 13.4396 68.4748 13.3828 68.2844 13.2736C68.0941 13.1644 67.9359 13.0068 67.8266 12.8168C67.7168 12.6268 67.6596 12.4111 67.6602 12.1917C67.6613 11.9723 67.7201 11.7571 67.8311 11.5678L73.9534 0.960382C74.0988 0.709051 74.3075 0.500359 74.5588 0.355265C74.8102 0.210172 75.0954 0.133789 75.3857 0.133789C75.6759 0.133789 75.9611 0.210172 76.2125 0.355265C76.4639 0.500359 76.6725 0.709051 76.8179 0.960382L82.9425 11.5678C83.0534 11.7572 83.1123 11.9726 83.1128 12.1922C83.1139 12.4117 83.0562 12.6275 82.9464 12.8176C82.8365 13.0077 82.6783 13.1653 82.488 13.2743C82.2971 13.3833 82.0812 13.4399 81.8615 13.4383H81.8654ZM71.0751 10.9449H79.7073L75.3895 3.46804L71.0751 10.9449Z" fill="black"/>
    <path d="M47.2942 0.394531H45.72C45.3775 0.394531 45.2072 0.572001 45.2072 0.926941V9.371L37.6452 0.591523C37.5948 0.530457 37.5317 0.481169 37.4603 0.447134C37.3888 0.413098 37.3108 0.395142 37.2316 0.394531H35.2795C34.9387 0.394531 34.7666 0.572001 34.7666 0.926941V12.9151C34.7666 13.27 34.9441 13.4475 35.2795 13.4475H36.8536C37.1962 13.4475 37.3665 13.27 37.3665 12.9151V4.28468L45.1344 13.2753C45.1781 13.3327 45.2349 13.3787 45.3 13.4097C45.3652 13.4405 45.4368 13.4553 45.5089 13.4528H47.2836C47.6261 13.4528 47.7982 13.2753 47.7982 12.9204V0.926941C47.8036 0.572001 47.6314 0.394531 47.2942 0.394531Z" fill="black"/>
    <path d="M64.713 12.599L59.7172 6.61467L64.0899 1.26218C64.1654 1.15932 64.2059 1.03487 64.2053 0.907242C64.2153 0.837606 64.2086 0.766666 64.1864 0.699998C64.1637 0.633329 64.1265 0.572752 64.0766 0.523036C64.0272 0.47332 63.9661 0.435822 63.8995 0.413491C63.833 0.391161 63.7619 0.384608 63.6926 0.39435H61.5273C61.4479 0.392193 61.3686 0.408919 61.297 0.44316C61.2249 0.4774 61.1622 0.528182 61.1139 0.591342L58.0435 4.50811L54.9716 0.603765C54.9233 0.534348 54.8583 0.478156 54.7827 0.440332C54.707 0.402507 54.6231 0.384257 54.5385 0.387251H52.3699C52.3003 0.377436 52.2294 0.383952 52.1628 0.406284C52.0962 0.428616 52.0357 0.466151 51.9861 0.515915C51.9365 0.56568 51.8992 0.626309 51.8771 0.693001C51.855 0.75969 51.8487 0.830608 51.8588 0.900139C51.8576 1.02785 51.8981 1.15245 51.9741 1.25508L56.345 6.61645L51.3672 12.5795C51.2783 12.6762 51.2294 12.8031 51.2305 12.9344C51.2305 13.2752 51.408 13.4455 51.7629 13.4455H54.0381C54.1223 13.4462 54.2054 13.427 54.2806 13.3893C54.3559 13.3517 54.4212 13.2968 54.4711 13.229L58.0347 8.7603L61.6161 13.2699C61.6677 13.3278 61.7315 13.3737 61.8031 13.4044C61.8747 13.4351 61.9518 13.4497 62.0295 13.4473H64.3135C64.3829 13.457 64.4539 13.4505 64.5199 13.4283C64.5865 13.4061 64.647 13.3687 64.6964 13.3191C64.7463 13.2696 64.7835 13.2092 64.8057 13.1428C64.8279 13.0763 64.8346 13.0056 64.8246 12.9362C64.8307 12.8138 64.7907 12.6936 64.713 12.599Z" fill="black"/>
    <path d="M11.3842 6.5923C11.912 5.92619 12.1963 5.09961 12.1899 4.24971C12.197 3.74037 12.0983 3.23511 11.9001 2.76588C11.7018 2.29666 11.4083 1.8737 11.0381 1.52376C10.6775 1.15814 10.2467 0.869333 9.77147 0.674736C9.29624 0.48014 8.78655 0.383792 8.27315 0.391501H0.537194C0.464859 0.381106 0.391098 0.387711 0.321761 0.410791C0.252425 0.433872 0.18942 0.472792 0.137747 0.524466C0.0860737 0.576139 0.0471528 0.639143 0.0240725 0.70848C0.00099224 0.777816 -0.00561262 0.851576 0.00478217 0.923914V12.912C0.00478217 13.267 0.182252 13.4444 0.537194 13.4444H8.94221C9.45661 13.4547 9.9678 13.3606 10.4449 13.1678C10.9219 12.975 11.3549 12.6876 11.7178 12.3228C12.0867 11.9737 12.3791 11.5518 12.5765 11.0838C12.7738 10.6158 12.8718 10.1118 12.8643 9.60398C12.8784 9.01988 12.7511 8.44105 12.4934 7.91672C12.2357 7.39238 11.8552 6.93801 11.3842 6.5923ZM2.60295 3.24877C2.59322 3.17891 2.59982 3.10774 2.62224 3.04086C2.64467 2.97399 2.6823 2.91322 2.73218 2.86334C2.78205 2.81346 2.84282 2.77583 2.9097 2.75341C2.97658 2.73098 3.04775 2.72438 3.11761 2.73411H8.23053C8.40627 2.73433 8.57974 2.77361 8.73844 2.84911C8.89715 2.92462 9.03704 3.03446 9.14808 3.17069C9.3969 3.46972 9.53319 3.84648 9.53319 4.23551C9.53319 4.62455 9.3969 5.0013 9.14808 5.30033C9.03854 5.43886 8.89909 5.55086 8.74022 5.62799C8.5814 5.70511 8.40716 5.7454 8.23053 5.74578H3.11761C3.04768 5.75588 2.97635 5.74956 2.90929 5.72725C2.84224 5.705 2.78131 5.66736 2.73134 5.61739C2.68137 5.56743 2.64375 5.50649 2.62147 5.43944C2.59917 5.37239 2.59284 5.30105 2.60295 5.23112V3.24877ZM9.81714 10.6582C9.70704 10.7958 9.56748 10.907 9.40867 10.9835C9.24985 11.06 9.07588 11.0999 8.89959 11.1001H3.11761C2.77509 11.1001 2.60295 10.9226 2.60295 10.5676V8.61546C2.60295 8.26054 2.78042 8.08308 3.11761 8.08308H8.89959C9.076 8.08374 9.24996 8.12398 9.40872 8.20078C9.56748 8.27752 9.70704 8.38895 9.81714 8.52673C10.0731 8.82161 10.2104 9.20117 10.2022 9.59156C10.2135 9.98305 10.0758 10.3642 9.81714 10.6582Z" fill="black"/>
  </g>
  <defs>
    <linearGradient id="paint0_linear_5931_312896" x1="18.2571" y1="15.1846" x2="28.7474" y2="4.69437" gradientUnits="userSpaceOnUse">
      <stop stop-color="#0073D1"/>
      <stop offset="0.06" stop-color="#0082CE"/>
      <stop offset="0.22" stop-color="#00A0C9"/>
      <stop offset="0.39" stop-color="#00B8C4"/>
      <stop offset="0.57" stop-color="#00C9C1"/>
      <stop offset="0.76" stop-color="#00D3C0"/>
      <stop offset="1" stop-color="#00D6BF"/>
    </linearGradient>
    <clipPath id="clip0_5931_312896">
      <rect width="83.237" height="13.3179" fill="white" transform="translate(0 0.131836)"/>
    </clipPath>
  </defs>
</svg>