<svg width="117" height="23" viewBox="0 0 117 23" fill="none" xmlns="http://www.w3.org/2000/svg">
<g clip-path="url(#bnb_chain_1)">
<g clip-path="url(#bnb_chain_2)">
<path d="M4.0114 3.8227L9.46935 0.664551L14.9273 3.8227L12.8794 4.93295L9.46935 2.96902L5.97066 4.93295L4.0114 3.8227ZM14.8433 7.7459L12.8794 6.63564L9.46935 8.59958L5.97066 6.63564L4.00673 7.7459V10.0504L7.42145 12.0143V16.0261L9.38538 17.2203L11.3493 16.0261V12.1029L14.764 10.139V7.75056H14.8433V7.7459ZM14.8433 14.0622V11.7577L12.8794 12.9519V15.1678L14.8433 14.0622ZM16.2941 14.8272L12.8841 16.7912V19.0956L18.3467 15.9375V9.62586L16.2988 10.904L16.2941 14.8272ZM14.3302 5.78663L16.2941 6.98085V9.28532L18.2581 8.0911V5.78663L16.2941 4.59241L14.3302 5.78663ZM7.42145 17.6448V19.9493L9.38538 21.1435L11.3493 19.9493V17.6448L9.38538 18.8391L7.42145 17.6448ZM4.00673 14.0622L5.97066 15.1724V12.868L4.00673 11.6738V14.0622ZM7.42145 5.78663L9.38538 6.98085L11.4333 5.78663L9.46935 4.59241L7.42145 5.78663ZM2.56061 6.98085L4.60851 5.78663L2.56061 4.59241L0.59668 5.78663V8.0911L2.56061 9.28532V6.98085ZM2.56061 10.904L0.59668 9.70983V16.0215L6.0593 19.1796V16.8751L2.64458 14.9112V10.8994L2.56061 10.904Z" fill="#F0B90B"/>
<path d="M34.0374 13.548C34.0374 12.0133 33.1837 11.2436 31.9055 10.7304C32.7592 10.3059 33.4403 9.53619 33.4403 8.25801C33.4403 6.46668 31.9895 5.27246 29.685 5.27246H24.395V16.7062H29.853C32.33 16.6175 34.0374 15.5959 34.0374 13.548ZM30.8793 8.68251C30.8793 9.53619 30.1982 9.87673 29.0879 9.87673H26.7835V7.40433H29.2559C30.3708 7.40433 30.8793 7.8335 30.8793 8.68251ZM31.565 13.2075C31.565 14.0612 30.8839 14.4857 29.7737 14.4857H26.7881V12.0133H29.6897C30.9679 11.9246 31.565 12.4378 31.565 13.2075Z" fill="#F0B90B"/>
<path d="M46.4199 16.6175V5.27246H43.9428V12.2698L38.5688 5.27246H36.269V16.7062H38.7414V9.45223L44.288 16.7062H46.4199V16.6175Z" fill="#F0B90B"/>
<path d="M58.9583 13.548C58.9583 12.0133 58.1046 11.2436 56.8264 10.7304C57.6801 10.3059 58.3612 9.53619 58.3612 8.25801C58.3612 6.46668 56.9104 5.27246 54.6059 5.27246H49.3159V16.7062H54.7739C57.2509 16.6175 58.9583 15.5959 58.9583 13.548ZM55.8888 8.68251C55.8888 9.53619 55.2077 9.87673 54.0975 9.87673H51.793V7.40433H54.2654C55.2917 7.40433 55.8888 7.8335 55.8888 8.68251ZM56.4859 13.2075C56.4859 14.0612 55.8048 14.4857 54.6946 14.4857H51.709V12.0133H54.6106C55.8888 11.9246 56.4859 12.4378 56.4859 13.2075Z" fill="#F0B90B"/>
<path d="M74.0525 14.6582L72.7743 13.38C71.8366 14.3177 70.899 14.8308 69.5321 14.8308C67.3116 14.8308 65.7769 13.0395 65.7769 10.735C65.7769 8.5145 67.4003 6.72784 69.5321 6.72784C70.8103 6.72784 71.8366 7.32494 72.6903 8.17862L73.9685 6.64387C72.8582 5.62225 71.58 4.85254 69.5321 4.85254C66.1174 4.85254 63.645 7.49755 63.645 10.7397C63.645 14.0657 66.1174 16.6268 69.4482 16.6268C71.58 16.6175 72.8582 15.8524 74.0525 14.6582Z" fill="#F0B90B"/>
<path d="M83.7808 11.6729V16.4498H85.7447V5.01611H83.7808V9.79299H78.3228V5.01611H76.3589V16.4498H78.3228V11.6729H83.7808Z" fill="#F0B90B"/>
<path d="M94.7847 5.01611H92.9094L87.876 16.5338H89.9239L91.1181 13.8048H96.4921L97.6863 16.5338H99.8182L94.7847 5.01611ZM95.811 11.9249H91.8878L93.8517 7.40455L95.811 11.9249Z" fill="#F0B90B"/>
<path d="M102.042 5.01611V16.4498H104.001V5.01611H102.042Z" fill="#F0B90B"/>
<path d="M115.174 12.9511L109.03 5.10008H107.239V16.5338H109.203V8.3422L115.514 16.4498H117.222V5.01611H115.258V12.9511H115.174Z" fill="#F0B90B"/>
</g>
</g>
<defs>
<clipPath id="bnb_chain_1">
<rect width="116.29" height="22.2319" fill="white" transform="translate(0.594238)"/>
</clipPath>
<clipPath id="bnb_chain_2">
<rect width="116.623" height="20.479" fill="white" transform="translate(0.594238 0.664062)"/>
</clipPath>
</defs>
</svg>
