<svg xmlns="http://www.w3.org/2000/svg" width="58" height="20" viewBox="0 0 58 20" fill="none">
  <path d="M41.2888 14.8767V0.0410156H44.2736V14.8767H41.2888Z" fill="#FFA700"/>
  <path d="M6.48686 19.2771H0.0931396V4.44141H6.227C9.21182 4.44141 10.9478 6.06736 10.9478 8.61186C10.9478 10.2613 9.8326 11.3206 9.06384 11.6743C9.98238 12.0911 11.168 13.0259 11.168 15.0128C11.168 17.7775 9.21182 19.2771 6.48686 19.2771ZM5.99962 7.02561H3.08518V10.4417H5.99962C7.26465 10.4417 7.97025 9.75057 7.97025 8.72916C7.97025 7.70775 7.26284 7.02561 5.99962 7.02561ZM6.1873 13.0422H3.07796V16.6857H6.1873C7.53895 16.6857 8.18139 15.8538 8.18139 14.8486C8.18139 13.8434 7.53714 13.0422 6.1873 13.0422Z" fill="#currentFill"/>
  <path d="M20.2803 13.1902V19.2771H17.3189V13.1902L12.7244 4.44141H15.9601L18.8113 10.4183L21.6229 4.44141H24.8586L20.2803 13.1902Z" fill="#currentFill"/>
  <path d="M33.2687 19.2771H26.875V4.44141H33.0089C35.9937 4.44141 37.7297 6.06736 37.7297 8.61186C37.7297 10.2613 36.6145 11.3206 35.8457 11.6743C36.7642 12.0911 37.9499 13.0259 37.9499 15.0128C37.9427 17.7775 35.9937 19.2771 33.2687 19.2771ZM32.7725 7.02561H29.858V10.4417H32.7725C34.0375 10.4417 34.7431 9.75057 34.7431 8.72916C34.7431 7.70775 34.0357 7.02561 32.7725 7.02561ZM32.9619 13.0422H29.8526V16.6857H32.9619C34.3136 16.6857 34.956 15.8538 34.956 14.8486C34.956 13.8434 34.319 13.0422 32.9619 13.0422Z" fill="#currentFill"/>
  <path d="M53.8037 7.02561V19.2771H50.8189V7.02561H46.8379V4.44141H57.7937V7.02561H53.8037Z" fill="#currentFill"/>
</svg>