<svg xmlns="http://www.w3.org/2000/svg" width="14" height="14" viewBox="0 0 14 14" fill="none">
  <path d="M3.74993 7.92822H0.964276C0.707863 7.92822 0.5 8.13608 0.5 8.39249V13.0351C0.5 13.2915 0.707863 13.4994 0.964276 13.4994H3.74993C4.00635 13.4994 4.21421 13.2915 4.21421 13.0351V8.39249C4.21421 8.13608 4.00635 7.92822 3.74993 7.92822Z" fill="black"/>
  <path d="M13.0361 4.21484H10.2504C9.994 4.21484 9.78613 4.4227 9.78613 4.67911V13.0358C9.78613 13.2922 9.994 13.5001 10.2504 13.5001H13.0361C13.2925 13.5001 13.5003 13.2922 13.5003 13.0358V4.67911C13.5003 4.4227 13.2925 4.21484 13.0361 4.21484Z" fill="black"/>
  <path d="M8.39349 0.5H5.60783C5.35142 0.5 5.14355 0.707858 5.14355 0.964263V13.0351C5.14355 13.2915 5.35142 13.4994 5.60783 13.4994H8.39349C8.6499 13.4994 8.85776 13.2915 8.85776 13.0351V0.964263C8.85776 0.707858 8.6499 0.5 8.39349 0.5Z" fill="black"/>
</svg>