<svg xmlns="http://www.w3.org/2000/svg" width="14" height="14" viewBox="0 0 14 14" fill="none">
  <path d="M1.4311 1.64286V11.7143H13.2168C13.3873 11.7143 13.5508 11.782 13.6714 11.9026C13.7919 12.0231 13.8597 12.1866 13.8597 12.3571C13.8597 12.5276 13.7919 12.6912 13.6714 12.8117C13.5508 12.9323 13.3873 13 13.2168 13H0.788243C0.617747 13 0.454233 12.9323 0.333674 12.8117C0.213115 12.6912 0.145386 12.5276 0.145386 12.3571L0.145386 1.64286C0.145386 1.47236 0.213115 1.30885 0.333674 1.18829C0.454233 1.06773 0.617747 1 0.788243 1C0.958739 1 1.12225 1.06773 1.24281 1.18829C1.36337 1.30885 1.4311 1.47236 1.4311 1.64286ZM13.6711 3.81143L9.1711 8.31143C9.05056 8.43181 8.88717 8.49943 8.71681 8.49943C8.54646 8.49943 8.38307 8.43181 8.26253 8.31143L6.14539 6.19429L3.81396 8.52571C3.69202 8.63921 3.53083 8.70101 3.36427 8.69813C3.19772 8.69526 3.03876 8.62792 2.92081 8.51029C2.80318 8.39234 2.73584 8.23338 2.73297 8.06683C2.73009 7.90027 2.79189 7.73908 2.90539 7.61714L5.6911 4.83143C5.81164 4.71104 5.97503 4.64342 6.14539 4.64342C6.31574 4.64342 6.47914 4.71104 6.59967 4.83143L8.71681 6.94857L12.7625 2.90286C12.8845 2.78936 13.0457 2.72756 13.2122 2.73044C13.3788 2.73332 13.5377 2.80065 13.6557 2.91829C13.7733 3.03623 13.8406 3.19519 13.8435 3.36175C13.8464 3.5283 13.7846 3.68949 13.6711 3.81143Z" fill="black"/>
</svg>