<svg width="607" height="606" viewBox="0 0 607 606" fill="none" xmlns="http://www.w3.org/2000/svg">
<ellipse cx="303" cy="303.147" rx="289" ry="288.147" stroke="url(#paint0_linear_1_12)" stroke-width="2" stroke-dasharray="12.57 12.57"/>
<path d="M284.674 30.3129C284.16 30.017 283.734 29.5898 283.44 29.0752C283.146 28.5605 282.994 27.9769 283 27.3841L283 3.36956C282.994 2.77681 283.146 2.19319 283.44 1.67854C283.734 1.16388 284.16 0.736716 284.674 0.440847C285.168 0.152144 285.73 -1.08103e-06 286.302 -1.05602e-06C286.874 -1.031e-06 287.436 0.152144 287.931 0.440847L308.783 12.4454C309.294 12.7454 309.717 13.1738 310.012 13.688C310.306 14.2022 310.461 14.7844 310.461 15.3769C310.461 15.9693 310.306 16.5515 310.012 17.0657C309.717 17.5799 309.294 18.0083 308.783 18.3083L287.931 30.3156C287.436 30.6039 286.874 30.7556 286.302 30.7551C285.729 30.7546 285.168 30.602 284.674 30.3129Z" fill="url(#paint1_linear_1_12)"/>
<path d="M308.787 575.687C309.301 575.983 309.727 576.41 310.021 576.925C310.315 577.439 310.467 578.023 310.461 578.616L310.461 602.63C310.467 603.223 310.315 603.807 310.021 604.321C309.727 604.836 309.301 605.263 308.787 605.559C308.293 605.848 307.731 606 307.159 606C306.587 606 306.025 605.848 305.53 605.559L284.678 593.555C284.167 593.255 283.743 592.826 283.449 592.312C283.155 591.798 283 591.216 283 590.623C283 590.031 283.155 589.448 283.449 588.934C283.743 588.42 284.167 587.992 284.678 587.692L305.53 575.684C306.025 575.396 306.587 575.244 307.159 575.245C307.732 575.245 308.293 575.398 308.787 575.687Z" fill="url(#paint2_linear_1_12)"/>
<path d="M30.3129 310.787C30.017 311.301 29.5898 311.727 29.0752 312.021C28.5605 312.315 27.9769 312.467 27.3841 312.461H3.36956C2.77681 312.467 2.19319 312.315 1.67854 312.021C1.16388 311.727 0.736718 311.301 0.440848 310.787C0.152145 310.293 0 309.731 0 309.159C0 308.587 0.152145 308.025 0.440848 307.53L12.4454 286.678C12.7454 286.167 13.1738 285.743 13.688 285.449C14.2022 285.155 14.7844 285 15.3769 285C15.9693 285 16.5515 285.155 17.0657 285.449C17.5799 285.743 18.0083 286.167 18.3083 286.678L30.3156 307.53C30.6039 308.025 30.7556 308.587 30.7551 309.159C30.7546 309.732 30.602 310.293 30.3129 310.787Z" fill="url(#paint3_linear_1_12)"/>
<path d="M576.687 286.674C576.983 286.16 577.41 285.734 577.925 285.44C578.439 285.146 579.023 284.994 579.616 285L603.63 285C604.223 284.994 604.807 285.146 605.321 285.44C605.836 285.734 606.263 286.16 606.559 286.674C606.848 287.168 607 287.73 607 288.302C607 288.874 606.848 289.436 606.559 289.931L594.555 310.783C594.255 311.294 593.826 311.717 593.312 312.012C592.798 312.306 592.216 312.461 591.623 312.461C591.031 312.461 590.448 312.306 589.934 312.012C589.42 311.717 588.992 311.294 588.692 310.783L576.684 289.931C576.396 289.436 576.244 288.874 576.245 288.302C576.245 287.729 576.398 287.168 576.687 286.674Z" fill="url(#paint4_linear_1_12)"/>
<defs>
<linearGradient id="paint0_linear_1_12" x1="616.337" y1="324.379" x2="-11.1653" y2="180.035" gradientUnits="userSpaceOnUse">
<stop stop-color="#136A8A"/>
<stop offset="0.0001" stop-color="#1A2980"/>
<stop offset="1" stop-color="#26D0CE"/>
</linearGradient>
<linearGradient id="paint1_linear_1_12" x1="310.461" y1="15.3775" x2="283" y2="15.3775" gradientUnits="userSpaceOnUse">
<stop stop-color="#1F639C"/>
<stop offset="1" stop-color="#26C2C8"/>
</linearGradient>
<linearGradient id="paint2_linear_1_12" x1="283" y1="590.622" x2="310.461" y2="590.622" gradientUnits="userSpaceOnUse">
<stop stop-color="#1F639C"/>
<stop offset="1" stop-color="#26C2C8"/>
</linearGradient>
<linearGradient id="paint3_linear_1_12" x1="15.3775" y1="285" x2="15.3775" y2="312.461" gradientUnits="userSpaceOnUse">
<stop stop-color="#1F639C"/>
<stop offset="1" stop-color="#26C2C8"/>
</linearGradient>
<linearGradient id="paint4_linear_1_12" x1="591.622" y1="312.461" x2="591.622" y2="285" gradientUnits="userSpaceOnUse">
<stop stop-color="#1F639C"/>
<stop offset="1" stop-color="#26C2C8"/>
</linearGradient>
</defs>
</svg>
