<svg width="23" height="23" viewBox="0 0 23 23" fill="none" xmlns="http://www.w3.org/2000/svg">
<g clip-path="url(#clip0_423_8801)">
<path d="M11.9999 18.7082C12.8808 18.7082 13.7531 18.5347 14.567 18.1975C15.3809 17.8604 16.1204 17.3663 16.7434 16.7434C17.3663 16.1204 17.8604 15.3809 18.1975 14.567C18.5347 13.7531 18.7082 12.8808 18.7082 11.9999C18.7082 11.1189 18.5347 10.2466 18.1975 9.43269C17.8604 8.6188 17.3663 7.87927 16.7434 7.25635C16.1204 6.63342 15.3809 6.13929 14.567 5.80216C13.7531 5.46504 12.8808 5.29152 11.9999 5.29152C10.2207 5.29152 8.5144 5.99829 7.25635 7.25635C5.99829 8.5144 5.29152 10.2207 5.29152 11.9999C5.29152 13.779 5.99829 15.4853 7.25635 16.7434C8.5144 18.0014 10.2207 18.7082 11.9999 18.7082ZM20.1989 11.9999C20.1989 16.528 16.528 20.1989 11.9999 20.1989C7.47173 20.1989 3.80078 16.528 3.80078 11.9999C3.80078 7.47173 7.47173 3.80078 11.9999 3.80078C16.528 3.80078 20.1989 7.47173 20.1989 11.9999ZM14.236 15.2899L11.2545 12.3084V7.15495H12.7452V11.6913L15.2899 14.236L14.236 15.2899Z" fill="black"/>
</g>
<defs>
<clipPath id="clip0_423_8801">
<rect width="17.8889" height="17.8889" fill="white" transform="translate(3.05469 3.05518)"/>
</clipPath>
</defs>
</svg>
