<svg xmlns="http://www.w3.org/2000/svg" width="22" height="22" viewBox="0 0 22 22" fill="none">
  <path d="M18.3857 1.57129H8.17143C7.04479 1.57129 6.12857 2.48751 6.12857 3.61415V7.69986H2.04286C0.916221 7.69986 0 8.61608 0 9.74272V19.957C0 21.0836 0.916221 21.9999 2.04286 21.9999H12.2571C13.3838 21.9999 14.3 21.0836 14.3 19.957V15.8713H18.3857C19.5124 15.8713 20.4286 14.9551 20.4286 13.8284V3.61415C20.4286 2.48751 19.5124 1.57129 18.3857 1.57129ZM2.04286 19.957V9.74272H12.2571L12.2592 19.957H2.04286ZM18.3857 13.8284H14.3V9.74272C14.3 8.61608 13.3838 7.69986 12.2571 7.69986H8.17143V3.61415H18.3857V13.8284Z" fill="black"/>
</svg>