<svg xmlns="http://www.w3.org/2000/svg" width="18" height="18" viewBox="0 0 18 18" fill="none">
  <g clip-path="url(#clip0_7411_45917)">
    <path fill-rule="evenodd" clip-rule="evenodd" d="M17.6252 0.234616C17.6776 0.274931 17.7244 0.322135 17.7642 0.374863C17.7848 0.402207 17.8034 0.430665 17.8198 0.460004C17.8789 0.566073 17.9127 0.688292 17.9127 0.818398V6.27296C17.9127 6.67964 17.583 7.00933 17.1763 7.00933C16.7696 7.00933 16.44 6.67964 16.44 6.27296V2.59606L7.69691 11.3391C7.40933 11.6267 6.9431 11.6267 6.65553 11.3391C6.36796 11.0516 6.36796 10.5853 6.65553 10.2978L15.3985 1.55476H11.7218C11.315 1.55476 10.9854 1.22508 10.9854 0.818398C10.9854 0.411713 11.315 0.0820312 11.7218 0.0820312H17.1761C17.176 0.0820312 17.1762 0.0820312 17.1761 0.0820312C17.291 0.0820312 17.4001 0.108377 17.4971 0.15536C17.5417 0.176993 17.5847 0.203412 17.6252 0.234616ZM2.63073 4.28197C2.34381 4.28197 2.06864 4.39594 1.86576 4.59882C1.66287 4.80171 1.5489 5.07687 1.5489 5.36379V15.3639C1.5489 15.6507 1.66287 15.9259 1.86576 16.1288C2.06864 16.3317 2.34381 16.4457 2.63073 16.4457H12.6308C12.9177 16.4457 13.1929 16.3317 13.3957 16.1288C13.5986 15.9259 13.7126 15.6507 13.7126 15.3639V9.90929C13.7126 9.50257 14.0423 9.17293 14.4489 9.17293C14.8556 9.17293 15.1853 9.50257 15.1853 9.90929V15.3639C15.1853 16.0413 14.9162 16.6911 14.4371 17.1702C13.958 17.6492 13.3083 17.9184 12.6308 17.9184H2.63073C1.95321 17.9184 1.30345 17.6492 0.824384 17.1702C0.345311 16.6911 0.0761719 16.0413 0.0761719 15.3639V5.36379C0.0761719 4.68628 0.345311 4.03652 0.824384 3.55745C1.30345 3.07838 1.95321 2.80924 2.63073 2.80924H8.08529C8.49199 2.80924 8.82164 3.13892 8.82164 3.5456C8.82164 3.95228 8.49199 4.28197 8.08529 4.28197H2.63073Z" fill="#999999"/>
  </g>
  <defs>
    <clipPath id="clip0_7411_45917">
      <rect width="18" height="18" fill="white"/>
    </clipPath>
  </defs>
</svg>