<svg xmlns="http://www.w3.org/2000/svg" width="26" height="26" viewBox="0 0 26 26" fill="none">
  <path d="M20.8758 5.77389C19.435 5.10222 17.875 4.61472 16.25 4.33306C16.2357 4.3326 16.2215 4.33528 16.2084 4.34089C16.1953 4.34651 16.1836 4.35493 16.1741 4.36556C15.9791 4.72306 15.7516 5.18889 15.6 5.54639C13.8764 5.28639 12.1235 5.28639 10.4 5.54639C10.2483 5.17806 10.0208 4.72306 9.81496 4.36556C9.80413 4.34389 9.77163 4.33306 9.73913 4.33306C8.11413 4.61472 6.56496 5.10222 5.1133 5.77389C5.10246 5.77389 5.09163 5.78472 5.0808 5.79556C2.13413 10.2047 1.32163 14.4947 1.72246 18.7414C1.72246 18.7631 1.7333 18.7847 1.75496 18.7956C3.70496 20.2256 5.57913 21.0922 7.43163 21.6664C7.46413 21.6772 7.49663 21.6664 7.50746 21.6447C7.9408 21.0489 8.3308 20.4206 8.66663 19.7597C8.6883 19.7164 8.66663 19.6731 8.6233 19.6622C8.0058 19.4239 7.4208 19.1422 6.84663 18.8172C6.8033 18.7956 6.8033 18.7306 6.8358 18.6981C6.95496 18.6114 7.07413 18.5139 7.1933 18.4272C7.21496 18.4056 7.24746 18.4056 7.26913 18.4164C10.9958 20.1172 15.015 20.1172 18.6983 18.4164C18.72 18.4056 18.7525 18.4056 18.7741 18.4272C18.8933 18.5247 19.0125 18.6114 19.1316 18.7089C19.175 18.7414 19.175 18.8064 19.1208 18.8281C18.5575 19.1639 17.9616 19.4347 17.3441 19.6731C17.3008 19.6839 17.29 19.7381 17.3008 19.7706C17.6475 20.4314 18.0375 21.0597 18.46 21.6556C18.4925 21.6664 18.525 21.6772 18.5575 21.6664C20.4208 21.0922 22.295 20.2256 24.245 18.7956C24.2666 18.7847 24.2775 18.7631 24.2775 18.7414C24.7541 13.8339 23.4866 9.57639 20.9191 5.79556C20.9083 5.78472 20.8975 5.77389 20.8758 5.77389ZM9.22996 16.1522C8.11413 16.1522 7.18246 15.1231 7.18246 13.8556C7.18246 12.5881 8.09246 11.5589 9.22996 11.5589C10.3783 11.5589 11.2883 12.5989 11.2775 13.8556C11.2775 15.1231 10.3675 16.1522 9.22996 16.1522ZM16.7808 16.1522C15.665 16.1522 14.7333 15.1231 14.7333 13.8556C14.7333 12.5881 15.6433 11.5589 16.7808 11.5589C17.9291 11.5589 18.8391 12.5989 18.8283 13.8556C18.8283 15.1231 17.9291 16.1522 16.7808 16.1522Z" fill="white"/>
</svg>