<svg width="14" height="14" viewBox="0 0 14 14" fill="none" xmlns="http://www.w3.org/2000/svg">
<g clip-path="url(#clip0_157_7695)">
<path d="M3.62929 -0.03125C2.72173 -0.031253 2.00098 0.679887 2.00098 1.54998V12.4499C2.00098 13.32 2.72173 14.0311 3.62929 14.0311H10.7497C11.6573 14.0311 12.381 13.32 12.381 12.4499V4.32105L8.47008 3.68052C7.64572 3.54628 7.09967 2.73897 7.30476 1.93744L7.80895 -0.03125H3.62929ZM8.30333 0.217901L7.82857 2.0728C7.70126 2.57033 8.03183 3.06493 8.55935 3.15083L11.8493 3.68542L8.30333 0.217901ZM5.44496 6.18773H10.6222C10.6935 6.18736 10.7621 6.2152 10.813 6.26517C10.8639 6.31515 10.893 6.38321 10.8939 6.45453C10.8941 6.49027 10.8872 6.52568 10.8736 6.55873C10.86 6.59177 10.84 6.6218 10.8147 6.64707C10.7895 6.67233 10.7594 6.69234 10.7264 6.70593C10.6933 6.71952 10.6579 6.72643 10.6222 6.72624H5.44496C5.40931 6.7263 5.374 6.7193 5.34106 6.70565C5.30813 6.692 5.27822 6.67197 5.25306 6.64672C5.2279 6.62146 5.20798 6.59148 5.19445 6.5585C5.18092 6.52552 5.17404 6.49018 5.17422 6.45453C5.17516 6.38338 5.2041 6.31547 5.25478 6.26552C5.30547 6.21557 5.3738 6.18762 5.44496 6.18773ZM3.69697 7.54531H10.685C10.7563 7.54598 10.8245 7.57481 10.8746 7.62552C10.9248 7.67623 10.9529 7.74471 10.9528 7.81604C10.9521 7.88685 10.9237 7.95458 10.8736 8.00465C10.8235 8.05473 10.7558 8.08316 10.685 8.08383H3.69697C3.62548 8.08419 3.55675 8.05622 3.50583 8.00603C3.4549 7.95584 3.42594 7.88753 3.42526 7.81604C3.42521 7.78039 3.43221 7.74508 3.44586 7.71215C3.45951 7.67921 3.47953 7.6493 3.50479 7.62414C3.53004 7.59898 3.56002 7.57906 3.59301 7.56553C3.62599 7.552 3.66132 7.54513 3.69697 7.54531ZM3.69697 8.90191H6.44254C6.47819 8.90185 6.5135 8.90885 6.54643 8.9225C6.57937 8.93615 6.60928 8.95618 6.63444 8.98143C6.6596 9.00669 6.67952 9.03667 6.69305 9.06965C6.70658 9.10263 6.71345 9.13797 6.71327 9.17362C6.71332 9.20918 6.70636 9.24441 6.69277 9.27728C6.67918 9.31015 6.65924 9.34002 6.63409 9.36517C6.60894 9.39032 6.57908 9.41026 6.54621 9.42384C6.51334 9.43743 6.47811 9.4444 6.44254 9.44435H3.69697C3.66132 9.44453 3.62599 9.43766 3.59301 9.42413C3.56002 9.4106 3.53004 9.39068 3.50479 9.36551C3.47953 9.34035 3.45951 9.31044 3.44586 9.27751C3.43221 9.24458 3.42521 9.20927 3.42526 9.17362C3.42508 9.13789 3.43198 9.10247 3.44557 9.06942C3.45916 9.03638 3.47917 9.00635 3.50444 8.98108C3.52971 8.95582 3.55973 8.93581 3.59278 8.92222C3.62583 8.90863 3.66124 8.90172 3.69697 8.90191ZM7.46465 8.90191H10.685C10.7565 8.90258 10.8248 8.93155 10.875 8.98247C10.9252 9.03339 10.9531 9.10212 10.9528 9.17362C10.9529 9.24494 10.9248 9.31342 10.8746 9.36413C10.8245 9.41484 10.7563 9.44367 10.685 9.44435H7.46465C7.429 9.44453 7.39367 9.43766 7.36069 9.42413C7.3277 9.4106 7.29772 9.39068 7.27247 9.36551C7.24721 9.34035 7.22719 9.31044 7.21354 9.27751C7.19989 9.24458 7.19289 9.20927 7.19294 9.17362C7.19276 9.13789 7.19966 9.10247 7.21325 9.06942C7.22684 9.03638 7.24685 9.00635 7.27212 8.98108C7.29739 8.95582 7.32741 8.93581 7.36046 8.92222C7.3935 8.90863 7.42892 8.90172 7.46465 8.90191ZM3.69697 10.2634H4.66317C4.73365 10.2643 4.80098 10.2927 4.85082 10.3426C4.90066 10.3924 4.92906 10.4597 4.92998 10.5302C4.93034 10.6015 4.90251 10.6701 4.85253 10.721C4.80255 10.7719 4.73449 10.801 4.66317 10.8019H3.69697C3.66124 10.8021 3.62583 10.7952 3.59278 10.7816C3.55973 10.768 3.52971 10.748 3.50444 10.7228C3.47917 10.6975 3.45916 10.6675 3.44557 10.6344C3.43198 10.6014 3.42508 10.566 3.42526 10.5302C3.42619 10.4589 3.45527 10.3908 3.50617 10.3409C3.55706 10.2909 3.62564 10.263 3.69697 10.2634ZM5.64506 10.2634H8.6339C8.70506 10.2633 8.77339 10.2913 8.82407 10.3412C8.87475 10.3912 8.9037 10.4591 8.90463 10.5302C8.90481 10.5659 8.89794 10.6012 8.88441 10.6342C8.87088 10.6672 8.85096 10.6971 8.82579 10.7224C8.80063 10.7477 8.77072 10.7677 8.73779 10.7813C8.70485 10.795 8.66955 10.802 8.6339 10.8019H5.64506C5.5734 10.8015 5.50483 10.7727 5.45443 10.7217C5.40403 10.6708 5.37593 10.6019 5.37629 10.5302C5.37722 10.4594 5.40589 10.3918 5.45615 10.3419C5.50641 10.292 5.57424 10.2638 5.64506 10.2634ZM9.56772 10.2634H10.685C10.7556 10.2641 10.8232 10.2924 10.8733 10.3422C10.9233 10.3921 10.9518 10.4596 10.9528 10.5302C10.9531 10.6017 10.9252 10.6704 10.875 10.7214C10.8248 10.7723 10.7565 10.8013 10.685 10.8019H9.56772C9.53207 10.802 9.49677 10.795 9.46383 10.7813C9.4309 10.7677 9.40099 10.7477 9.37583 10.7224C9.35066 10.6971 9.33074 10.6672 9.31721 10.6342C9.30368 10.6012 9.29681 10.5659 9.29699 10.5302C9.29792 10.4591 9.32687 10.3912 9.37755 10.3412C9.42824 10.2913 9.49657 10.2633 9.56772 10.2634ZM3.69697 11.62H10.685C10.7565 11.6207 10.8248 11.6497 10.875 11.7006C10.9252 11.7515 10.9531 11.8202 10.9528 11.8917C10.9518 11.9624 10.9233 12.0298 10.8733 12.0797C10.8232 12.1296 10.7556 12.1579 10.685 12.1585H3.69697C3.62564 12.1589 3.55706 12.1311 3.50617 12.0811C3.45527 12.0311 3.42619 11.963 3.42526 11.8917C3.42508 11.856 3.43198 11.8206 3.44557 11.7875C3.45916 11.7545 3.47917 11.7245 3.50444 11.6992C3.52971 11.6739 3.55973 11.6539 3.59278 11.6403C3.62583 11.6267 3.66124 11.6198 3.69697 11.62Z" fill="black"/>
</g>
<defs>
<clipPath id="clip0_157_7695">
<rect width="14" height="14" rx="2" fill="white"/>
</clipPath>
</defs>
</svg>
