<svg xmlns="http://www.w3.org/2000/svg" width="101" height="35" viewBox="0 0 101 35" fill="none">
  <path d="M33.7183 19.1569L32.6762 15.0729C32.6463 14.9528 32.55 14.8594 32.4306 14.8294L28.4046 13.8317C28.3747 13.8251 28.3415 13.8217 28.3116 13.8217C28.2154 13.8117 28.1158 13.8417 28.0428 13.9151L21.2488 20.7451L20.3493 17.215C20.3194 17.0949 20.2232 17.0015 20.1037 16.9715L16.6453 16.114L23.436 9.2873C23.4758 9.24725 23.4991 9.19723 23.5156 9.14714C23.5456 9.08044 23.5555 9.0037 23.5356 8.9303L22.4934 4.84632C22.4635 4.7262 22.3673 4.63277 22.2478 4.60275L18.2218 3.60511C18.1422 3.58509 18.0625 3.59844 17.9928 3.6318H17.9895C17.9696 3.64181 17.953 3.65516 17.9331 3.6685C17.9165 3.68185 17.8932 3.68852 17.88 3.70521L6.28999 15.3499C6.28999 15.3499 6.27006 15.3832 6.25678 15.3999C6.18376 15.4867 6.15721 15.6001 6.1904 15.7102L7.31552 19.6574C7.34875 19.7708 7.43502 19.8576 7.54454 19.8876L11.3149 20.9754L12.3969 24.7624C12.4301 24.8758 12.5164 24.9625 12.626 24.9926L16.4096 26.0836L17.495 29.8874C17.5281 30.0008 17.6145 30.0875 17.724 30.1176L21.667 31.2553C21.6968 31.2653 21.7301 31.2687 21.7599 31.2687C21.7666 31.2687 21.7732 31.2653 21.7831 31.2653C21.7831 31.2653 21.7865 31.2653 21.7898 31.2653C21.8761 31.2653 21.9623 31.232 22.0288 31.1653L33.6221 19.5106C33.6619 19.4706 33.6851 19.4205 33.7017 19.3705C33.7316 19.3037 33.7416 19.227 33.7217 19.1536L33.7183 19.1569ZM28.5207 23.6846L27.6744 20.3648L29.5496 18.4829L32.7724 19.4138L28.5241 23.688L28.5207 23.6846ZM21.9458 30.2944L21.0994 26.9745L24.4915 23.5645L27.7142 24.4954L21.9458 30.2944ZM24.5611 22.5402L23.7513 19.7041L26.6621 20.4248L24.5611 22.5369V22.5402ZM27.1234 20.9186L27.8669 23.8315L25.0358 23.014L27.1234 20.9153V20.9186ZM27.2197 19.8676L23.9206 19.0502L28.159 14.7893L29.075 18.0025L27.2197 19.8676ZM23.1008 19.871L24.0168 23.0841L20.6414 26.4774L17.3423 25.6599L23.1008 19.871ZM32.0754 15.43L32.9218 18.7498L29.7222 17.8256L28.8062 14.6191L32.0754 15.43ZM16.8444 25.1661L15.9981 21.8462L17.2195 20.6183L20.4423 21.5492L16.8444 25.1661ZM17.2892 19.594L16.4794 16.7579L19.3901 17.4786L17.2892 19.5906V19.594ZM20.5949 20.8886L17.7638 20.0711L19.8515 17.9724L20.5949 20.8852V20.8886ZM16.7482 20.1412L15.5434 21.3524L12.2443 20.5349L15.8321 16.9281L16.7482 20.1412ZM12.9512 9.6076L13.8673 12.8208L10.462 16.2441L7.16285 15.4266L12.9512 9.6076ZM17.9795 4.5527L18.8956 7.76583L17.0701 9.60096L13.7711 8.78351L17.9795 4.5527ZM18.3712 13.418L17.5248 10.1014L19.3702 8.2463L22.593 9.17386L18.3712 13.418ZM14.4116 12.2769L13.6018 9.44078L16.5125 10.1615L14.4116 12.2735V12.2769ZM16.9739 10.6553L17.7173 13.5681L14.8896 12.7507L16.9772 10.6519L16.9739 10.6553ZM14.3452 13.2979L17.568 14.2254L11.7696 20.0544L10.9233 16.7379L14.3452 13.2979ZM21.896 5.19999L22.7423 8.51987L19.5428 7.59566L18.6267 4.3892L21.896 5.19999ZM6.99691 16.0839L9.90772 16.8046L7.80673 18.9167L6.99691 16.0806V16.0839ZM8.28136 19.3971L10.369 17.2985L11.1125 20.2113L8.28468 19.3938L8.28136 19.3971ZM12.9911 24.3987L12.075 21.1922L15.3443 22.003L16.1906 25.3229L12.9911 24.3987ZM17.1763 26.3172L20.0871 27.0379L17.9862 29.1499L17.1763 26.3139V26.3172ZM18.4608 29.6304L20.5485 27.5317L21.2919 30.4445L18.4608 29.6271V29.6304Z" fill="url(#paint0_linear_5120_73325)"/>
  <path d="M43.6192 24.1019C42.5538 24.1019 41.6278 23.8883 40.8312 23.4612C40.038 23.0342 39.4207 22.4536 38.9859 21.7129C38.5478 20.9755 38.332 20.1246 38.332 19.1637C38.332 18.2028 38.5445 17.352 38.9693 16.6146C39.3941 15.8772 39.9783 15.2933 40.7251 14.8662C41.4718 14.4391 42.3215 14.2256 43.2807 14.2256C44.2399 14.2256 45.0431 14.4324 45.7733 14.8462C46.5035 15.2599 47.0743 15.8405 47.4925 16.5845C47.9107 17.3286 48.1198 18.2128 48.1198 19.2338C48.1198 19.3172 48.1198 19.424 48.1099 19.5507C48.1032 19.6776 48.0966 19.7877 48.0833 19.8844H40.1077V18.3896H46.9018L46.0056 18.8568C46.0189 18.3162 45.906 17.8324 45.6737 17.4053C45.4414 16.9782 45.1194 16.648 44.7145 16.4144C44.3096 16.1808 43.8283 16.064 43.2807 16.064C42.7331 16.064 42.2618 16.1808 41.8369 16.4144C41.4121 16.648 41.0868 16.9816 40.8611 17.4154C40.6355 17.8491 40.5193 18.3463 40.5193 18.9101V19.2705C40.5193 19.8477 40.6487 20.3582 40.9043 20.802C41.1598 21.2457 41.5283 21.5927 42.0062 21.8363C42.4841 22.0833 43.0384 22.2067 43.6723 22.2067C44.21 22.2067 44.6946 22.1166 45.1228 21.9364C45.5542 21.7563 45.9359 21.4926 46.2711 21.1423L47.4892 22.547C47.0478 23.0509 46.5001 23.4379 45.8496 23.7015C45.1991 23.9651 44.4556 24.0985 43.6192 24.0985V24.1019Z" fill="#19163B"/>
  <path d="M48.0996 16.2276V14.4258H54.4787V16.2276H48.0996ZM52.9753 24.1019C51.9231 24.1019 51.11 23.8283 50.5391 23.2811C49.9649 22.7339 49.6794 21.9331 49.6794 20.8755V12.2271H51.9032V20.8021C51.9032 21.2592 52.0227 21.6128 52.2616 21.8664C52.5006 22.12 52.8358 22.2435 53.264 22.2435C53.7552 22.2435 54.1601 22.11 54.4821 21.8464L55.126 23.4513C54.8506 23.6682 54.5219 23.8283 54.1402 23.9384C53.7585 24.0452 53.3702 24.1019 52.9753 24.1019Z" fill="#19163B"/>
  <path d="M61.3261 14.229C62.1024 14.229 62.7863 14.3791 63.3774 14.6794C63.9679 14.9797 64.4393 15.4435 64.7941 16.0674C65.1463 16.6914 65.3218 17.4921 65.3218 18.4631V23.9751H63.0816V18.75C63.0816 17.8959 62.8862 17.2619 62.4911 16.8416C62.0959 16.4211 61.5349 16.2109 60.8048 16.2109C60.2803 16.2109 59.8128 16.3177 59.4074 16.5346C59.0027 16.7514 58.6875 17.0717 58.4685 17.4988C58.2457 17.9259 58.1362 18.4631 58.1362 19.1104V23.9751H55.9126V10.6055H58.1362V16.965L57.6718 16.1542C57.9939 15.5403 58.4749 15.0665 59.1154 14.7295C59.7559 14.3925 60.4929 14.2257 61.3293 14.2257L61.3261 14.229Z" fill="#19163B"/>
  <path d="M71.4192 24.1019C70.3536 24.1019 69.4275 23.8883 68.6308 23.4612C67.8379 23.0342 67.2206 22.4536 66.7857 21.7129C66.3476 20.9755 66.1318 20.1246 66.1318 19.1637C66.1318 18.2028 66.3444 17.352 66.7691 16.6146C67.1937 15.8772 67.7783 15.2933 68.5251 14.8662C69.2718 14.4391 70.1211 14.2256 71.0804 14.2256C72.0398 14.2256 72.8429 14.4324 73.573 14.8462C74.3031 15.2599 74.8743 15.8405 75.2925 16.5845C75.7107 17.3286 75.9195 18.2128 75.9195 19.2338C75.9195 19.3172 75.9195 19.424 75.9099 19.5507C75.9029 19.6776 75.8965 19.7877 75.883 19.8844H67.9077V18.3896H74.7014L73.8055 18.8568C73.8189 18.3162 73.7056 17.8324 73.4737 17.4053C73.2412 16.9782 72.9191 16.648 72.5143 16.4144C72.1096 16.1808 71.628 16.064 71.0804 16.064C70.5329 16.064 70.0615 16.1808 69.6369 16.4144C69.2117 16.648 68.8869 16.9816 68.6609 17.4154C68.4354 17.8491 68.3189 18.3463 68.3189 18.9101V19.2705C68.3189 19.8477 68.4483 20.3582 68.7038 20.802C68.9599 21.2457 69.3282 21.5927 69.806 21.8363C70.2838 22.0833 70.8383 22.2067 71.4723 22.2067C72.0097 22.2067 72.4945 22.1166 72.9224 21.9364C73.354 21.7563 73.7357 21.4926 74.0712 21.1423L75.2893 22.547C74.8475 23.0509 74.2999 23.4379 73.6492 23.7015C72.9991 23.9651 72.2556 24.0985 71.4192 24.0985V24.1019Z" fill="#19163B"/>
  <path d="M76.9187 23.9746V14.3519H79.0527V17.0012L78.8009 16.2271C79.0763 15.5798 79.524 15.0827 80.1452 14.7423C80.7658 14.3987 81.5254 14.2285 82.4219 14.2285V16.3739C82.3387 16.3606 82.256 16.3539 82.1696 16.3472C82.0864 16.3406 82.0069 16.3372 81.9371 16.3372C81.0777 16.3372 80.3969 16.5841 79.8928 17.0746C79.3914 17.5684 79.1391 18.3191 79.1391 19.3268V23.9746H76.9155H76.9187Z" fill="#19163B"/>
  <path d="M86.6333 16.2275V14.4258H93.0126V16.2275H86.6333ZM88.21 23.975V13.8319C88.21 12.8108 88.5053 11.9967 89.0963 11.3895C89.6869 10.7822 90.5335 10.4786 91.6318 10.4786C92.027 10.4786 92.3984 10.522 92.7538 10.6054C93.1055 10.6888 93.4007 10.8223 93.6396 11.0024L93.0126 12.6774C92.8564 12.5706 92.6706 12.4805 92.4586 12.4071C92.2428 12.3337 92.0237 12.3003 91.7945 12.3003C91.3296 12.3003 90.9747 12.4305 90.7358 12.6874C90.497 12.9443 90.3772 13.328 90.3772 13.8319V14.9496L90.4304 15.9406V23.975H88.2068H88.21ZM95.721 12.7675C95.3028 12.7675 94.9608 12.634 94.6918 12.3704C94.4234 12.1068 94.2903 11.7832 94.2903 11.3962C94.2903 11.0358 94.4234 10.7221 94.6918 10.4586C94.9608 10.195 95.3028 10.0615 95.721 10.0615C96.1392 10.0615 96.4811 10.1849 96.7533 10.4319C97.0217 10.6788 97.1549 10.9924 97.1549 11.3761C97.1549 11.7599 97.0217 12.0868 96.7598 12.3571C96.4978 12.6273 96.1488 12.7641 95.721 12.7641V12.7675ZM94.6092 23.975V14.3524H96.8328V23.975H94.6092Z" fill="#19163B"/>
  <path d="M85.0834 23.6047L84.1939 22.1266C84.1278 22.0198 84.0113 21.9531 83.8884 21.9531H83.8819C83.7558 21.9531 83.6366 22.0265 83.5733 22.14L82.7471 23.6414C82.6338 23.8483 82.6338 24.0985 82.7471 24.3054L83.5765 25.8102C83.6398 25.9236 83.7558 25.9937 83.8852 25.997H83.8884C84.0146 25.997 84.1343 25.9303 84.1971 25.8202L85.0834 24.3121C85.2128 24.0952 85.2096 23.8249 85.0834 23.6081V23.6047Z" fill="#19163B"/>
  <defs>
    <linearGradient id="paint0_linear_5120_73325" x1="8.08557" y1="21.7761" x2="31.9753" y2="13.1253" gradientUnits="userSpaceOnUse">
      <stop stop-color="#29BCFA"/>
      <stop offset="0.43" stop-color="#6464E4"/>
      <stop offset="1" stop-color="#B45AFA"/>
    </linearGradient>
  </defs>
</svg>