<svg width="50" height="51" viewBox="0 0 50 51" fill="none" xmlns="http://www.w3.org/2000/svg">
<circle cx="25" cy="25.5" r="24.5" fill="currentFill" stroke="currentColor"/>
<path d="M34.3335 15.834H15.6668C14.3835 15.834 13.3452 16.9215 13.3452 18.2507L13.3335 32.7507C13.3335 34.0798 14.3835 35.1673 15.6668 35.1673H34.3335C35.6168 35.1673 36.6668 34.0798 36.6668 32.7507V18.2507C36.6668 16.9215 35.6168 15.834 34.3335 15.834ZM33.8668 20.9694L25.6185 26.3102C25.2452 26.5519 24.7552 26.5519 24.3818 26.3102L16.1335 20.9694C16.0165 20.9014 15.9141 20.8095 15.8324 20.6993C15.7507 20.5891 15.6914 20.4628 15.6582 20.3282C15.6249 20.1936 15.6184 20.0534 15.639 19.9161C15.6596 19.7788 15.7069 19.6473 15.778 19.5294C15.8491 19.4116 15.9425 19.3099 16.0527 19.2306C16.1628 19.1513 16.2873 19.0959 16.4187 19.0678C16.5501 19.0398 16.6857 19.0397 16.8171 19.0674C16.9486 19.0952 17.0732 19.1503 17.1835 19.2294L25.0002 24.2923L32.8168 19.2294C32.9271 19.1503 33.0518 19.0952 33.1832 19.0674C33.3147 19.0397 33.4502 19.0398 33.5816 19.0678C33.713 19.0959 33.8375 19.1513 33.9476 19.2306C34.0578 19.3099 34.1512 19.4116 34.2223 19.5294C34.2934 19.6473 34.3407 19.7788 34.3613 19.9161C34.3819 20.0534 34.3754 20.1936 34.3422 20.3282C34.3089 20.4628 34.2497 20.5891 34.168 20.6993C34.0863 20.8095 33.9838 20.9014 33.8668 20.9694Z" fill="black"/>
</svg>
