<svg xmlns="http://www.w3.org/2000/svg" width="19" height="20" viewBox="0 0 19 20" fill="none">
  <g clip-path="url(#clip0_311_4713)">
    <path d="M1.37157 1.8722C1.25952 1.98423 1.1914 2.13274 1.17958 2.29074C1.16776 2.44874 1.21304 2.60574 1.30718 2.73319L1.37157 2.80729L4.93018 6.36678C3.19501 7.58294 1.95634 9.38379 1.44126 11.4392C1.40155 11.6084 1.43 11.7864 1.52048 11.9348C1.61096 12.0832 1.7562 12.19 1.9248 12.2322C2.09341 12.2744 2.27184 12.2485 2.42153 12.1602C2.57123 12.0719 2.68016 11.9282 2.7248 11.7603C3.18255 9.93598 4.30994 8.3507 5.88291 7.31951L7.47961 8.91621C6.84181 9.58267 6.49035 10.4724 6.50053 11.3948C6.5107 12.3172 6.88169 13.199 7.53404 13.8512C8.18639 14.5035 9.06821 14.8743 9.99064 14.8843C10.9131 14.8943 11.8027 14.5427 12.4691 13.9048L17.6905 19.1271C17.8086 19.2455 17.9671 19.3148 18.1342 19.3211C18.3012 19.3274 18.4645 19.2702 18.5911 19.161C18.7177 19.0518 18.7983 18.8988 18.8166 18.7326C18.835 18.5664 18.7898 18.3995 18.69 18.2653L18.6256 18.1912L13.233 12.7977L13.2339 12.7959L7.10293 6.66848L7.10469 6.66671L6.10521 5.66988L2.30666 1.8722C2.1826 1.7483 2.01444 1.67871 1.83911 1.67871C1.66379 1.67871 1.49563 1.7483 1.37157 1.8722ZM9.99904 4.76567C9.11689 4.76567 8.2612 4.89623 7.4505 5.14059L8.54172 6.23093C10.4291 5.85721 12.388 6.22306 14.0133 7.25284C15.6386 8.28262 16.806 9.89758 17.2742 11.7638C17.3199 11.9305 17.429 12.0726 17.5781 12.1599C17.7273 12.2472 17.9047 12.2726 18.0724 12.2308C18.2401 12.1889 18.3847 12.0832 18.4754 11.936C18.5661 11.7889 18.5956 11.6122 18.5577 11.4436C18.0793 9.53588 16.9774 7.84268 15.4268 6.63281C13.8762 5.42295 11.9658 4.76579 9.99904 4.76567ZM10.1711 7.86203L13.5241 11.2142C13.4808 10.339 13.1135 9.51123 12.4938 8.8917C11.8742 8.27218 11.0463 7.90518 10.1711 7.86203Z" fill="currentFill"/>
  </g>
  <defs>
    <clipPath id="clip0_311_4713">
      <rect width="19" height="19" fill="white" transform="translate(0 0.5)"/>
    </clipPath>
  </defs>
</svg>