<svg width="16" height="16" viewBox="0 0 16 16" fill="none" xmlns="http://www.w3.org/2000/svg">
<g clip-path="url(#clip0_591_11252)">
<path d="M13.3361 16H2.66947C2.36647 15.9997 2.07597 15.8792 1.86171 15.6649C1.64746 15.4506 1.52694 15.1601 1.52661 14.8571V0.761906C1.52681 0.559898 1.60715 0.366222 1.74999 0.22338C1.89283 0.0805392 2.08651 0.000202495 2.28852 7.89804e-07H10.7089C10.9031 -0.000279187 11.09 0.073887 11.2312 0.207239L14.2394 3.03852C14.3149 3.10988 14.3751 3.19585 14.4163 3.29121C14.4575 3.38657 14.4788 3.48932 14.479 3.59319V14.8571C14.4787 15.1601 14.3581 15.4506 14.1439 15.6649C13.9296 15.8792 13.6391 15.9997 13.3361 16ZM2.28852 0.761906V14.8571C2.28865 14.9581 2.32882 15.055 2.40024 15.1264C2.47165 15.1978 2.56847 15.238 2.66947 15.2381H13.3361C13.4371 15.238 13.534 15.1978 13.6054 15.1264C13.6768 15.055 13.717 14.9582 13.7171 14.8571V3.59319L10.7089 0.761906H2.28852Z" fill="black"/>
<path d="M13.3361 14.4762H2.66947C2.36647 14.4759 2.07597 14.3554 1.86171 14.1411C1.64746 13.9268 1.52694 13.6363 1.52661 13.3333V0.761906C1.52681 0.559898 1.60715 0.366222 1.74999 0.22338C1.89283 0.0805392 2.08651 0.000202495 2.28852 7.89804e-07H10.7089C10.9031 -0.000279187 11.09 0.073887 11.2312 0.207239L14.2394 3.03852C14.3149 3.10988 14.3751 3.19585 14.4163 3.29121C14.4575 3.38657 14.4788 3.48932 14.479 3.59319V13.3333C14.4787 13.6363 14.3581 13.9268 14.1439 14.1411C13.9296 14.3554 13.6391 14.4759 13.3361 14.4762ZM2.28852 0.761906V13.3333C2.28865 13.4343 2.32882 13.5312 2.40024 13.6026C2.47165 13.674 2.56847 13.7142 2.66947 13.7143H13.3361C13.4371 13.7142 13.534 13.674 13.6054 13.6026C13.6768 13.5312 13.717 13.4343 13.7171 13.3333V3.59319L10.7089 0.761906H2.28852Z" fill="black"/>
<path d="M14.0949 4.19047H11.0473C10.8504 4.19518 10.6596 4.12164 10.5168 3.98598C10.374 3.85033 10.2908 3.6636 10.2854 3.4667V0.380952C10.2854 0.279917 10.3255 0.183021 10.397 0.111578C10.4684 0.0401359 10.5653 0 10.6664 0C10.7674 0 10.8643 0.0401359 10.9357 0.111578C11.0072 0.183021 11.0473 0.279917 11.0473 0.380952V3.42522L14.0949 3.42857C14.196 3.42857 14.2929 3.46871 14.3643 3.54015C14.4357 3.61159 14.4759 3.70849 14.4759 3.80952C14.4759 3.91056 14.4357 4.00745 14.3643 4.0789C14.2929 4.15034 14.196 4.19047 14.0949 4.19047Z" fill="black"/>
<path d="M5.71073 7.99883C5.51901 7.99868 5.32782 7.97867 5.14023 7.93912C4.54084 7.80749 4.00514 7.47326 3.62342 6.99276C3.2417 6.51226 3.03728 5.91486 3.04462 5.30123C3.05196 4.6876 3.27061 4.09526 3.66372 3.62403C4.05682 3.1528 4.60036 2.83148 5.20273 2.71423C5.30947 2.69385 5.41941 2.69736 5.52464 2.7245C5.62987 2.75165 5.72779 2.80175 5.81136 2.87122C5.89914 2.94334 5.96981 3.03404 6.01829 3.13678C6.06676 3.23952 6.09183 3.35174 6.09168 3.46535V4.9514H7.57773C7.69133 4.95124 7.80355 4.97631 7.90629 5.02478C8.00903 5.07326 8.09973 5.14394 8.17185 5.23172C8.24141 5.31524 8.29157 5.41315 8.31872 5.5184C8.34586 5.62364 8.34932 5.7336 8.32884 5.84035C8.26031 6.18743 8.12387 6.51756 7.92736 6.81175C7.73084 7.10594 7.47814 7.35841 7.18375 7.55463C6.74749 7.84514 6.23486 7.99973 5.71073 7.99883ZM5.32977 3.46535C4.99281 3.53421 4.68078 3.69303 4.4268 3.92494C4.17282 4.15685 3.98637 4.4532 3.88724 4.78253C3.78811 5.11186 3.78 5.46189 3.86377 5.79546C3.94754 6.12904 4.12006 6.4337 4.36302 6.67713C4.60599 6.92055 4.91033 7.09365 5.24374 7.17805C5.57715 7.26245 5.9272 7.255 6.25672 7.1565C6.58624 7.05799 6.88294 6.8721 7.11533 6.61856C7.34772 6.36502 7.50713 6.0533 7.57663 5.71646L6.09168 5.7133C5.88967 5.7131 5.69599 5.63276 5.55315 5.48992C5.41031 5.34708 5.32997 5.1534 5.32977 4.9514V3.46535Z" fill="black"/>
<path d="M8.71993 4.57041H7.23481C7.0328 4.57021 6.83912 4.48987 6.69628 4.34703C6.55344 4.20419 6.4731 4.01051 6.4729 3.8085V2.32357C6.47278 2.20991 6.49789 2.09764 6.54643 1.99486C6.59497 1.89208 6.66573 1.80137 6.75359 1.72926C6.83757 1.65933 6.93604 1.60895 7.04188 1.58176C7.14773 1.55458 7.25829 1.55127 7.36557 1.57208C7.88499 1.67654 8.36197 1.93213 8.73663 2.30675C9.11128 2.68137 9.36691 3.15833 9.47141 3.67774C9.49207 3.78504 9.48867 3.89558 9.46146 4.0014C9.43425 4.10723 9.3839 4.2057 9.31405 4.28972C9.24198 4.37758 9.1513 4.44833 9.04855 4.49688C8.94581 4.54542 8.83356 4.57053 8.71993 4.57041ZM7.21974 2.31985L7.23481 3.8085H8.71993C8.72235 3.80814 8.72458 3.80696 8.72625 3.80515C8.64702 3.43779 8.46226 3.10155 8.19464 2.8377C7.92702 2.57385 7.58819 2.39387 7.21974 2.31985Z" fill="black"/>
<path d="M8.71993 4.57041H7.23481C7.0328 4.57021 6.83912 4.48987 6.69628 4.34703C6.55344 4.20419 6.4731 4.01051 6.4729 3.8085V2.32357C6.47278 2.20991 6.49789 2.09764 6.54643 1.99486C6.59497 1.89208 6.66573 1.80137 6.75359 1.72926C6.83757 1.65933 6.93604 1.60895 7.04188 1.58176C7.14773 1.55458 7.25829 1.55127 7.36557 1.57208C7.88499 1.67654 8.36197 1.93213 8.73663 2.30675C9.11128 2.68137 9.36691 3.15833 9.47141 3.67774C9.49207 3.78504 9.48867 3.89558 9.46146 4.0014C9.43425 4.10723 9.3839 4.2057 9.31405 4.28972C9.24198 4.37758 9.1513 4.44833 9.04855 4.49688C8.94581 4.54542 8.83356 4.57053 8.71993 4.57041ZM7.21974 2.31985L7.23481 3.8085H8.71993C8.72235 3.80814 8.72458 3.80696 8.72625 3.80515C8.64702 3.43779 8.46226 3.10155 8.19464 2.8377C7.92702 2.57385 7.58819 2.39387 7.21974 2.31985Z" fill="black"/>
<path d="M11.8093 8.38105H8.38071C8.27967 8.38105 8.18278 8.34091 8.11133 8.26947C8.03989 8.19803 7.99976 8.10113 7.99976 8.00009C7.99976 7.89906 8.03989 7.80216 8.11133 7.73072C8.18278 7.65928 8.27967 7.61914 8.38071 7.61914H11.8093C11.9103 7.61914 12.0072 7.65928 12.0787 7.73072C12.1501 7.80216 12.1902 7.89906 12.1902 8.00009C12.1902 8.10113 12.1501 8.19803 12.0787 8.26947C12.0072 8.34091 11.9103 8.38105 11.8093 8.38105Z" fill="black"/>
<path d="M11.8092 6.47675H9.52353C9.4225 6.47675 9.3256 6.43661 9.25416 6.36517C9.18271 6.29373 9.14258 6.19683 9.14258 6.0958C9.14258 5.99476 9.18271 5.89786 9.25416 5.82642C9.3256 5.75498 9.4225 5.71484 9.52353 5.71484H11.8092C11.9103 5.71484 12.0072 5.75498 12.0786 5.82642C12.1501 5.89786 12.1902 5.99476 12.1902 6.0958C12.1902 6.19683 12.1501 6.29373 12.0786 6.36517C12.0072 6.43661 11.9103 6.47675 11.8092 6.47675Z" fill="black"/>
<path d="M11.8123 10.2844H4.19321C4.09217 10.2844 3.99528 10.2442 3.92383 10.1728C3.85239 10.1013 3.81226 10.0044 3.81226 9.90341C3.81226 9.80238 3.85239 9.70548 3.92383 9.63404C3.99528 9.5626 4.09217 9.52246 4.19321 9.52246H11.8123C11.9133 9.52246 12.0102 9.5626 12.0816 9.63404C12.1531 9.70548 12.1932 9.80238 12.1932 9.90341C12.1932 10.0044 12.1531 10.1013 12.0816 10.1728C12.0102 10.2442 11.9133 10.2844 11.8123 10.2844Z" fill="black"/>
<path d="M11.8123 12.1906H4.19321C4.09217 12.1906 3.99528 12.1505 3.92383 12.079C3.85239 12.0076 3.81226 11.9107 3.81226 11.8097C3.81226 11.7086 3.85239 11.6117 3.92383 11.5403C3.99528 11.4688 4.09217 11.4287 4.19321 11.4287H11.8123C11.9133 11.4287 12.0102 11.4688 12.0816 11.5403C12.1531 11.6117 12.1932 11.7086 12.1932 11.8097C12.1932 11.9107 12.1531 12.0076 12.0816 12.079C12.0102 12.1505 11.9133 12.1906 11.8123 12.1906Z" fill="black"/>
</g>
<defs>
<clipPath id="clip0_591_11252">
<rect width="16" height="16" fill="white"/>
</clipPath>
</defs>
</svg>
