<svg xmlns="http://www.w3.org/2000/svg" width="93" height="22" viewBox="0 0 93 22" fill="none">
  <path fill-rule="evenodd" clip-rule="evenodd" d="M76.8196 6.37591H79.4299V3.76562H76.8196V6.37591ZM62.9455 10.7244C63.4436 9.40205 64.7211 8.45965 66.2199 8.45965C67.7188 8.45965 68.9947 9.40205 69.4944 10.7244H62.947H62.9455ZM66.2199 6.03186C62.9484 6.03186 60.2948 8.68553 60.2948 11.9585C60.2948 15.2314 62.9484 17.8851 66.2199 17.8851C68.4652 17.8851 70.4188 16.6361 71.424 14.7961L69.2341 13.7341C68.6253 14.7662 67.5034 15.4588 66.2199 15.4588C64.5969 15.4588 63.2342 14.3534 62.8378 12.856H69.6021C69.6021 12.856 69.6021 12.859 69.6021 12.8605H72.0792C72.1241 12.5673 72.1465 12.2666 72.1465 11.9615C72.1465 8.68852 69.4929 6.03485 66.2199 6.03485V6.03186ZM72.8346 17.5695H75.4449V14.9592H72.8346V17.5695ZM76.8196 17.5695H79.4299V7.52474H76.8196V17.5695ZM86.7163 15.4573C84.7836 15.4573 83.2174 13.8911 83.2174 11.9585C83.2174 10.0258 84.7836 8.45965 86.7163 8.45965C88.6489 8.45965 90.2151 10.0258 90.2151 11.9585C90.2151 13.8911 88.6489 15.4573 86.7163 15.4573ZM86.7148 6.03186C83.4433 6.03186 80.7897 8.68553 80.7897 11.9585C80.7897 15.2314 83.4433 17.8851 86.7148 17.8851C89.9863 17.8851 92.6414 15.2314 92.6414 11.9585C92.6414 8.68553 89.9877 6.03186 86.7148 6.03186ZM32.1395 9.77452V12.4746H35.7895C35.5995 13.2464 35.2225 13.9375 34.6825 14.4895C33.8673 15.3227 32.7379 15.7819 31.5008 15.7819C28.9339 15.7819 26.8457 13.6937 26.8457 11.1253C26.8457 8.55688 28.9339 6.46866 31.5008 6.46866C32.8755 6.46866 34.1395 7.05803 35.0161 8.07222L37.1058 6.36394C35.7207 4.73943 33.6653 3.76862 31.5008 3.76862C27.4455 3.76862 24.1456 7.0685 24.1456 11.1253C24.1456 15.1821 27.4455 18.482 31.5008 18.482C33.4694 18.482 35.2854 17.7729 36.6122 16.4162C37.7251 15.2778 38.4641 13.6892 38.6062 12.0991C38.675 11.3227 38.681 10.5524 38.6406 9.77602H32.141L32.1395 9.77452ZM45.4348 15.4588C43.5022 15.4588 41.936 13.8911 41.936 11.9585C41.936 10.0258 43.5022 8.45816 45.4348 8.45816C47.3675 8.45816 48.9337 10.0243 48.9337 11.9585C48.9337 13.8926 47.3675 15.4588 45.4348 15.4588ZM48.9352 7.18667C47.9539 6.46716 46.7452 6.04233 45.4363 6.04233C42.1649 6.04233 39.5112 8.696 39.5112 11.969C39.5112 15.2419 42.1634 17.8956 45.4363 17.8956C46.7452 17.8956 47.9554 17.4708 48.9352 16.7512V17.571H51.36V6.36843H48.9352V7.18817V7.18667ZM56.5671 3.76562H54.1408V6.37591H52.6868V8.66608H54.1408V14.6585C54.1408 15.2778 54.2186 15.7984 54.3726 16.2067C54.5252 16.6106 54.7571 16.9278 55.0323 17.1746C55.312 17.4259 55.6411 17.6203 56.0301 17.731C56.425 17.8417 56.8618 17.8851 57.3225 17.8851C57.7832 17.8851 58.226 17.8357 58.5895 17.737C58.9261 17.6458 59.2507 17.5186 59.5513 17.3556V15.5112C59.0727 15.7176 58.6254 15.7924 58.1153 15.8163C57.5768 15.8418 57.2582 15.6877 56.9919 15.4349C56.7137 15.1701 56.5656 14.8246 56.5656 14.2457V8.66608H59.5498V6.37591H56.5656V3.76562H56.5671Z" fill="#currentFill"/>
  <path fill-rule="evenodd" clip-rule="evenodd" d="M11.3156 16.4472C8.11894 16.4472 5.52811 13.8563 5.52811 10.6597C5.52811 7.46301 8.11894 4.87068 11.3156 4.87068V0.134766C5.50417 0.134766 0.793701 4.84674 0.793701 10.6597C0.793701 16.4726 5.50417 21.1831 11.3156 21.1831C17.127 21.1831 21.8375 16.4711 21.8375 10.6597H17.1031C17.1031 13.8563 14.5123 16.4472 11.3156 16.4472Z" fill="#2254E4"/>
  <path fill-rule="evenodd" clip-rule="evenodd" d="M11.3026 10.641H17.0886V4.85352H11.3026V10.641Z" fill="#13E49F"/>
</svg>