<svg width="288" height="128" viewBox="0 0 288 128" fill="none" xmlns="http://www.w3.org/2000/svg">
<g clip-path="url(#clip0_8668_107625)">
<path d="M138 127.5C155.673 127.5 170 113.173 170 95.5C170 77.8269 155.673 63.5 138 63.5C120.327 63.5 106 77.8269 106 95.5C106 113.173 120.327 127.5 138 127.5Z" fill="url(#paint0_linear_8668_107625)"/>
<path d="M140.5 95.4532L145.255 102.313L157.904 84.0566H148.398L140.5 95.4532Z" fill="black"/>
<path d="M135.504 95.4532L130.751 102.313L118.1 84.0566H127.606L135.504 95.4532Z" fill="white"/>
<path d="M142.73 105.923L137.983 99.0723L133.234 105.923L137.983 112.777L142.73 105.923Z" fill="white"/>
</g>
<path d="M14.5748 81.1562C22.6255 81.1562 29.1495 87.7016 29.1495 95.7736C29.1495 103.845 22.6255 110.391 14.5748 110.391C6.52398 110.391 0 103.848 0 95.7736C0 87.6993 6.52632 81.1562 14.5748 81.1562Z" fill="#F5AC37"/>
<g filter="url(#filter0_i_8668_107625)">
<path d="M14.512 83.3828C21.3769 83.3828 26.94 88.9641 26.94 95.8471C26.94 102.73 21.3769 108.311 14.512 108.311C7.64703 108.311 2.08398 102.732 2.08398 95.8471C2.08398 88.9621 7.64903 83.3828 14.512 83.3828Z" fill="#E8A436"/>
</g>
<g filter="url(#filter1_d_8668_107625)">
<path d="M14.7698 96.6168H19.1839C19.2772 96.6168 19.322 96.6168 19.3294 96.4933C19.3649 96.0421 19.3649 95.5891 19.3294 95.1399C19.3294 95.0519 19.2865 95.0163 19.1913 95.0163H10.4061C10.2978 95.0163 10.2679 95.0519 10.2679 95.1549V96.4502C10.2679 96.5613 10.3258 96.6168 10.4415 96.6168H14.7679H14.7698ZM18.8367 93.5001C18.8498 93.4664 18.8498 93.4309 18.8367 93.399C18.7639 93.2381 18.6762 93.0846 18.5735 92.9404C18.4205 92.6934 18.2413 92.4669 18.036 92.2628C17.939 92.1393 17.827 92.0288 17.7019 91.9352C17.0729 91.398 16.3264 91.0199 15.5238 90.829C15.1188 90.7372 14.7044 90.6942 14.2901 90.6979H10.3911C10.2829 90.6979 10.2679 90.741 10.2679 90.8365V93.4215C10.2679 93.5301 10.2679 93.56 10.4061 93.56H18.7844C18.7844 93.56 18.8572 93.5451 18.8722 93.502H18.8367V93.5001ZM18.8367 98.1311C18.7135 98.118 18.5885 98.118 18.4653 98.1311H10.4135C10.3053 98.1311 10.2679 98.1311 10.2679 98.2772V100.804C10.2679 100.92 10.2679 100.95 10.4135 100.95H14.1314C14.3088 100.963 14.4861 100.95 14.6615 100.915C15.2009 100.875 15.731 100.759 16.2368 100.565C16.4215 100.501 16.5989 100.417 16.7668 100.317H16.8172C17.6889 99.8626 18.3962 99.1494 18.8423 98.2715C18.8423 98.2715 18.8927 98.1611 18.8367 98.133V98.1311ZM8.81026 102.261V98.2341C8.81026 98.1386 8.81026 98.1255 8.69454 98.1255H7.11928C7.03156 98.1255 6.99609 98.1255 6.99609 98.0095V96.6262H8.67961C8.77293 96.6262 8.81026 96.6262 8.81026 96.5026V95.1343C8.81026 95.0463 8.81026 95.0257 8.69454 95.0257H7.11928C7.03156 95.0257 6.99609 95.0257 6.99609 94.9097V93.6293C6.99609 93.5488 6.9961 93.5282 7.11181 93.5282H8.67215C8.7804 93.5282 8.81026 93.5282 8.81026 93.3897V89.4644C8.81026 89.3483 8.81026 89.3184 8.95584 89.3184H14.4002C14.7959 89.3333 15.1878 89.3783 15.5761 89.4494C16.3768 89.5973 17.1457 89.8837 17.8475 90.2936C18.3141 90.5688 18.7434 90.902 19.1241 91.2838C19.4116 91.5833 19.671 91.9072 19.9006 92.2516C20.1283 92.6016 20.3186 92.9741 20.468 93.3654C20.4866 93.4664 20.5837 93.5357 20.6845 93.5188H21.9835C22.0942 93.5188 22.1521 93.5725 22.1571 93.6798V94.8741C22.1571 94.9901 22.1142 95.0201 21.9966 95.0201H20.9943C20.8935 95.0201 20.8636 95.0201 20.8711 95.1511C20.9103 95.5948 20.9103 96.0403 20.8711 96.4839C20.8711 96.6074 20.8711 96.6224 21.0092 96.6224H22.1552C22.2056 96.6879 22.1552 96.7534 22.1552 96.819C22.1627 96.9032 22.1627 96.9893 22.1552 97.0735V97.9552C22.1552 98.0787 22.1197 98.1162 22.0096 98.1162H20.6378C20.5426 98.0975 20.4493 98.1592 20.4269 98.2547C20.1003 99.1064 19.5777 99.8701 18.902 100.482C18.6557 100.705 18.3962 100.915 18.1256 101.107C17.8344 101.276 17.5526 101.45 17.254 101.589C16.7052 101.836 16.1304 102.019 15.5406 102.135C14.9807 102.236 14.4114 102.281 13.8421 102.274H8.8028V102.266H8.80466L8.81026 102.261Z" fill="#FEFEFD"/>
</g>
<path d="M151.231 0.5C162.684 0.5 171.965 9.78457 171.965 21.2345C171.965 32.6845 162.684 41.9691 151.231 41.9691C139.777 41.9691 130.496 32.6878 130.496 21.2345C130.496 9.78123 139.781 0.5 151.231 0.5Z" fill="#50C1A2"/>
<g filter="url(#filter2_i_8668_107625)">
<path d="M151.141 3.6582C160.908 3.6582 168.822 11.5752 168.822 21.3387C168.822 31.1022 160.908 39.0192 151.141 39.0192C141.375 39.0192 133.461 31.105 133.461 21.3387C133.461 11.5724 141.378 3.6582 151.141 3.6582Z" fill="#48A58C"/>
</g>
<g filter="url(#filter3_d_8668_107625)">
<path fill-rule="evenodd" clip-rule="evenodd" d="M153.393 22.2074C153.278 22.2165 152.677 22.2526 151.338 22.2526C150.271 22.2526 149.515 22.221 149.25 22.2074C145.132 22.0267 142.06 21.3083 142.06 20.4522C142.06 19.596 145.134 18.8777 149.25 18.6947V21.4959C149.519 21.5162 150.292 21.5614 151.356 21.5614C152.634 21.5614 153.273 21.5071 153.391 21.4981V18.6992C157.5 18.8822 160.568 19.5983 160.568 20.4545C160.568 21.3106 157.502 22.0267 153.391 22.2097H153.395L153.393 22.2074ZM153.393 18.4055V15.9003H159.129V12.0781H143.515V15.9003H149.248V18.4055C144.588 18.6202 141.084 19.5418 141.084 20.6487C141.084 21.7556 144.588 22.6773 149.248 22.8919V30.9226H153.391V22.8896C158.04 22.675 161.539 21.7534 161.539 20.6487C161.539 19.5441 158.042 18.6202 153.391 18.4055H153.393Z" fill="white"/>
</g>
<path d="M75.8267 65.1719C83.8775 65.1719 90.4015 71.7173 90.4015 79.7892C90.4015 87.8611 83.8775 94.4065 75.8267 94.4065C67.7759 94.4065 61.252 87.8635 61.252 79.7892C61.252 71.7149 67.7783 65.1719 75.8267 65.1719Z" fill="#2F80D8"/>
<g filter="url(#filter4_i_8668_107625)">
<path d="M75.7639 67.3984C82.6289 67.3984 88.1919 72.9797 88.1919 79.8627C88.1919 86.7457 82.6289 92.327 75.7639 92.327C68.899 92.327 63.3359 86.7477 63.3359 79.8627C63.3359 72.9777 68.901 67.3984 75.7639 67.3984Z" fill="#2369B4"/>
</g>
<path d="M78.4007 81.3585C78.4007 79.9331 77.548 79.4442 75.8426 79.242C74.6247 79.0795 74.3817 78.7531 74.3817 78.183C74.3817 77.6128 74.7882 77.2465 75.5996 77.2465C76.3301 77.2465 76.7366 77.4902 76.9398 78.1017C76.9811 78.2244 77.1018 78.3056 77.2241 78.3056H77.8735C78.0355 78.3056 78.1577 78.183 78.1577 78.0205V77.9791C77.9958 77.0841 77.2653 76.3914 76.3317 76.3101V75.3323C76.3317 75.1699 76.2094 75.0473 76.0062 75.0059H75.398C75.236 75.0059 75.1138 75.1285 75.0725 75.3323V76.2687C73.8546 76.4312 73.0828 77.2465 73.0828 78.2642C73.0828 79.6083 73.8942 80.137 75.5996 80.3408C76.7366 80.5447 77.1018 80.7883 77.1018 81.4397C77.1018 82.091 76.5333 82.5385 75.7616 82.5385C74.7057 82.5385 74.3405 82.091 74.2182 81.4795C74.1769 81.317 74.0562 81.2358 73.9339 81.2358H73.2432C73.0812 81.2358 72.959 81.3585 72.959 81.5209V81.5623C73.1209 82.5799 73.7704 83.3125 75.1106 83.5163V84.4941C75.1106 84.6566 75.2328 84.7792 75.4361 84.8206H76.0443C76.2062 84.8206 76.3285 84.698 76.3698 84.4941V83.5163C77.5877 83.3125 78.3991 82.4573 78.3991 81.3585H78.4007Z" fill="white"/>
<g filter="url(#filter5_d_8668_107625)">
<path d="M73.6525 85.6337C70.4862 84.4934 68.8618 80.9516 70.04 77.816C70.6482 76.1056 71.9884 74.8029 73.6525 74.193C73.8144 74.1117 73.8954 73.9891 73.8954 73.7853V73.2151C73.8954 73.0527 73.8144 72.9301 73.6525 72.8887C73.6112 72.8887 73.5302 72.8887 73.4905 72.9301C69.6335 74.1515 67.5232 78.2635 68.7411 82.1317C69.4716 84.4122 71.2182 86.1624 73.4905 86.895C73.6525 86.9762 73.816 86.895 73.8557 86.7325C73.897 86.6911 73.897 86.6513 73.897 86.5701V86C73.897 85.8773 73.7747 85.7149 73.6541 85.6337H73.6525ZM77.9557 72.9301C77.7937 72.8489 77.6301 72.9301 77.5904 73.0925C77.5492 73.1339 77.5492 73.1737 77.5492 73.255V73.8251C77.5492 73.9875 77.6714 74.1515 77.7921 74.2328C80.9584 75.373 82.5828 78.9148 81.4046 82.0505C80.7964 83.7609 79.4562 85.0636 77.7921 85.6735C77.6301 85.7547 77.5492 85.8773 77.5492 86.0812V86.6513C77.5492 86.8137 77.6301 86.9364 77.7921 86.9778C77.8334 86.9778 77.9144 86.9778 77.9541 86.9364C81.8111 85.7149 83.9214 81.603 82.7035 77.7347C81.973 75.4144 80.1867 73.6626 77.9541 72.9301H77.9557Z" fill="white"/>
</g>
<path d="M203.422 56.6016C211.473 56.6016 217.997 63.1469 217.997 71.2189C217.997 79.2908 211.473 85.8362 203.422 85.8362C195.372 85.8362 188.848 79.2931 188.848 71.2189C188.848 63.1446 195.374 56.6016 203.422 56.6016Z" fill="#6B94FF"/>
<g filter="url(#filter6_i_8668_107625)">
<path d="M203.36 58.8281C210.225 58.8281 215.788 64.4094 215.788 71.2924C215.788 78.1754 210.225 83.7567 203.36 83.7567C196.495 83.7567 190.932 78.1774 190.932 71.2924C190.932 64.4074 196.497 58.8281 203.36 58.8281Z" fill="#1B5AFE"/>
</g>
<path fill-rule="evenodd" clip-rule="evenodd" d="M197.629 65.3535V69.2598C199.78 69.2598 201.524 67.5109 201.524 65.3535H197.629Z" fill="white"/>
<path fill-rule="evenodd" clip-rule="evenodd" d="M201.525 77.09V69.2248C201.525 69.1918 201.525 69.1587 201.525 69.1256C201.525 69.0926 201.525 69.0595 201.529 69.0264C201.529 68.9933 201.533 68.9603 201.535 68.9291C201.537 68.8961 201.541 68.865 201.545 68.8319C201.549 68.7988 201.553 68.7677 201.556 68.7346C201.56 68.7015 201.564 68.6704 201.57 68.6373C201.574 68.6043 201.58 68.5731 201.585 68.542C201.591 68.5089 201.597 68.4778 201.603 68.4467C201.609 68.4156 201.617 68.3844 201.622 68.3533C201.63 68.3222 201.638 68.2911 201.646 68.2599C201.653 68.2288 201.661 68.1977 201.671 68.1685C201.679 68.1374 201.688 68.1082 201.698 68.0771C201.708 68.0459 201.717 68.0168 201.727 67.9876C201.737 67.9565 201.746 67.9273 201.758 67.8981C201.77 67.8689 201.779 67.8397 201.791 67.8106C201.803 67.7814 201.814 67.7522 201.826 67.723C201.838 67.6938 201.851 67.6647 201.863 67.6374C201.876 67.6082 201.89 67.581 201.902 67.5518C201.915 67.5226 201.929 67.4954 201.944 67.4682C201.96 67.4409 201.973 67.4137 201.989 67.3865C202.004 67.3592 202.02 67.332 202.035 67.3048C202.051 67.2775 202.067 67.2503 202.084 67.225C202.1 67.1978 202.117 67.1725 202.132 67.1452C202.148 67.118 202.165 67.0927 202.183 67.0674C202.2 67.0421 202.218 67.0168 202.235 66.9916C202.253 66.9663 202.272 66.941 202.29 66.9157C202.307 66.8904 202.326 66.8671 202.346 66.8418C202.365 66.8165 202.385 66.7931 202.404 66.7698C202.423 66.7464 202.443 66.7211 202.464 66.6997C202.484 66.6764 202.505 66.6531 202.526 66.6297C202.548 66.6064 202.569 66.583 202.59 66.5616C202.612 66.5402 202.633 66.5169 202.654 66.4955C202.676 66.4741 202.699 66.4507 202.72 66.4313C202.742 66.4099 202.765 66.3885 202.788 66.3671C202.811 66.3457 202.835 66.3262 202.858 66.3048C202.881 66.2834 202.904 66.264 202.928 66.2445C202.951 66.2251 202.976 66.2056 203 66.1862C203.025 66.1667 203.048 66.1473 203.073 66.1298C203.098 66.1122 203.122 66.0928 203.149 66.0753C203.174 66.0578 203.199 66.0403 203.225 66.0228C203.25 66.0053 203.275 65.9877 203.302 65.9722C203.327 65.9566 203.354 65.9391 203.382 65.9235C203.409 65.908 203.434 65.8905 203.461 65.8749C203.488 65.8594 203.515 65.8438 203.543 65.8282C203.57 65.8127 203.597 65.799 203.624 65.7835C203.651 65.7679 203.68 65.7543 203.708 65.7407C203.735 65.7271 203.764 65.7134 203.793 65.7018C203.822 65.6882 203.849 65.6765 203.878 65.6648C203.907 65.6531 203.936 65.6415 203.966 65.6298C203.995 65.6181 204.024 65.6065 204.053 65.5967C204.082 65.587 204.113 65.5753 204.142 65.5656C204.171 65.5559 204.202 65.5461 204.231 65.5364C204.26 65.5267 204.291 65.5189 204.322 65.5092C204.353 65.4995 204.384 65.4917 204.414 65.4839C204.445 65.4761 204.476 65.4683 204.507 65.4605C204.538 65.4528 204.569 65.4469 204.6 65.4411C204.631 65.4353 204.664 65.4275 204.695 65.4236C204.726 65.4197 204.759 65.4119 204.79 65.408L204.887 65.3944C204.92 65.3905 204.951 65.3866 204.984 65.3827C205.017 65.3788 205.048 65.3769 205.081 65.373C205.114 65.3711 205.145 65.3691 205.178 65.3672C205.211 65.3652 205.244 65.3652 205.277 65.3633C205.31 65.3633 205.343 65.3633 205.376 65.3633H209.238V69.2326H205.376V77.0978L201.52 77.0939L201.525 77.09Z" fill="white"/>
<path d="M248.172 22.9453C256.223 22.9453 262.747 29.4907 262.747 37.5626C262.747 45.6345 256.223 52.1799 248.172 52.1799C240.122 52.1799 233.598 45.6369 233.598 37.5626C233.598 29.4883 240.124 22.9453 248.172 22.9453Z" fill="#1E7860"/>
<g filter="url(#filter7_i_8668_107625)">
<path d="M248.11 25.1719C254.975 25.1719 260.538 30.7532 260.538 37.6362C260.538 44.5192 254.975 50.1004 248.11 50.1004C241.245 50.1004 235.682 44.5212 235.682 37.6362C235.682 30.7512 241.247 25.1719 248.11 25.1719Z" fill="#1D5E4D"/>
</g>
<path d="M248.007 42.1973H246.916V43.291H248.007V42.1973Z" fill="#216C58"/>
<path d="M249.825 42.1973H248.734V43.291H249.825V42.1973Z" fill="#216C58"/>
<path d="M245.1 30.8457H252.006C252.213 30.8457 252.37 31.0532 252.37 31.2108V31.4183C252.37 31.6258 252.215 31.7835 252.006 31.7835H245.1C244.894 31.7835 244.736 31.6274 244.736 31.4183V31.2108C244.736 31.0548 244.943 30.8457 245.1 30.8457Z" fill="white"/>
<path d="M248.214 32.1465V44.5399C248.214 44.7473 248.059 44.905 247.85 44.905H247.643C247.437 44.905 247.279 44.749 247.279 44.5399V32.1465H248.214Z" fill="white"/>
<path d="M249.669 32.1465V44.5399C249.669 44.7473 249.514 44.905 249.305 44.905H249.098C248.892 44.905 248.734 44.749 248.734 44.5399V32.1465H249.669Z" fill="white"/>
<path d="M247.437 35.2147C247.697 35.1101 248.008 35.0586 248.423 35.0586C248.994 35.0586 249.41 35.1632 249.721 35.3707C249.928 35.5267 250.085 35.6827 250.188 35.9433C250.292 36.1508 250.447 36.3599 250.758 36.3599H252.42C252.731 36.3599 252.991 36.0993 252.94 35.7873C252.888 35.2661 252.68 34.8495 252.369 34.4329C252.005 33.9118 251.434 33.5483 250.758 33.2877C250.083 33.0271 249.305 32.8711 248.422 32.8711C247.538 32.8711 246.76 33.0271 246.085 33.2877C245.41 33.5483 244.839 33.9649 244.423 34.4329C244.008 34.9541 243.801 35.5267 243.801 36.2039C243.801 37.0371 244.112 37.7143 244.736 38.1823C245.358 38.6504 246.138 39.0155 247.124 39.223L248.422 39.4835C248.837 39.5881 249.201 39.691 249.459 39.7956C249.719 39.9001 249.926 40.003 250.082 40.1607C250.186 40.2653 250.288 40.4213 250.288 40.6288C250.288 40.8362 250.237 40.9939 250.082 41.2014C249.926 41.3574 249.718 41.5134 249.406 41.618C249.147 41.7226 248.784 41.774 248.369 41.774C247.953 41.774 247.589 41.7226 247.278 41.618C246.967 41.5134 246.707 41.3574 246.552 41.1499C246.447 40.9939 246.345 40.8379 246.292 40.6819C246.241 40.4213 246.032 40.2138 245.721 40.2138H244.059C243.748 40.2138 243.488 40.4744 243.54 40.7865C243.591 41.4105 243.8 41.9317 244.162 42.4014C244.577 42.9226 245.148 43.3392 245.875 43.5997C246.601 43.8603 247.432 44.0163 248.418 44.0163C249.405 44.0163 250.236 43.9118 250.911 43.5997C251.637 43.3392 252.157 42.9757 252.521 42.4545C252.885 41.9333 253.092 41.3607 253.092 40.6835C253.092 40.2155 252.988 39.7989 252.781 39.4338C252.574 39.0686 252.314 38.7566 252.001 38.496C251.689 38.2354 251.275 38.0279 250.859 37.8188C250.444 37.6628 249.924 37.5068 249.406 37.4022L248.369 37.1947C248.109 37.1433 247.902 37.0902 247.694 37.0387C247.487 36.9873 247.278 36.8827 247.123 36.7782C246.967 36.6736 246.863 36.5707 246.759 36.4661C246.707 36.3616 246.654 36.2586 246.654 36.101C246.654 35.945 246.706 35.7358 246.81 35.6329C247.017 35.4255 247.174 35.3209 247.432 35.2163L247.437 35.2147Z" fill="white"/>
<path d="M248.423 32.873C249.305 32.873 250.085 33.0291 250.76 33.2896C251.435 33.5502 252.006 33.9137 252.37 34.4349C252.681 34.8515 252.89 35.2681 252.941 35.7892C252.992 36.1013 252.734 36.3618 252.421 36.3618H250.76C250.449 36.3618 250.293 36.1544 250.189 35.9452C250.085 35.6847 249.929 35.5286 249.722 35.3726C249.411 35.1652 248.996 35.0606 248.425 35.0606C248.009 35.0606 247.698 35.112 247.438 35.2166C247.179 35.3212 247.023 35.4241 246.816 35.6332C246.712 35.7378 246.661 35.9452 246.661 36.1013C246.661 36.2573 246.712 36.3618 246.765 36.4664C246.869 36.571 246.972 36.6739 247.129 36.7784C247.284 36.883 247.493 36.9859 247.7 37.039C247.907 37.0905 248.115 37.1436 248.375 37.195L249.413 37.4025C249.932 37.5071 250.45 37.6631 250.866 37.8191C251.281 38.0266 251.696 38.2357 252.008 38.4963C252.319 38.7569 252.579 39.0689 252.787 39.434C252.994 39.7992 253.098 40.2158 253.098 40.6838C253.098 41.361 252.891 41.9336 252.527 42.4548C252.163 42.976 251.645 43.3394 250.917 43.6C250.242 43.9121 249.411 44.0166 248.425 44.0166C247.438 44.0166 246.608 43.8606 245.881 43.6C245.155 43.3394 244.584 42.9228 244.168 42.4017C243.804 41.9336 243.597 41.4125 243.546 40.7867C243.495 40.4747 243.753 40.2141 244.066 40.2141H245.727C246.038 40.2141 246.247 40.4216 246.298 40.6822C246.349 40.8382 246.454 40.9942 246.558 41.1502C246.713 41.3577 246.973 41.5154 247.284 41.6183C247.596 41.7228 247.96 41.7743 248.375 41.7743C248.79 41.7743 249.154 41.7228 249.413 41.6183C249.724 41.5137 249.932 41.3577 250.088 41.2017C250.243 40.9942 250.295 40.8365 250.295 40.6291C250.295 40.4216 250.19 40.2639 250.088 40.161C249.932 40.005 249.724 39.9004 249.466 39.7959C249.206 39.6913 248.843 39.5884 248.428 39.4838L247.131 39.2233C246.144 39.0158 245.365 38.6506 244.742 38.1826C244.12 37.7145 243.807 37.0374 243.807 36.2042C243.807 35.527 244.014 34.9544 244.43 34.4332C244.845 33.9652 245.416 33.5486 246.091 33.288C246.766 33.0274 247.544 32.8714 248.428 32.8714M248.428 32.4531C247.543 32.4531 246.707 32.6025 245.942 32.8979C245.239 33.1701 244.608 33.605 244.119 34.156L244.112 34.1643L244.105 34.1726C243.625 34.7751 243.39 35.439 243.39 36.2042C243.39 37.1751 243.771 37.9751 244.491 38.5179C245.199 39.0506 246.058 39.4257 247.043 39.6332L248.335 39.8921C248.777 40.0033 249.097 40.0996 249.31 40.1842C249.562 40.2855 249.701 40.3635 249.793 40.4564C249.879 40.5428 249.879 40.6075 249.879 40.6291C249.879 40.732 249.864 40.8 249.773 40.9278C249.631 41.0639 249.476 41.1585 249.282 41.2233L249.27 41.2266L249.259 41.2316C249.055 41.3129 248.742 41.3577 248.375 41.3577C248.008 41.3577 247.683 41.3129 247.417 41.2233C247.179 41.1436 246.993 41.0324 246.897 40.9079C246.818 40.7884 246.737 40.6656 246.7 40.5677C246.593 40.1046 246.207 39.7959 245.727 39.7959H244.066C243.781 39.7959 243.515 39.9187 243.334 40.1311C243.169 40.327 243.096 40.5826 243.132 40.8349C243.192 41.5237 243.423 42.1195 243.841 42.6556C244.325 43.2648 244.964 43.7112 245.742 43.9901C246.571 44.2872 247.448 44.4316 248.426 44.4316C249.565 44.4316 250.407 44.2888 251.076 43.9851C251.878 43.6946 252.464 43.2714 252.87 42.6921C253.305 42.0697 253.517 41.4108 253.517 40.6822C253.517 40.1428 253.394 39.6515 253.151 39.2249C252.919 38.8183 252.625 38.4647 252.277 38.1743C251.928 37.8822 251.485 37.6598 251.054 37.444L251.034 37.434L251.015 37.4257C250.535 37.2448 249.995 37.0905 249.497 36.9909L248.459 36.7834C248.21 36.7336 248.013 36.6838 247.804 36.6324C247.665 36.5975 247.501 36.5212 247.362 36.4299C247.261 36.3635 247.188 36.2938 247.111 36.2191C247.087 36.171 247.079 36.1411 247.079 36.1013C247.079 36.0299 247.102 35.9502 247.119 35.922C247.283 35.7577 247.392 35.6863 247.596 35.6033C247.811 35.517 248.075 35.4772 248.428 35.4772C248.896 35.4772 249.242 35.5552 249.485 35.7129C249.664 35.849 249.745 35.9469 249.807 36.0996L249.813 36.1162L249.821 36.1311C250.035 36.561 250.353 36.7784 250.765 36.7784H252.426C252.711 36.7784 252.977 36.6556 253.158 36.4432C253.325 36.2457 253.398 35.9884 253.36 35.7345C253.303 35.1901 253.103 34.712 252.713 34.1892C252.332 33.6465 251.726 33.2116 250.915 32.8996C250.151 32.6042 249.315 32.4548 248.43 32.4548L248.428 32.4531Z" fill="#216C58"/>
<path d="M248.216 34.5449H247.281V35.7947H248.216V34.5449Z" fill="white"/>
<path d="M248.216 39.0723H247.281V40.3735H248.216V39.0723Z" fill="white"/>
<path d="M248.216 43.2461H247.281V44.4959H248.216V43.2461Z" fill="white"/>
<path d="M249.669 34.8203H248.734V36.0701H249.669V34.8203Z" fill="white"/>
<path d="M249.669 39.0723H248.734V40.3735H249.669V39.0723Z" fill="white"/>
<path d="M249.671 43.2461H248.736V44.4959H249.671V43.2461Z" fill="white"/>
<path fill-rule="evenodd" clip-rule="evenodd" d="M257.353 38.1354C257.198 38.1354 257.094 38.2399 257.094 38.3959C256.678 42.9785 252.888 46.5719 248.215 46.5719C243.541 46.5719 239.752 42.9785 239.336 38.3959C239.336 38.2399 239.181 38.1354 239.076 38.1354C238.921 38.1354 238.817 38.2914 238.817 38.4474C239.232 43.2906 243.282 47.0914 248.215 47.0914C253.148 47.0914 257.198 43.2906 257.613 38.4474C257.665 38.2914 257.509 38.1354 257.353 38.1354ZM239.076 37.0947C239.232 37.0947 239.336 36.9901 239.336 36.8341C239.752 32.2515 243.541 28.7113 248.215 28.7113C252.888 28.7113 256.678 32.3047 257.094 36.8341C257.094 36.9901 257.249 37.0947 257.353 37.0947C257.509 37.0947 257.613 36.9387 257.613 36.7827C257.198 31.9395 253.148 28.1387 248.215 28.1387C243.282 28.1387 239.232 31.9395 238.817 36.7827C238.765 36.9387 238.921 37.0947 239.076 37.0947Z" fill="white"/>
<path d="M52.2388 12.6719C60.2896 12.6719 66.8136 19.2173 66.8136 27.2892C66.8136 35.3611 60.2896 41.9065 52.2388 41.9065C44.188 41.9065 37.6641 35.3635 37.6641 27.2892C37.6641 19.2149 44.1904 12.6719 52.2388 12.6719Z" fill="#1DA1ED"/>
<g filter="url(#filter8_i_8668_107625)">
<path d="M52.176 14.8984C59.041 14.8984 64.6041 20.4797 64.6041 27.3627C64.6041 34.2457 59.041 39.827 52.176 39.827C45.3111 39.827 39.748 34.2477 39.748 27.3627C39.748 20.4777 45.3131 14.8984 52.176 14.8984Z" fill="#178DD0"/>
</g>
<path d="M46.673 27.7545C46.7296 27.3568 46.7296 27.1283 46.9588 26.9576C47.13 26.787 47.3577 26.8434 47.7581 26.9013C47.9858 26.9013 48.3281 26.9576 48.6704 27.0155C49.0128 27.0719 49.2985 27.1298 49.5828 27.2426C49.9817 27.3568 50.1529 27.4696 50.4386 27.8109C50.7244 28.1523 50.7244 28.4936 50.7244 29.1183V33.3833C50.7244 33.781 50.7244 34.0096 50.6098 34.1224C50.4386 34.1787 50.2109 34.1787 49.8105 34.1787H48.157C47.4723 34.1787 47.188 34.1787 46.9022 33.9517C46.6745 33.7246 46.6165 33.4397 46.5599 32.815C46.5034 32.1887 46.4453 31.4497 46.4453 30.54C46.5019 29.4033 46.5599 28.4357 46.673 27.7531V27.7545Z" fill="white"/>
<path d="M57.8522 27.7545C57.7956 27.3568 57.7956 27.1283 57.5664 26.9576C57.3952 26.787 57.1675 26.8434 56.7671 26.9013C56.5394 26.9013 56.1971 26.9576 55.8548 27.0155C55.5124 27.0719 55.2267 27.1298 54.9424 27.2426C54.5435 27.3568 54.3723 27.4696 54.0866 27.8109C53.8008 28.1523 53.8008 28.4936 53.8008 29.1183V33.3833C53.8008 33.781 53.8008 34.0096 53.9154 34.1224C54.03 34.2366 54.2577 34.2366 54.6566 34.2366H56.3102C56.9949 34.2366 57.2791 34.2366 57.5649 34.0096C57.8507 33.7825 57.8507 33.4976 57.9072 32.8728C57.9638 32.2481 58.0218 31.5076 58.0218 30.5979C58.0218 29.4033 57.9653 28.4372 57.8507 27.7545H57.8522Z" fill="white"/>
<path d="M46.6734 22.3526C46.6734 21.6135 46.6734 21.2722 46.9011 21.0452C47.1288 20.8181 47.4711 20.7603 48.2124 20.7039C49.2393 20.6475 50.7218 20.5332 52.3188 20.5332C53.9158 20.5332 55.3983 20.6475 56.4833 20.7039C57.168 20.7603 57.5668 20.7603 57.7946 21.0452C58.0223 21.2722 58.0223 21.6714 58.0223 22.3526V22.6939C58.0223 23.4329 58.0223 23.7742 57.7946 24.0013C57.5668 24.2283 57.2245 24.2862 56.5399 24.3426C55.5129 24.4569 54.0304 24.5133 52.3188 24.5133C50.6072 24.5133 49.1813 24.4569 48.1543 24.3426C47.4696 24.2862 47.1273 24.2862 46.8996 24.0577C46.6719 23.7728 46.6719 23.4314 46.6719 22.6924V22.3511L46.6734 22.3526Z" fill="white"/>
<path d="M268.978 76.9688C279.485 76.9688 288 85.4867 288 95.9913C288 106.496 279.485 115.014 268.978 115.014C258.47 115.014 249.955 106.499 249.955 95.9913C249.955 85.4836 258.473 76.9688 268.978 76.9688Z" fill="#282828"/>
<g filter="url(#filter9_i_8668_107625)">
<path d="M268.894 79.8672C277.854 79.8672 285.115 87.1305 285.115 96.0878C285.115 105.045 277.854 112.308 268.894 112.308C259.935 112.308 252.674 105.048 252.674 96.0878C252.674 87.1279 259.937 79.8672 268.894 79.8672Z" fill="black"/>
</g>
<path d="M275.939 96.0971C275.939 94.6546 275.503 93.3123 274.757 92.1908L276.971 89.9889L274.98 88.0086L272.771 90.2045C271.637 89.4471 270.272 89.0048 268.806 89.0048C267.34 89.0048 266.005 89.4381 264.877 90.1805L262.661 87.9785L260.669 89.9588L262.878 92.1547C262.116 93.2822 261.671 94.6385 261.671 96.0961C261.671 97.5537 262.107 98.8809 262.854 100.002L260.639 102.205L262.631 104.186L264.839 101.99C265.974 102.747 267.338 103.189 268.804 103.189C270.27 103.189 271.605 102.756 272.733 102.014L274.949 104.217L276.941 102.236L274.732 100.041C275.494 98.911 275.939 97.5547 275.939 96.0971ZM264.489 96.0971C264.489 93.7307 266.426 91.8056 268.806 91.8056C271.186 91.8056 273.123 93.7307 273.123 96.0971C273.123 98.4636 271.186 100.389 268.806 100.389C266.426 100.389 264.489 98.4636 264.489 96.0971Z" fill="white"/>
<defs>
<filter id="filter0_i_8668_107625" x="2.08398" y="83.3828" width="24.8555" height="25.7284" filterUnits="userSpaceOnUse" color-interpolation-filters="sRGB">
<feFlood flood-opacity="0" result="BackgroundImageFix"/>
<feBlend mode="normal" in="SourceGraphic" in2="BackgroundImageFix" result="shape"/>
<feColorMatrix in="SourceAlpha" type="matrix" values="0 0 0 0 0 0 0 0 0 0 0 0 0 0 0 0 0 0 127 0" result="hardAlpha"/>
<feOffset dy="0.800683"/>
<feGaussianBlur stdDeviation="0.800683"/>
<feComposite in2="hardAlpha" operator="arithmetic" k2="-1" k3="1"/>
<feColorMatrix type="matrix" values="0 0 0 0 0.434722 0 0 0 0 0.434722 0 0 0 0 0.434722 0 0 0 0.15 0"/>
<feBlend mode="normal" in2="shape" result="effect1_innerShadow_8668_107625"/>
</filter>
<filter id="filter1_d_8668_107625" x="6.15666" y="88.6888" width="16.8605" height="14.6339" filterUnits="userSpaceOnUse" color-interpolation-filters="sRGB">
<feFlood flood-opacity="0" result="BackgroundImageFix"/>
<feColorMatrix in="SourceAlpha" type="matrix" values="0 0 0 0 0 0 0 0 0 0 0 0 0 0 0 0 0 0 127 0" result="hardAlpha"/>
<feOffset dy="0.209858"/>
<feGaussianBlur stdDeviation="0.419716"/>
<feComposite in2="hardAlpha" operator="out"/>
<feColorMatrix type="matrix" values="0 0 0 0 0 0 0 0 0 0 0 0 0 0 0 0 0 0 0.16 0"/>
<feBlend mode="normal" in2="BackgroundImageFix" result="effect1_dropShadow_8668_107625"/>
<feBlend mode="normal" in="SourceGraphic" in2="effect1_dropShadow_8668_107625" result="shape"/>
</filter>
<filter id="filter2_i_8668_107625" x="133.461" y="3.6582" width="35.3613" height="36.162" filterUnits="userSpaceOnUse" color-interpolation-filters="sRGB">
<feFlood flood-opacity="0" result="BackgroundImageFix"/>
<feBlend mode="normal" in="SourceGraphic" in2="BackgroundImageFix" result="shape"/>
<feColorMatrix in="SourceAlpha" type="matrix" values="0 0 0 0 0 0 0 0 0 0 0 0 0 0 0 0 0 0 127 0" result="hardAlpha"/>
<feOffset dy="0.800683"/>
<feGaussianBlur stdDeviation="0.800683"/>
<feComposite in2="hardAlpha" operator="arithmetic" k2="-1" k3="1"/>
<feColorMatrix type="matrix" values="0 0 0 0 0.434722 0 0 0 0 0.434722 0 0 0 0 0.434722 0 0 0 0.15 0"/>
<feBlend mode="normal" in2="shape" result="effect1_innerShadow_8668_107625"/>
</filter>
<filter id="filter3_d_8668_107625" x="140.245" y="11.4486" width="22.1339" height="20.5226" filterUnits="userSpaceOnUse" color-interpolation-filters="sRGB">
<feFlood flood-opacity="0" result="BackgroundImageFix"/>
<feColorMatrix in="SourceAlpha" type="matrix" values="0 0 0 0 0 0 0 0 0 0 0 0 0 0 0 0 0 0 127 0" result="hardAlpha"/>
<feOffset dy="0.209858"/>
<feGaussianBlur stdDeviation="0.419716"/>
<feComposite in2="hardAlpha" operator="out"/>
<feColorMatrix type="matrix" values="0 0 0 0 0 0 0 0 0 0 0 0 0 0 0 0 0 0 0.16 0"/>
<feBlend mode="normal" in2="BackgroundImageFix" result="effect1_dropShadow_8668_107625"/>
<feBlend mode="normal" in="SourceGraphic" in2="effect1_dropShadow_8668_107625" result="shape"/>
</filter>
<filter id="filter4_i_8668_107625" x="63.3359" y="67.3984" width="24.8555" height="25.7284" filterUnits="userSpaceOnUse" color-interpolation-filters="sRGB">
<feFlood flood-opacity="0" result="BackgroundImageFix"/>
<feBlend mode="normal" in="SourceGraphic" in2="BackgroundImageFix" result="shape"/>
<feColorMatrix in="SourceAlpha" type="matrix" values="0 0 0 0 0 0 0 0 0 0 0 0 0 0 0 0 0 0 127 0" result="hardAlpha"/>
<feOffset dy="0.800683"/>
<feGaussianBlur stdDeviation="0.800683"/>
<feComposite in2="hardAlpha" operator="arithmetic" k2="-1" k3="1"/>
<feColorMatrix type="matrix" values="0 0 0 0 0 0 0 0 0 0 0 0 0 0 0 0 0 0 0.15 0"/>
<feBlend mode="normal" in2="shape" result="effect1_innerShadow_8668_107625"/>
</filter>
<filter id="filter5_d_8668_107625" x="67.5571" y="72.2591" width="16.3312" height="15.7687" filterUnits="userSpaceOnUse" color-interpolation-filters="sRGB">
<feFlood flood-opacity="0" result="BackgroundImageFix"/>
<feColorMatrix in="SourceAlpha" type="matrix" values="0 0 0 0 0 0 0 0 0 0 0 0 0 0 0 0 0 0 127 0" result="hardAlpha"/>
<feOffset dy="0.209858"/>
<feGaussianBlur stdDeviation="0.419716"/>
<feComposite in2="hardAlpha" operator="out"/>
<feColorMatrix type="matrix" values="0 0 0 0 0 0 0 0 0 0 0 0 0 0 0 0 0 0 0.16 0"/>
<feBlend mode="normal" in2="BackgroundImageFix" result="effect1_dropShadow_8668_107625"/>
<feBlend mode="normal" in="SourceGraphic" in2="effect1_dropShadow_8668_107625" result="shape"/>
</filter>
<filter id="filter6_i_8668_107625" x="190.932" y="58.8281" width="24.8555" height="25.7284" filterUnits="userSpaceOnUse" color-interpolation-filters="sRGB">
<feFlood flood-opacity="0" result="BackgroundImageFix"/>
<feBlend mode="normal" in="SourceGraphic" in2="BackgroundImageFix" result="shape"/>
<feColorMatrix in="SourceAlpha" type="matrix" values="0 0 0 0 0 0 0 0 0 0 0 0 0 0 0 0 0 0 127 0" result="hardAlpha"/>
<feOffset dy="0.800683"/>
<feGaussianBlur stdDeviation="0.800683"/>
<feComposite in2="hardAlpha" operator="arithmetic" k2="-1" k3="1"/>
<feColorMatrix type="matrix" values="0 0 0 0 0 0 0 0 0 0 0 0 0 0 0 0 0 0 0.15 0"/>
<feBlend mode="normal" in2="shape" result="effect1_innerShadow_8668_107625"/>
</filter>
<filter id="filter7_i_8668_107625" x="235.682" y="25.1719" width="24.8555" height="25.7284" filterUnits="userSpaceOnUse" color-interpolation-filters="sRGB">
<feFlood flood-opacity="0" result="BackgroundImageFix"/>
<feBlend mode="normal" in="SourceGraphic" in2="BackgroundImageFix" result="shape"/>
<feColorMatrix in="SourceAlpha" type="matrix" values="0 0 0 0 0 0 0 0 0 0 0 0 0 0 0 0 0 0 127 0" result="hardAlpha"/>
<feOffset dy="0.800683"/>
<feGaussianBlur stdDeviation="0.800683"/>
<feComposite in2="hardAlpha" operator="arithmetic" k2="-1" k3="1"/>
<feColorMatrix type="matrix" values="0 0 0 0 0 0 0 0 0 0 0 0 0 0 0 0 0 0 0.15 0"/>
<feBlend mode="normal" in2="shape" result="effect1_innerShadow_8668_107625"/>
</filter>
<filter id="filter8_i_8668_107625" x="39.748" y="14.8984" width="24.8555" height="26.3793" filterUnits="userSpaceOnUse" color-interpolation-filters="sRGB">
<feFlood flood-opacity="0" result="BackgroundImageFix"/>
<feBlend mode="normal" in="SourceGraphic" in2="BackgroundImageFix" result="shape"/>
<feColorMatrix in="SourceAlpha" type="matrix" values="0 0 0 0 0 0 0 0 0 0 0 0 0 0 0 0 0 0 127 0" result="hardAlpha"/>
<feOffset dy="1.45155"/>
<feGaussianBlur stdDeviation="1.45155"/>
<feComposite in2="hardAlpha" operator="arithmetic" k2="-1" k3="1"/>
<feColorMatrix type="matrix" values="0 0 0 0 0.434722 0 0 0 0 0.434722 0 0 0 0 0.434722 0 0 0 0.15 0"/>
<feBlend mode="normal" in2="shape" result="effect1_innerShadow_8668_107625"/>
</filter>
<filter id="filter9_i_8668_107625" x="252.674" y="79.8672" width="32.4414" height="33.893" filterUnits="userSpaceOnUse" color-interpolation-filters="sRGB">
<feFlood flood-opacity="0" result="BackgroundImageFix"/>
<feBlend mode="normal" in="SourceGraphic" in2="BackgroundImageFix" result="shape"/>
<feColorMatrix in="SourceAlpha" type="matrix" values="0 0 0 0 0 0 0 0 0 0 0 0 0 0 0 0 0 0 127 0" result="hardAlpha"/>
<feOffset dy="1.45155"/>
<feGaussianBlur stdDeviation="1.45155"/>
<feComposite in2="hardAlpha" operator="arithmetic" k2="-1" k3="1"/>
<feColorMatrix type="matrix" values="0 0 0 0 0.434722 0 0 0 0 0.434722 0 0 0 0 0.434722 0 0 0 0.15 0"/>
<feBlend mode="normal" in2="shape" result="effect1_innerShadow_8668_107625"/>
</filter>
<linearGradient id="paint0_linear_8668_107625" x1="109.278" y1="54.103" x2="148.614" y2="138.457" gradientUnits="userSpaceOnUse">
<stop stop-color="#136A8A"/>
<stop offset="0.0001" stop-color="#1A2980"/>
<stop offset="1" stop-color="#26D0CE"/>
</linearGradient>
<clipPath id="clip0_8668_107625">
<rect width="64" height="64" fill="white" transform="translate(106 63.5)"/>
</clipPath>
</defs>
</svg>
