<svg width="51" height="51" viewBox="0 0 51 51" fill="none" xmlns="http://www.w3.org/2000/svg">
<circle cx="25.5" cy="25.5" r="24.5" fill="currentFill" stroke="currentColor"/>
<path d="M35.2142 22.9596H34.3752V22.9163H25.0002V27.083H30.8871C30.0283 29.5085 27.7205 31.2497 25.0002 31.2497C21.5486 31.2497 18.7502 28.4512 18.7502 24.9997C18.7502 21.5481 21.5486 18.7497 25.0002 18.7497C26.5934 18.7497 28.0429 19.3507 29.1465 20.3325L32.0929 17.3861C30.2325 15.6523 27.7439 14.583 25.0002 14.583C19.2476 14.583 14.5835 19.2471 14.5835 24.9997C14.5835 30.7523 19.2476 35.4163 25.0002 35.4163C30.7528 35.4163 35.4168 30.7523 35.4168 24.9997C35.4168 24.3012 35.345 23.6195 35.2142 22.9596Z" fill="#FFC107"/>
<path d="M15.7842 20.1512L19.2066 22.6611C20.1326 20.3684 22.3753 18.7497 24.9998 18.7497C26.593 18.7497 28.0425 19.3507 29.1462 20.3325L32.0925 17.3861C30.2321 15.6523 27.7436 14.583 24.9998 14.583C20.9988 14.583 17.529 16.8419 15.7842 20.1512Z" fill="#FF3D00"/>
<path d="M25 35.417C27.6906 35.417 30.1354 34.3873 31.9839 32.7129L28.7599 29.9847C27.7141 30.7769 26.4141 31.2504 25 31.2504C22.2906 31.2504 19.9901 29.5228 19.1234 27.1118L15.7266 29.729C17.4505 33.1024 20.9516 35.417 25 35.417Z" fill="#4CAF50"/>
<path d="M35.2141 22.9602H34.375V22.917H25V27.0837H30.887C30.4745 28.2488 29.725 29.2534 28.7583 29.9852C28.7589 29.9847 28.7594 29.9847 28.7599 29.9842L31.9839 32.7123C31.7557 32.9196 35.4167 30.2087 35.4167 25.0003C35.4167 24.3019 35.3448 23.6201 35.2141 22.9602Z" fill="#1976D2"/>
</svg>
