<svg xmlns="http://www.w3.org/2000/svg" width="28" height="28" viewBox="0 0 28 28" fill="none">
  <path d="M10.2139 0.875H5.23919C3.17733 0.875 1.50586 2.54647 1.50586 4.60833V9.39167C1.50586 11.4535 3.17733 13.125 5.23919 13.125H10.2139C12.2758 13.125 13.9473 11.4535 13.9473 9.39167V4.60833C13.9473 2.54647 12.2758 0.875 10.2139 0.875Z" fill="currentFill"/>
  <path d="M10.2139 14.875H5.23919C3.17733 14.875 1.50586 16.5465 1.50586 18.6083V23.3917C1.50586 25.4535 3.17733 27.125 5.23919 27.125H10.2139C12.2758 27.125 13.9473 25.4535 13.9473 23.3917V18.6083C13.9473 16.5465 12.2758 14.875 10.2139 14.875Z" fill="currentFill"/>
  <path d="M24.1729 0.875H19.1982C17.1363 0.875 15.4648 2.54647 15.4648 4.60833V9.39167C15.4648 11.4535 17.1363 13.125 19.1982 13.125H24.1729C26.2348 13.125 27.9063 11.4535 27.9063 9.39167V4.60833C27.9063 2.54647 26.2348 0.875 24.1729 0.875Z" fill="currentFill"/>
  <path d="M24.1729 14.875H19.1982C17.1363 14.875 15.4648 16.5465 15.4648 18.6083V23.3917C15.4648 25.4535 17.1363 27.125 19.1982 27.125H24.1729C26.2348 27.125 27.9063 25.4535 27.9063 23.3917V18.6083C27.9063 16.5465 26.2348 14.875 24.1729 14.875Z" fill="currentFill"/>
</svg>