<svg xmlns="http://www.w3.org/2000/svg" width="36" height="36" viewBox="0 0 36 36" fill="none">
  <path d="M33.2781 0V7.06882H30.9219V0H28.5656V7.06882H26.2093V0H23.8531V7.06882H12.0651V0H9.70875V9.4251H33.2737V11.7814H7.35034V0H4.99408V11.7836H2.63556V0H0.279297V25.9234H2.63556V18.8546H4.99182V25.9234H7.34808V18.8546H9.70434V25.9234H12.0607V18.8546H23.8443V25.9234H26.2005V16.4983H2.63997V14.1421H28.5589V25.9256H30.9152V14.1376H33.2716V25.9212H35.6344V0H33.2781Z" fill="#90F1CF"/>
  <path d="M4.33045 31.6133V32.9578H1.2997V31.6133H0.290161V35.3185H1.2997V33.974H4.33045V35.3185H5.33998V31.6133H4.33045Z" fill="#90F1CF"/>
  <path d="M23.5332 33.9551H22.5237V35.2996H23.5332V33.9551Z" fill="#90F1CF"/>
  <path d="M23.5536 31.6133H22.5441V32.9578H19.5133V31.6133H18.5038V35.3185H19.5133V33.974H22.5441L23.5536 32.9644V31.6155V31.6133Z" fill="#90F1CF"/>
  <path d="M10.6604 31.6133H6.28503V35.3185H7.29457V33.974H10.3253V35.3185H11.3349V31.6133H10.6604ZM7.29457 32.9622V32.6272H10.3253V32.9622H7.29457Z" fill="#90F1CF"/>
  <path d="M17.3308 32.6228V31.6133H12.281V35.3185H17.3308V34.309H13.2905V32.625H17.3308V32.6228Z" fill="#90F1CF"/>
  <path d="M29.69 32.6228V31.6133H24.6401V35.3185H29.69V34.309H25.6497V33.974H29.69V32.9644H25.6497V32.6294H29.69V32.625V32.6228Z" fill="#90F1CF"/>
  <path d="M34.6754 31.6133V33.9696L31.6447 31.6133H30.6351V35.3185H31.6447V32.9622L34.6754 35.3185H35.685V31.6133H34.6754Z" fill="#90F1CF"/>
</svg>