<svg width="14" height="14" viewBox="0 0 14 14" fill="none" xmlns="http://www.w3.org/2000/svg">
<g clip-path="url(#clip0_157_7625)">
<path d="M6.05469 0.134996C6.44271 -0.0449988 6.89062 -0.0449988 7.27864 0.134996L12.9714 2.76971C13.1927 2.87145 13.3333 3.09318 13.3333 3.33839C13.3333 3.5836 13.1927 3.80533 12.9714 3.90707L7.27864 6.54178C6.89062 6.72178 6.44271 6.72178 6.05469 6.54178L0.361979 3.90707C0.140625 3.80273 0 3.58099 0 3.33839C0 3.09579 0.140625 2.87145 0.361979 2.76971L6.05469 0.134996ZM11.5859 5.46703L12.9714 6.10875C13.1927 6.21049 13.3333 6.43222 13.3333 6.67743C13.3333 6.92264 13.1927 7.14437 12.9714 7.24611L7.27864 9.88082C6.89062 10.0608 6.44271 10.0608 6.05469 9.88082L0.361979 7.24611C0.140625 7.14177 0 6.92003 0 6.67743C0 6.43483 0.140625 6.21049 0.361979 6.10875L1.7474 5.46703L5.70573 7.29828C6.00702 7.43749 6.33487 7.50958 6.66667 7.50958C6.99846 7.50958 7.32631 7.43749 7.6276 7.29828L11.5859 5.46703ZM7.6276 10.6373L11.5859 8.80607L12.9714 9.44779C13.1927 9.54953 13.3333 9.77126 13.3333 10.0165C13.3333 10.2617 13.1927 10.4834 12.9714 10.5852L7.27864 13.2199C6.89062 13.3999 6.44271 13.3999 6.05469 13.2199L0.361979 10.5852C0.140625 10.4808 0 10.2591 0 10.0165C0 9.77387 0.140625 9.54953 0.361979 9.44779L1.7474 8.80607L5.70573 10.6373C6.00702 10.7765 6.33487 10.8486 6.66667 10.8486C6.99846 10.8486 7.32631 10.7765 7.6276 10.6373Z" fill="black"/>
</g>
<defs>
<clipPath id="clip0_157_7625">
<rect width="14" height="14" rx="2" fill="white"/>
</clipPath>
</defs>
</svg>
