<svg xmlns="http://www.w3.org/2000/svg" width="28" height="31" viewBox="0 0 28 31" fill="none">
  <path d="M1.67365 30.3129C1.16 30.017 0.734284 29.5898 0.440161 29.0752C0.146039 28.5605 -0.00590637 27.9769 -9.27497e-05 27.3841L-9.17e-05 3.36956C-0.00590527 2.77681 0.14604 2.19319 0.440163 1.67854C0.734285 1.16388 1.16 0.736716 1.67365 0.440847C2.16779 0.152144 2.7298 -1.08103e-06 3.30209 -1.05602e-06C3.87438 -1.031e-06 4.43639 0.152144 4.93052 0.440847L25.783 12.4454C26.2939 12.7454 26.7175 13.1738 27.0118 13.688C27.3061 14.2022 27.4609 14.7844 27.4609 15.3769C27.4609 15.9693 27.3061 16.5515 27.0118 17.0657C26.7175 17.5799 26.2939 18.0083 25.783 18.3083L4.93052 30.3156C4.43614 30.6039 3.874 30.7556 3.30171 30.7551C2.72942 30.7546 2.16754 30.602 1.67365 30.3129Z" fill="url(#paint0_linear_5931_278411)"/>
  <defs>
    <linearGradient id="paint0_linear_5931_278411" x1="27.4609" y1="15.3775" x2="-0.000252442" y2="15.3775" gradientUnits="userSpaceOnUse">
      <stop stop-color="#1F639C"/>
      <stop offset="1" stop-color="#26C2C8"/>
    </linearGradient>
  </defs>
</svg>