<svg xmlns="http://www.w3.org/2000/svg" width="24" height="24" viewBox="0 0 24 24" fill="none">
  <path d="M18.7083 3.375C19.2167 3.375 19.7042 3.57693 20.0636 3.93638C20.4231 4.29582 20.625 4.78333 20.625 5.29167V18.7083C20.625 19.2167 20.4231 19.7042 20.0636 20.0636C19.7042 20.4231 19.2167 20.625 18.7083 20.625H5.29167C4.78333 20.625 4.29582 20.4231 3.93638 20.0636C3.57693 19.7042 3.375 19.2167 3.375 18.7083V5.29167C3.375 4.78333 3.57693 4.29582 3.93638 3.93638C4.29582 3.57693 4.78333 3.375 5.29167 3.375H18.7083ZM18.2292 18.2292V13.15C18.2292 12.3214 17.9 11.5268 17.3141 10.9409C16.7282 10.355 15.9336 10.0258 15.105 10.0258C14.2904 10.0258 13.3417 10.5242 12.8817 11.2717V10.2079H10.2079V18.2292H12.8817V13.5046C12.8817 12.7667 13.4758 12.1629 14.2137 12.1629C14.5696 12.1629 14.9108 12.3043 15.1625 12.5559C15.4141 12.8075 15.5554 13.1488 15.5554 13.5046V18.2292H18.2292ZM7.09333 8.70333C7.52033 8.70333 7.92984 8.53371 8.23178 8.23178C8.53371 7.92984 8.70333 7.52033 8.70333 7.09333C8.70333 6.20208 7.98458 5.47375 7.09333 5.47375C6.66379 5.47375 6.25185 5.64438 5.94811 5.94811C5.64438 6.25185 5.47375 6.66379 5.47375 7.09333C5.47375 7.98458 6.20208 8.70333 7.09333 8.70333ZM8.42542 18.2292V10.2079H5.77083V18.2292H8.42542Z" fill="white"/>
</svg>