<svg xmlns="http://www.w3.org/2000/svg" width="23" height="23" viewBox="0 0 23 23" fill="none">
  <path d="M12.4875 16.8114C12.0314 16.8114 11.5941 16.6302 11.2716 16.3077C10.9491 15.9853 10.7679 15.5479 10.7679 15.0918C10.7679 14.1375 11.5331 13.3723 12.4875 13.3723C12.9435 13.3723 13.3809 13.5535 13.7034 13.876C14.0258 14.1984 14.207 14.6358 14.207 15.0918C14.207 15.5479 14.0258 15.9853 13.7034 16.3077C13.3809 16.6302 12.9435 16.8114 12.4875 16.8114ZM17.646 19.3907V10.793H7.3289V19.3907H17.646ZM17.646 9.07351C18.1021 9.07351 18.5395 9.25467 18.8619 9.57715C19.1844 9.89962 19.3656 10.337 19.3656 10.793V19.3907C19.3656 19.8467 19.1844 20.2841 18.8619 20.6065C18.5395 20.929 18.1021 21.1102 17.646 21.1102H7.3289C6.87285 21.1102 6.43548 20.929 6.11301 20.6065C5.79054 20.2841 5.60938 19.8467 5.60938 19.3907V10.793C5.60938 9.8387 6.37456 9.07351 7.3289 9.07351H8.18866V7.35399C8.18866 6.21387 8.64157 5.12045 9.44775 4.31427C10.2539 3.50808 11.3474 3.05518 12.4875 3.05518C13.052 3.05518 13.611 3.16637 14.1326 3.3824C14.6541 3.59844 15.128 3.91509 15.5272 4.31427C15.9264 4.71345 16.243 5.18735 16.4591 5.7089C16.6751 6.23046 16.7863 6.78946 16.7863 7.35399V9.07351H17.646ZM12.4875 4.7747C11.8034 4.7747 11.1473 5.04645 10.6636 5.53015C10.1799 6.01386 9.90818 6.66992 9.90818 7.35399V9.07351H15.0668V7.35399C15.0668 6.66992 14.795 6.01386 14.3113 5.53015C13.8276 5.04645 13.1715 4.7747 12.4875 4.7747Z" fill="black"/>
</svg>