<svg width="14" height="14" viewBox="0 0 14 14" fill="none" xmlns="http://www.w3.org/2000/svg">
<path d="M11.8 2H2.2C1.54 2 1 2.5625 1 3.25V10.75C1 11.4375 1.54 12 2.2 12H11.8C12.46 12 13 11.4375 13 10.75V3.25C13 2.5625 12.46 2 11.8 2ZM11.56 4.65625L7.636 7.2125C7.246 7.46875 6.754 7.46875 6.364 7.2125L2.44 4.65625C2.37984 4.62107 2.32715 4.57354 2.28513 4.51653C2.24312 4.45953 2.21264 4.39424 2.19555 4.32461C2.17845 4.25498 2.1751 4.18246 2.18569 4.11144C2.19629 4.04042 2.2206 3.97238 2.25717 3.91144C2.29374 3.85049 2.34179 3.79791 2.39844 3.75687C2.45508 3.71583 2.51912 3.68719 2.5867 3.67269C2.65427 3.65818 2.72397 3.6581 2.79157 3.67247C2.85918 3.68683 2.92328 3.71533 2.98 3.75625L7 6.375L11.02 3.75625C11.0767 3.71533 11.1408 3.68683 11.2084 3.67247C11.276 3.6581 11.3457 3.65818 11.4133 3.67269C11.4809 3.68719 11.5449 3.71583 11.6016 3.75687C11.6582 3.79791 11.7063 3.85049 11.7428 3.91144C11.7794 3.97238 11.8037 4.04042 11.8143 4.11144C11.8249 4.18246 11.8215 4.25498 11.8045 4.32461C11.7874 4.39424 11.7569 4.45953 11.7149 4.51653C11.6728 4.57354 11.6202 4.62107 11.56 4.65625Z" fill="black"/>
</svg>
