<svg xmlns="http://www.w3.org/2000/svg" width="28" height="28" viewBox="0 0 28 28" fill="none">
  <g clip-path="url(#clip0_610_12393)">
    <path d="M9.33228 7C11.1888 7 12.9693 7.7375 14.282 9.05025C15.5948 10.363 16.3323 12.1435 16.3323 14C16.3323 15.8565 15.5948 17.637 14.282 18.9497C12.9693 20.2625 11.1888 21 9.33228 21C7.47576 21 5.69528 20.2625 4.38253 18.9497C3.06977 17.637 2.33228 15.8565 2.33228 14C2.33228 12.1435 3.06977 10.363 4.38253 9.05025C5.69528 7.7375 7.47576 7 9.33228 7ZM19.8323 8.16667C21.5823 8.16667 22.7489 10.7788 22.7489 14C22.7489 17.2212 21.5823 19.8333 19.8323 19.8333C18.0823 19.8333 16.9156 17.2212 16.9156 14C16.9156 10.7788 18.0823 8.16667 19.8323 8.16667ZM24.4989 8.75C24.9423 8.75 25.3296 9.71483 25.5256 11.3703L25.5804 11.8872L25.6026 12.1613L25.6376 12.7377L25.6493 13.0398L25.6633 13.671L25.6656 14L25.6633 14.329L25.6493 14.9602L25.6376 15.2635L25.6026 15.8387L25.5793 16.1128L25.5268 16.6297C25.3296 18.2863 24.9434 19.25 24.4989 19.25C24.0556 19.25 23.6683 18.2852 23.4723 16.6297L23.4174 16.1128C23.4094 16.0215 23.402 15.9301 23.3953 15.8387L23.3603 15.2623C23.3558 15.1616 23.3519 15.0609 23.3486 14.9602L23.3346 14.329V13.671L23.3486 13.0398L23.3603 12.7365L23.3953 12.1613L23.4186 11.8872L23.4711 11.3703C23.6683 9.71367 24.0544 8.75 24.4989 8.75Z" fill="white"/>
  </g>
  <defs>
    <clipPath id="clip0_610_12393">
      <rect width="28" height="28" fill="white"/>
    </clipPath>
  </defs>
</svg>