<svg xmlns="http://www.w3.org/2000/svg" width="217" height="34" viewBox="0 0 217 34" fill="none">
  <g clip-path="url(#clip0_5920_218067)">
    <path d="M51.4165 24.1185L40.1853 4.6188C37.7341 0.557899 31.6975 0.521314 29.3194 4.80174L17.5392 25.0697C15.3441 28.8013 18.0514 33.4476 22.4781 33.4476H46.1484C50.5752 33.4841 53.9045 28.655 51.4165 24.1185Z" fill="#003087"/>
    <path d="M35.2079 25.6527L34.5128 24.4454C33.8543 23.3113 32.4275 20.8967 32.4275 20.8967L22.9155 4.36046C20.4643 0.701985 14.6107 0.372717 12.1596 5.01899L1.07439 24.1893C-1.23045 28.2137 1.51341 33.4453 6.48894 33.4819H30.0129H40.037H46.0005C39.9273 33.5185 37.9884 30.3356 35.2079 25.6527Z" fill="#1877F2"/>
    <path d="M35.2095 25.5812L34.5144 24.3739C33.8559 23.2398 32.4291 20.8252 32.4291 20.8252L26.2829 9.99609L17.4659 25.069C15.2708 28.8006 17.9781 33.4469 22.4049 33.4469H29.9779H40.0022H46.0021C39.8924 33.4103 37.99 30.3006 35.2095 25.5812Z" fill="url(#paint0_linear_5920_218067)"/>
    <path d="M197.636 9.93994C199.282 8.40338 202.172 7.67168 206.379 7.67168H216.221V2.07422H204.586C201.806 2.07422 199.465 2.36691 197.636 2.95226C195.843 3.53762 194.269 4.45222 192.916 5.73269C191.489 7.12292 190.355 8.84238 189.55 10.8911C188.745 12.9764 188.343 15.2447 188.343 17.6227C188.343 19.891 188.745 22.0861 189.55 24.0982C190.355 26.1104 191.489 27.8664 192.916 29.2567C194.233 30.5371 195.806 31.4517 197.562 32.0371C199.355 32.6225 201.733 32.9151 204.586 32.9151H216.221V27.3909H206.379C204.147 27.3909 202.611 27.3177 201.733 27.1347C200.818 26.9518 199.977 26.6592 199.282 26.2201C197.891 25.3421 196.83 24.208 196.135 22.7812C195.477 21.3909 195.147 19.6349 195.147 17.5862C195.147 14.074 195.989 11.4765 197.636 9.93994Z" fill="#currentFill"/>
    <path d="M111.99 32.9869H139.429V27.5723H118.685V19.8529H136.795V14.7311H118.685V7.56049H139.429V2.10938H111.99V32.9869Z" fill="#currentFill"/>
    <path d="M146.271 2.10938L159.112 17.5481L146.271 32.9869H154.575L164.709 20.7676V14.3652L154.575 2.10938H146.271Z" fill="#currentFill"/>
    <path d="M177.442 2.10938L167.308 14.3652V20.7676L177.442 32.9869H185.746L172.869 17.5481L185.746 2.10938H177.442Z" fill="#currentFill"/>
    <path d="M85.1001 17.3286L72.7709 2.10938H66.4053V32.9869H73.1002V12.3897L83.783 25.1944H86.3804L97.0631 12.28V32.9869H103.758V2.10938H97.4657L85.1001 17.3286Z" fill="#currentFill"/>
  </g>
  <defs>
    <linearGradient id="paint0_linear_5920_218067" x1="14.3192" y1="18.2378" x2="41.6504" y2="28.3376" gradientUnits="userSpaceOnUse">
      <stop stop-color="#003087" stop-opacity="0"/>
      <stop offset="1" stop-color="#003087"/>
    </linearGradient>
    <clipPath id="clip0_5920_218067">
      <rect width="216.17" height="33.1139" fill="white" transform="translate(0.234375 0.832031)"/>
    </clipPath>
  </defs>
</svg>