<svg xmlns="http://www.w3.org/2000/svg" width="24" height="23" viewBox="0 0 24 23" fill="none">
  <g clip-path="url(#clip0_1430_40066)">
    <path fill-rule="evenodd" clip-rule="evenodd" d="M22.9705 0.474996C23.0363 0.52567 23.0952 0.585004 23.1452 0.65128C23.1712 0.685651 23.1945 0.721422 23.2151 0.7583C23.2894 0.891624 23.3319 1.04525 23.3319 1.20879V8.06495C23.3319 8.57613 22.9174 8.99053 22.4063 8.99053C21.8951 8.99053 21.4807 8.57613 21.4807 8.06495V3.44324L10.4911 14.4329C10.1296 14.7943 9.54356 14.7943 9.18209 14.4329C8.82063 14.0714 8.82063 13.4853 9.18209 13.124L20.1717 2.13437H15.5501C15.0389 2.13437 14.6246 1.71996 14.6246 1.20879C14.6246 0.697599 15.0389 0.283203 15.5501 0.283203H22.406C22.4059 0.283203 22.4061 0.283203 22.406 0.283203C22.5505 0.283203 22.6876 0.316318 22.8095 0.375374C22.8656 0.402566 22.9196 0.435774 22.9705 0.474996ZM4.12308 5.56235C3.76243 5.56235 3.41656 5.70561 3.16155 5.96063C2.90653 6.21565 2.76327 6.56151 2.76327 6.92216V19.4918C2.76327 19.8524 2.90653 20.1983 3.16155 20.4533C3.41656 20.7084 3.76243 20.8516 4.12308 20.8516H16.6927C17.0534 20.8516 17.3992 20.7084 17.6542 20.4533C17.9092 20.1983 18.0525 19.8524 18.0525 19.4918V12.6357C18.0525 12.1244 18.467 11.7101 18.9781 11.7101C19.4893 11.7101 19.9037 12.1244 19.9037 12.6357V19.4918C19.9037 20.3434 19.5654 21.1601 18.9632 21.7623C18.361 22.3644 17.5444 22.7028 16.6927 22.7028H4.12308C3.27147 22.7028 2.45475 22.3644 1.85258 21.7623C1.25041 21.1601 0.912109 20.3434 0.912109 19.4918V6.92216C0.912109 6.07056 1.25041 5.25383 1.85258 4.65166C2.45475 4.04949 3.27147 3.71119 4.12308 3.71119H10.9792C11.4905 3.71119 11.9048 4.12558 11.9048 4.63677C11.9048 5.14795 11.4905 5.56235 10.9792 5.56235H4.12308Z" fill="currentFill"/>
  </g>
  <defs>
    <clipPath id="clip0_1430_40066">
      <rect width="22.6253" height="22.6253" fill="white" transform="translate(0.81543 0.179688)"/>
    </clipPath>
  </defs>
</svg>