<svg xmlns="http://www.w3.org/2000/svg" width="149" height="24" viewBox="0 0 149 24" fill="none">
  <path d="M28.8537 17.8629C28.5092 17.8629 28.2671 17.7914 28.1242 17.6501C27.9942 17.5071 27.9292 17.2829 27.9292 16.9742V6.67026C27.9292 6.36157 28.0007 6.13573 28.142 5.99438C28.285 5.84003 28.5222 5.76367 28.8537 5.76367H33.2127C34.8732 5.76367 36.095 6.11298 36.8781 6.81324C37.6612 7.51349 38.0528 8.55655 38.0528 9.94568C38.0528 11.3348 37.6612 12.36 36.8781 13.0603C36.1064 13.7491 34.8846 14.0919 33.2127 14.0919H31.5214V16.9742C31.5214 17.2829 31.4499 17.5087 31.3086 17.6501C31.1656 17.793 30.9235 17.8629 30.5791 17.8629H28.8537ZM32.9301 11.5087C33.4158 11.5087 33.7895 11.3787 34.0511 11.1171C34.3241 10.8555 34.4605 10.464 34.4605 9.94243C34.4605 9.4209 34.3241 9.01147 34.0511 8.74989C33.7895 8.48831 33.4158 8.35834 32.9301 8.35834H31.5247V11.5087H32.9301Z" fill="#08060B"/>
  <path d="M42.2696 18.1521C41.155 18.1521 40.2582 17.7963 39.5823 17.0847C38.9178 16.3617 38.5864 15.3463 38.5864 14.0416C38.5864 13.0457 38.8122 12.1732 39.2623 11.4258C39.7253 10.6785 40.3719 10.1033 41.2022 9.70039C42.0438 9.28446 43.0121 9.07812 44.1023 9.07812C45.004 9.07812 45.7985 9.17886 46.4873 9.38032C47.1876 9.57041 47.8277 9.84824 48.4094 10.217V17.3349C48.4094 17.5607 48.3671 17.7086 48.2843 17.7801C48.2014 17.8516 48.0357 17.8873 47.7855 17.8873H45.9707C45.8407 17.8873 45.74 17.8694 45.6685 17.8337C45.597 17.7866 45.5385 17.7151 45.4898 17.6209L45.2591 17.0863C44.9146 17.4535 44.5003 17.7216 44.0129 17.8873C43.5385 18.066 42.9568 18.1538 42.2696 18.1538V18.1521ZM43.6035 15.7313C44.0665 15.7313 44.4272 15.6192 44.6888 15.3934C44.9504 15.1675 45.0803 14.8475 45.0803 14.4315V11.6549C44.8545 11.5477 44.5702 11.4941 44.2257 11.4941C43.597 11.4941 43.0933 11.7134 42.7131 12.1521C42.3459 12.5908 42.1607 13.2081 42.1607 14.0026C42.1607 15.1529 42.6416 15.7281 43.6018 15.7281L43.6035 15.7313Z" fill="#08060B"/>
  <path d="M50.8537 17.8857C50.5093 17.8857 50.2656 17.8142 50.1242 17.6728C49.9812 17.5299 49.9114 17.3057 49.9114 16.997V9.89698C49.9114 9.68414 49.9471 9.54117 50.0186 9.46968C50.1015 9.38682 50.2672 9.34458 50.5174 9.34458H52.3501C52.493 9.34458 52.5986 9.36895 52.6701 9.41606C52.753 9.45181 52.8001 9.5233 52.8131 9.6289L52.9025 10.1634C53.2339 9.83199 53.6677 9.57041 54.2022 9.38032C54.7482 9.17886 55.3526 9.07812 56.0171 9.07812C56.9773 9.07812 57.7555 9.35108 58.3485 9.89698C58.9415 10.4315 59.2389 11.226 59.2389 12.2821V16.9986C59.2389 17.3073 59.1674 17.5331 59.026 17.6745C58.896 17.8174 58.6588 17.8873 58.3144 17.8873H56.5889C56.2445 17.8873 55.9959 17.8158 55.8416 17.6745C55.6986 17.5315 55.6288 17.3073 55.6288 16.9986V12.5144C55.6288 12.1586 55.5524 11.9035 55.398 11.7491C55.2437 11.5948 55 11.5184 54.6685 11.5184C54.3127 11.5184 54.0284 11.6127 53.8139 11.8028C53.6125 11.9929 53.5117 12.2528 53.5117 12.5859V16.9986C53.5117 17.3073 53.4402 17.5331 53.2989 17.6745C53.1689 17.8174 52.9317 17.8873 52.5873 17.8873H50.8618L50.8537 17.8857Z" fill="#08060B"/>
  <path d="M65.5404 18.1499C63.88 18.1499 62.5981 17.7648 61.6964 16.9931C60.7947 16.2213 60.3446 15.1003 60.3446 13.6299C60.3446 12.7282 60.5526 11.9337 60.9669 11.2448C61.3828 10.556 61.9807 10.0231 62.7638 9.64287C63.5583 9.26269 64.4958 9.07422 65.5762 9.07422C66.395 9.07422 67.0823 9.15058 67.6412 9.30493C68.2098 9.45928 68.7151 9.69648 69.1538 10.0166C69.2838 10.0994 69.3488 10.2066 69.3488 10.3366C69.3488 10.4309 69.3017 10.556 69.2058 10.7103L68.4763 11.9743C68.3934 12.14 68.2927 12.2229 68.1741 12.2229C68.1026 12.2229 67.9905 12.1758 67.8362 12.0799C67.5161 11.8785 67.2139 11.7306 66.9279 11.6348C66.655 11.5405 66.3106 11.4918 65.8963 11.4918C65.3032 11.4918 64.8223 11.6819 64.4551 12.0621C64.0993 12.4422 63.9206 12.9638 63.9206 13.6283C63.9206 14.2928 64.1042 14.8273 64.473 15.1945C64.8402 15.5503 65.3455 15.729 65.9856 15.729C66.3658 15.729 66.7086 15.6754 67.0173 15.5682C67.326 15.461 67.6396 15.3131 67.9596 15.123C68.1254 15.0288 68.244 14.98 68.3155 14.98C68.4227 14.98 68.5169 15.0629 68.5998 15.2286L69.4008 16.5983C69.4609 16.7169 69.4901 16.8111 69.4901 16.8826C69.4901 16.9898 69.4186 17.0905 69.2773 17.1848C68.7785 17.5048 68.2326 17.7421 67.6396 17.8964C67.0579 18.0621 66.3577 18.145 65.5404 18.145V18.1499Z" fill="#08060B"/>
  <path d="M73.9493 18.1521C72.8348 18.1521 71.9379 17.7963 71.2621 17.0847C70.5976 16.3617 70.2661 15.3463 70.2661 14.0416C70.2661 13.0457 70.492 12.1732 70.942 11.4258C71.405 10.6785 72.0517 10.1033 72.8819 9.70039C73.7235 9.28446 74.6918 9.07812 75.782 9.07812C76.6837 9.07812 77.4782 9.17886 78.1671 9.38032C78.8673 9.57041 79.5074 9.84824 80.0891 10.217V17.3349C80.0891 17.5607 80.0469 17.7086 79.964 17.7801C79.8811 17.8516 79.7154 17.8873 79.4652 17.8873H77.6504C77.5204 17.8873 77.4197 17.8694 77.3482 17.8337C77.2767 17.7866 77.2182 17.7151 77.1695 17.6209L76.9388 17.0863C76.5944 17.4535 76.1801 17.7216 75.6926 17.8873C75.2182 18.066 74.6366 18.1538 73.9493 18.1538V18.1521ZM75.2848 15.7313C75.7479 15.7313 76.1102 15.6192 76.3702 15.3934C76.6317 15.1675 76.7617 14.8475 76.7617 14.4315V11.6549C76.5359 11.5477 76.2515 11.4941 75.9071 11.4941C75.2783 11.4941 74.7747 11.7134 74.3945 12.1521C74.0273 12.5908 73.8421 13.2081 73.8421 14.0026C73.8421 15.1529 74.323 15.7281 75.2832 15.7281L75.2848 15.7313Z" fill="#08060B"/>
  <path d="M91.2456 17.187C91.3284 17.2813 91.3707 17.3885 91.3707 17.5071C91.3707 17.6143 91.3349 17.7021 91.2634 17.7735C91.1919 17.8337 91.0977 17.8629 90.9791 17.8629H88.2204C88.0546 17.8629 87.9295 17.8515 87.8467 17.8272C87.7752 17.7914 87.6988 17.7264 87.616 17.6322L85.1951 14.3405V16.9742C85.1951 17.2829 85.1236 17.5087 84.9823 17.6501C84.8393 17.793 84.5972 17.8629 84.2528 17.8629H82.5274C82.1829 17.8629 81.9408 17.7914 81.7979 17.6501C81.6679 17.5071 81.6029 17.2829 81.6029 16.9742V6.67026C81.6029 6.36157 81.6744 6.13573 81.8157 5.99438C81.9587 5.84003 82.1959 5.76367 82.5274 5.76367H84.2528C84.5972 5.76367 84.8393 5.84003 84.9823 5.99438C85.1253 6.13736 85.1951 6.36157 85.1951 6.67026V12.6313L87.5445 9.57037C87.616 9.47614 87.6923 9.40953 87.7752 9.37541C87.858 9.33966 87.9831 9.32179 88.1489 9.32179H90.9076C91.0262 9.32179 91.1156 9.35754 91.1741 9.42902C91.2456 9.48914 91.2813 9.572 91.2813 9.6776C91.2813 9.79621 91.2391 9.90344 91.1562 9.99767L88.1131 13.4859L91.2456 17.187Z" fill="#08060B"/>
  <path d="M96.9961 18.1476C96.0001 18.1476 95.1098 17.9818 94.3267 17.6488C93.5549 17.3173 92.944 16.8186 92.494 16.1541C92.044 15.4895 91.8181 14.6772 91.8181 13.7154C91.8181 12.2093 92.2454 11.0573 93.1 10.2629C93.9546 9.46837 95.1813 9.07031 96.7832 9.07031C98.3852 9.07031 99.5355 9.46187 100.343 10.245C101.162 11.0167 101.571 12.089 101.571 13.4652C101.571 14.0582 101.31 14.3555 100.788 14.3555H95.2008C95.2008 14.8657 95.3909 15.2572 95.7694 15.5302C96.161 15.8031 96.7475 15.9396 97.5306 15.9396C98.0164 15.9396 98.421 15.8973 98.741 15.8145C99.0725 15.7203 99.4055 15.5838 99.737 15.4051C99.8799 15.3449 99.9742 15.3157 100.021 15.3157C100.129 15.3157 100.216 15.3872 100.288 15.5285L100.892 16.6675C100.952 16.7861 100.981 16.8754 100.981 16.9339C100.981 17.0411 100.91 17.1419 100.769 17.2361C100.283 17.5562 99.7305 17.7885 99.1131 17.9299C98.4957 18.0712 97.7906 18.1427 96.9961 18.1427V18.1476ZM98.3657 12.5959C98.3657 12.1459 98.2357 11.795 97.9741 11.5464C97.7126 11.2978 97.321 11.1727 96.7995 11.1727C96.278 11.1727 95.8799 11.3027 95.607 11.5642C95.334 11.8128 95.1975 12.1573 95.1975 12.5959H98.3657Z" fill="#08060B"/>
  <path d="M107.687 18.1608C106.691 18.1608 105.747 18.06 104.858 17.8586C103.968 17.6457 103.252 17.3484 102.706 16.9682C102.504 16.8383 102.404 16.7018 102.404 16.5588C102.404 16.4646 102.439 16.3638 102.511 16.2566L103.383 14.8691C103.478 14.7261 103.573 14.6563 103.668 14.6563C103.728 14.6563 103.828 14.6985 103.97 14.7814C104.408 15.03 104.907 15.2314 105.465 15.3858C106.022 15.5401 106.574 15.6165 107.12 15.6165C107.666 15.6165 108.087 15.5336 108.348 15.3679C108.621 15.2022 108.758 14.9357 108.758 14.5669C108.758 14.1981 108.61 13.9316 108.313 13.7302C108.028 13.5287 107.487 13.2736 106.693 12.9649C105.495 12.5149 104.558 12.0096 103.88 11.4523C103.216 10.8837 102.884 10.112 102.884 9.13875C102.884 7.96408 103.305 7.06887 104.148 6.45148C104.99 5.83409 106.111 5.52539 107.512 5.52539C108.485 5.52539 109.315 5.61475 110.002 5.79184C110.703 5.95756 111.296 6.21914 111.781 6.57495C111.983 6.7293 112.084 6.87228 112.084 7.00225C112.084 7.08511 112.048 7.18097 111.976 7.28658L111.104 8.67408C110.997 8.81706 110.902 8.88692 110.82 8.88692C110.761 8.88692 110.659 8.84468 110.517 8.76182C109.828 8.31177 109.011 8.08594 108.062 8.08594C107.552 8.08594 107.161 8.1688 106.888 8.33452C106.615 8.50024 106.478 8.77319 106.478 9.15337C106.478 9.41495 106.55 9.62779 106.691 9.79351C106.834 9.95923 107.023 10.1087 107.26 10.2387C107.508 10.3573 107.889 10.5116 108.399 10.7017L108.737 10.8268C109.614 11.1713 110.303 11.5027 110.802 11.8228C111.312 12.1315 111.697 12.5165 111.958 12.9796C112.22 13.4296 112.35 13.9999 112.35 14.6871C112.35 15.7432 111.952 16.5848 111.157 17.2136C110.374 17.8423 109.218 18.1559 107.687 18.1559V18.1608Z" fill="#08060B"/>
  <path d="M116.244 17.8923C116.067 17.8923 115.931 17.8631 115.835 17.803C115.741 17.7445 115.669 17.6243 115.622 17.4472L113.326 9.75904C113.302 9.68755 113.291 9.63393 113.291 9.59819C113.291 9.43247 113.409 9.34961 113.646 9.34961H115.996C116.15 9.34961 116.262 9.37885 116.334 9.43897C116.405 9.48609 116.452 9.56895 116.475 9.68755L117.435 13.7266L118.646 10.4707C118.706 10.3277 118.764 10.2335 118.823 10.1863C118.894 10.1262 119.013 10.097 119.18 10.097H120.3C120.465 10.097 120.579 10.1262 120.638 10.1863C120.709 10.2335 120.774 10.3293 120.834 10.4707L122.027 13.7266L123.006 9.68755C123.04 9.56895 123.088 9.48609 123.148 9.43897C123.206 9.37885 123.313 9.34961 123.468 9.34961H125.835C126.072 9.34961 126.191 9.43247 126.191 9.59819C126.191 9.63393 126.179 9.68755 126.155 9.75904L123.841 17.4472C123.794 17.6259 123.723 17.7445 123.629 17.803C123.546 17.8631 123.416 17.8923 123.237 17.8923H121.494C121.328 17.8923 121.203 17.8631 121.12 17.803C121.037 17.7315 120.966 17.6129 120.907 17.4472L119.733 14.227L118.558 17.4472C118.511 17.6129 118.439 17.7315 118.345 17.803C118.262 17.8631 118.139 17.8923 117.971 17.8923H116.244Z" fill="#08060B"/>
  <path d="M130.594 18.1521C129.478 18.1521 128.584 17.7963 127.907 17.0847C127.242 16.3617 126.911 15.3463 126.911 14.0416C126.911 13.0457 127.137 12.1732 127.588 11.4258C128.05 10.6785 128.696 10.1033 129.527 9.70039C130.37 9.28446 131.337 9.07812 132.427 9.07812C133.328 9.07812 134.123 9.17886 134.812 9.38032C135.512 9.57041 136.152 9.84824 136.734 10.217V17.3349C136.734 17.5607 136.692 17.7086 136.609 17.7801C136.526 17.8516 136.36 17.8873 136.112 17.8873H134.297C134.167 17.8873 134.066 17.8694 133.995 17.8337C133.923 17.7866 133.865 17.7151 133.817 17.6209L133.587 17.0863C133.242 17.4535 132.826 17.7216 132.341 17.8873C131.866 18.066 131.285 18.1538 130.597 18.1538L130.594 18.1521ZM131.928 15.7313C132.389 15.7313 132.753 15.6192 133.013 15.3934C133.275 15.1675 133.405 14.8475 133.405 14.4315V11.6549C133.179 11.5477 132.895 11.4941 132.55 11.4941C131.921 11.4941 131.418 11.7134 131.038 12.1521C130.67 12.5908 130.485 13.2081 130.485 14.0026C130.485 15.1529 130.966 15.7281 131.928 15.7281V15.7313Z" fill="#08060B"/>
  <path d="M139.157 21.4773C138.813 21.4773 138.571 21.4058 138.428 21.2644C138.298 21.1215 138.233 20.8972 138.233 20.5885V10.3919C138.766 10.0117 139.437 9.69811 140.243 9.4479C141.05 9.19932 141.892 9.07422 142.769 9.07422C146.353 9.07422 148.144 10.5933 148.144 13.6299C148.144 15.006 147.763 16.1027 147.005 16.9216C146.244 17.7404 145.172 18.1499 143.785 18.1499C143.393 18.1499 143.013 18.1027 142.644 18.0069C142.288 17.9126 141.991 17.781 141.755 17.6153V20.5869C141.755 20.8956 141.684 21.1215 141.541 21.2628C141.399 21.4058 141.156 21.4756 140.811 21.4756H139.156L139.157 21.4773ZM143.019 15.7469C143.529 15.7469 143.91 15.5568 144.158 15.1783C144.42 14.7867 144.55 14.2652 144.55 13.612C144.55 12.8403 144.395 12.3009 144.088 11.9922C143.791 11.6721 143.328 11.5113 142.701 11.5113C142.296 11.5113 141.976 11.5649 141.741 11.6721V14.5024C141.741 14.9053 141.853 15.214 142.079 15.4285C142.304 15.6413 142.62 15.7485 143.023 15.7485L143.019 15.7469Z" fill="#08060B"/>
  <path fill-rule="evenodd" clip-rule="evenodd" d="M11.5644 23.1271C8.19309 23.1239 5.47819 22.3164 3.58052 20.8623C1.66011 19.3919 0.641418 17.3058 0.641418 14.9434C0.641418 12.5811 1.65848 11.0279 2.80716 9.91821C3.70887 9.049 4.70321 8.49334 5.39534 8.17165C5.23936 7.69074 5.04278 7.06198 4.86893 6.41209C4.63497 5.54287 4.40587 4.52255 4.40587 3.77519C4.40587 2.88972 4.59921 2.001 5.11912 1.3105C5.66828 0.581008 6.49688 0.189453 7.4912 0.189453C8.26944 0.189453 8.92908 0.478651 9.44737 0.975813C9.94128 1.45185 10.2711 2.08386 10.4986 2.74187C10.8982 3.90029 11.0526 5.3544 11.0965 6.80527H12.0502C12.094 5.3544 12.2484 3.90029 12.648 2.74187C12.8755 2.08386 13.2037 1.45185 13.6993 0.975813C14.2159 0.478651 14.8772 0.189453 15.6554 0.189453C16.6513 0.189453 17.4783 0.581008 18.0275 1.3105C18.5474 2.001 18.7407 2.88972 18.7407 3.77519C18.7407 4.52255 18.5116 5.54287 18.2777 6.41209C18.1022 7.06198 17.9073 7.69074 17.7513 8.17165C18.4434 8.49172 19.4377 9.049 20.3395 9.91821C21.4898 11.0279 22.5052 12.6672 22.5052 14.9434C22.5052 17.2197 21.4865 19.3919 19.5661 20.8623C17.6684 22.3147 14.9535 23.1239 11.5822 23.1271H11.566H11.5644Z" fill="#643001"/>
  <path d="M7.4592 1.02148C6.00183 1.02148 5.3292 2.11979 5.3292 3.64052C5.3292 4.84768 6.10907 7.26687 6.42914 8.20921C6.50062 8.42042 6.38852 8.65275 6.18218 8.73561C5.01401 9.20028 1.56476 10.9046 1.56476 14.8088C1.56476 18.9209 5.06926 22.0209 11.5324 22.0257C11.5356 22.0257 11.5372 22.0257 11.5405 22.0257C11.5437 22.0257 11.5454 22.0257 11.5486 22.0257C18.0117 22.0209 21.5162 18.9209 21.5162 14.8088C21.5162 10.6966 18.067 9.2019 16.8988 8.73561C16.6925 8.65275 16.5787 8.42204 16.6518 8.20921C16.9719 7.26687 17.7518 4.84768 17.7518 3.64052C17.7518 2.12141 17.0807 1.02148 15.6218 1.02148C13.5226 1.02148 12.9995 4.02557 12.9621 7.249C12.9605 7.46346 12.7866 7.63893 12.5738 7.63893H10.5055C10.2927 7.63893 10.1205 7.46509 10.1172 7.249C10.0799 4.02557 9.5567 1.02148 7.45757 1.02148H7.4592Z" fill="#CE864F"/>
  <path d="M11.547 20.7193C6.79794 20.7193 1.57288 18.1523 1.56476 14.8281C1.56476 14.833 1.56476 14.8379 1.56476 14.8444C1.56476 18.9598 5.07413 22.0613 11.547 22.0613C18.0198 22.0613 21.5292 18.9598 21.5292 14.8444V14.8281C21.5211 18.1523 16.2944 20.7193 11.547 20.7193Z" fill="#FDDA8E"/>
  <path d="M8.91677 13.8075C8.91677 14.9302 8.39199 15.5135 7.74373 15.5135C7.09548 15.5135 6.57068 14.9286 6.57068 13.8075C6.57068 12.6865 7.09548 12.1016 7.74373 12.1016C8.39199 12.1016 8.91677 12.6865 8.91677 13.8075Z" fill="#643001"/>
  <path d="M16.5814 13.8075C16.5814 14.9302 16.0566 15.5135 15.4083 15.5135C14.7601 15.5135 14.2353 14.9286 14.2353 13.8075C14.2353 12.6865 14.7601 12.1016 15.4083 12.1016C16.0566 12.1016 16.5814 12.6865 16.5814 13.8075Z" fill="#643001"/>
</svg>