<svg width="457" height="200" viewBox="0 0 457 200" fill="none" xmlns="http://www.w3.org/2000/svg">
<path d="M219.443 102.629C245.954 102.629 267.437 124.255 267.437 150.925C267.437 177.595 245.954 199.221 219.443 199.221C192.932 199.221 171.449 177.602 171.449 150.925C171.449 124.247 192.94 102.629 219.443 102.629Z" fill="#2C324D"/>
<g filter="url(#filter0_i_8_51221)">
<path d="M219.235 109.984C241.841 109.984 260.16 128.425 260.16 151.166C260.16 173.908 241.841 192.348 219.235 192.348C196.629 192.348 178.311 173.914 178.311 151.166C178.311 128.418 196.636 109.984 219.235 109.984Z" fill="#111111"/>
</g>
<path d="M212.198 149.046L207.358 156.029L194.485 137.441H204.159L212.198 149.046Z" fill="white"/>
<path d="M232.317 137.441L213.383 164.723L209.921 159.728L225.389 137.441H232.317Z" fill="url(#paint0_linear_8_51221)"/>
<path d="M244.393 137.441L219.416 173.431L215.956 168.439L237.468 137.441H244.393Z" fill="url(#paint1_linear_8_51221)"/>
<path d="M23.1272 127.984C35.9022 127.984 46.2545 138.371 46.2545 151.179C46.2545 163.988 35.9022 174.374 23.1272 174.374C10.3523 174.374 0 163.991 0 151.179C0 138.367 10.356 127.984 23.1272 127.984Z" fill="#F5AC37"/>
<g filter="url(#filter1_i_8_51221)">
<path d="M23.0274 131.517C33.9207 131.517 42.7482 140.373 42.7482 151.295C42.7482 162.217 33.9207 171.073 23.0274 171.073C12.1341 171.073 3.30664 162.22 3.30664 151.295C3.30664 140.37 12.1373 131.517 23.0274 131.517Z" fill="#E8A436"/>
</g>
<g filter="url(#filter2_d_8_51221)">
<path d="M23.4359 152.517H30.4401C30.5882 152.517 30.6593 152.517 30.6712 152.321C30.7274 151.605 30.7274 150.886 30.6712 150.173C30.6712 150.034 30.603 149.977 30.452 149.977H16.5115C16.3397 149.977 16.2924 150.034 16.2924 150.197V152.252C16.2924 152.429 16.3842 152.517 16.5678 152.517H23.4329H23.4359ZM29.8893 147.571C29.91 147.518 29.91 147.461 29.8893 147.411C29.7738 147.155 29.6346 146.912 29.4717 146.683C29.2288 146.291 28.9445 145.932 28.6187 145.608C28.4647 145.412 28.287 145.237 28.0886 145.088C27.0905 144.236 25.9059 143.636 24.6324 143.333C23.9897 143.187 23.3322 143.119 22.6747 143.125H16.4878C16.316 143.125 16.2924 143.193 16.2924 143.344V147.446C16.2924 147.619 16.2924 147.666 16.5115 147.666H29.8064C29.8064 147.666 29.9219 147.642 29.9456 147.574H29.8893V147.571ZM29.8893 154.92C29.6938 154.899 29.4954 154.899 29.2999 154.92H16.5234C16.3516 154.92 16.2924 154.92 16.2924 155.151V159.161C16.2924 159.345 16.2924 159.393 16.5234 159.393H22.423C22.7043 159.414 22.9857 159.393 23.2641 159.337C24.12 159.274 24.9611 159.09 25.7637 158.781C26.0569 158.68 26.3383 158.546 26.6048 158.389H26.6848C28.0679 157.667 29.1903 156.536 29.8982 155.142C29.8982 155.142 29.9781 154.967 29.8893 154.923V154.92ZM13.9793 161.472V155.083C13.9793 154.932 13.9793 154.911 13.7957 154.911H11.2961C11.1569 154.911 11.1006 154.911 11.1006 154.727V152.532H13.772C13.9201 152.532 13.9793 152.532 13.9793 152.336V150.164C13.9793 150.025 13.9793 149.992 13.7957 149.992H11.2961C11.1569 149.992 11.1006 149.992 11.1006 149.808V147.776C11.1006 147.648 11.1006 147.616 11.2842 147.616H13.7601C13.9319 147.616 13.9793 147.616 13.9793 147.396V141.167C13.9793 140.983 13.9793 140.936 14.2103 140.936H22.8494C23.4773 140.959 24.0993 141.031 24.7153 141.143C25.9858 141.378 27.206 141.833 28.3196 142.483C29.06 142.92 29.7412 143.448 30.3454 144.054C30.8015 144.53 31.2131 145.043 31.5774 145.59C31.9387 146.145 32.2408 146.737 32.4778 147.357C32.5074 147.518 32.6614 147.628 32.8213 147.601H34.8826C35.0583 147.601 35.1502 147.686 35.1581 147.856V149.751C35.1581 149.936 35.0899 149.983 34.9034 149.983H33.3129C33.153 149.983 33.1056 149.983 33.1175 150.191C33.1797 150.895 33.1797 151.602 33.1175 152.306C33.1175 152.502 33.1175 152.526 33.3366 152.526H35.1551C35.2351 152.63 35.1551 152.734 35.1551 152.838C35.1669 152.971 35.1669 153.108 35.1551 153.241V154.64C35.1551 154.837 35.0988 154.896 34.9241 154.896H32.7473C32.5962 154.866 32.4481 154.964 32.4126 155.116C31.8943 156.467 31.0651 157.679 29.9929 158.65C29.602 159.004 29.1903 159.337 28.7609 159.642C28.2989 159.91 27.8517 160.186 27.3778 160.406C26.5071 160.798 25.5949 161.089 24.659 161.273C23.7705 161.434 22.8672 161.505 21.9639 161.493H13.9675V161.481H13.9704L13.9793 161.472Z" fill="#FEFEFD"/>
</g>
<path d="M239.972 0C258.146 0 272.873 14.7328 272.873 32.9016C272.873 51.0704 258.146 65.8032 239.972 65.8032C221.798 65.8032 207.07 51.0757 207.07 32.9016C207.07 14.7275 221.803 0 239.972 0Z" fill="#50C1A2"/>
<g filter="url(#filter3_i_8_51221)">
<path d="M239.83 5.01074C255.327 5.01074 267.885 17.5735 267.885 33.0662C267.885 48.5588 255.327 61.1216 239.83 61.1216C224.333 61.1216 211.774 48.5634 211.774 33.0662C211.774 17.569 224.337 5.01074 239.83 5.01074Z" fill="#48A58C"/>
</g>
<g filter="url(#filter4_d_8_51221)">
<path fill-rule="evenodd" clip-rule="evenodd" d="M243.402 34.4448C243.22 34.4591 242.266 34.5165 240.14 34.5165C238.449 34.5165 237.248 34.4663 236.828 34.4448C230.294 34.158 225.419 33.0181 225.419 31.6596C225.419 30.301 230.297 29.1611 236.828 28.8708V33.3156C237.255 33.3479 238.481 33.4196 240.169 33.4196C242.198 33.4196 243.212 33.3336 243.399 33.3192V28.8779C249.919 29.1683 254.787 30.3046 254.787 31.6632C254.787 33.0217 249.923 34.158 243.399 34.4484H243.406L243.402 34.4448ZM243.402 28.4119V24.4367H252.504V18.3716H227.727V24.4367H236.825V28.4119C229.43 28.7525 223.87 30.215 223.87 31.9714C223.87 33.7279 229.43 35.1904 236.825 35.5309V48.274H243.399V35.5273C250.776 35.1868 256.328 33.7243 256.328 31.9714C256.328 30.2186 250.779 28.7525 243.399 28.4119H243.402Z" fill="white"/>
</g>
<path d="M120.323 102.629C133.098 102.629 143.45 113.015 143.45 125.824C143.45 138.632 133.098 149.018 120.323 149.018C107.548 149.018 97.1953 138.636 97.1953 125.824C97.1953 113.011 107.551 102.629 120.323 102.629Z" fill="#2F80D8"/>
<g filter="url(#filter5_i_8_51221)">
<path d="M120.223 106.161C131.116 106.161 139.944 115.018 139.944 125.939C139.944 136.861 131.116 145.718 120.223 145.718C109.329 145.718 100.502 136.865 100.502 125.939C100.502 115.014 109.333 106.161 120.223 106.161Z" fill="#2369B4"/>
</g>
<path d="M124.408 128.313C124.408 126.051 123.055 125.275 120.349 124.954C118.417 124.697 118.031 124.179 118.031 123.274C118.031 122.369 118.676 121.788 119.964 121.788C121.123 121.788 121.768 122.175 122.09 123.145C122.156 123.34 122.347 123.468 122.541 123.468H123.572C123.829 123.468 124.023 123.274 124.023 123.016V122.95C123.766 121.53 122.607 120.431 121.125 120.302V118.75C121.125 118.493 120.931 118.298 120.609 118.232H119.644C119.387 118.232 119.193 118.427 119.127 118.75V120.236C117.195 120.494 115.97 121.788 115.97 123.403C115.97 125.536 117.258 126.375 119.964 126.698C121.768 127.021 122.347 127.408 122.347 128.442C122.347 129.475 121.445 130.185 120.221 130.185C118.545 130.185 117.966 129.475 117.772 128.505C117.706 128.247 117.515 128.118 117.321 128.118H116.224C115.967 128.118 115.773 128.313 115.773 128.57V128.636C116.03 130.251 117.061 131.413 119.188 131.737V133.288C119.188 133.546 119.382 133.741 119.704 133.806H120.669C120.926 133.806 121.12 133.612 121.186 133.288V131.737C123.118 131.413 124.406 130.056 124.406 128.313H124.408Z" fill="white"/>
<g filter="url(#filter6_d_8_51221)">
<path d="M116.872 135.098C111.848 133.288 109.271 127.668 111.14 122.693C112.105 119.979 114.232 117.912 116.872 116.944C117.129 116.815 117.258 116.62 117.258 116.297V115.392C117.258 115.134 117.129 114.94 116.872 114.874C116.807 114.874 116.678 114.874 116.615 114.94C110.495 116.878 107.147 123.403 109.079 129.541C110.238 133.16 113.01 135.937 116.615 137.099C116.872 137.228 117.132 137.099 117.195 136.841C117.26 136.776 117.26 136.713 117.26 136.584V135.679C117.26 135.484 117.066 135.227 116.875 135.098H116.872ZM123.701 114.94C123.444 114.811 123.184 114.94 123.121 115.197C123.056 115.263 123.056 115.326 123.056 115.455V116.36C123.056 116.618 123.25 116.878 123.441 117.007C128.465 118.816 131.043 124.436 129.173 129.412C128.208 132.126 126.082 134.193 123.441 135.161C123.184 135.29 123.056 135.484 123.056 135.808V136.713C123.056 136.97 123.184 137.165 123.441 137.231C123.507 137.231 123.635 137.231 123.698 137.165C129.819 135.227 133.167 128.702 131.235 122.564C130.076 118.882 127.241 116.102 123.698 114.94H123.701Z" fill="white"/>
</g>
<path d="M322.791 89.0234C335.566 89.0234 345.919 99.4097 345.919 112.218C345.919 125.027 335.566 135.413 322.791 135.413C310.016 135.413 299.664 125.03 299.664 112.218C299.664 99.4059 310.02 89.0234 322.791 89.0234Z" fill="#6B94FF"/>
<g filter="url(#filter7_i_8_51221)">
<path d="M322.691 92.5557C333.585 92.5557 342.412 101.412 342.412 112.334C342.412 123.256 333.585 132.112 322.691 132.112C311.798 132.112 302.971 123.259 302.971 112.334C302.971 101.409 311.801 92.5557 322.691 92.5557Z" fill="#1B5AFE"/>
</g>
<path fill-rule="evenodd" clip-rule="evenodd" d="M313.599 102.917V109.116C317.012 109.116 319.779 106.34 319.779 102.917H313.599Z" fill="white"/>
<path fill-rule="evenodd" clip-rule="evenodd" d="M319.783 121.541V109.06C319.783 109.008 319.783 108.955 319.783 108.903C319.783 108.85 319.783 108.798 319.789 108.745C319.789 108.693 319.795 108.64 319.798 108.591C319.801 108.538 319.807 108.489 319.813 108.437C319.82 108.384 319.826 108.335 319.832 108.282C319.838 108.23 319.844 108.18 319.853 108.128C319.86 108.075 319.869 108.026 319.878 107.977C319.887 107.924 319.897 107.875 319.906 107.825C319.915 107.776 319.927 107.727 319.937 107.677C319.949 107.628 319.961 107.578 319.974 107.529C319.986 107.48 319.998 107.43 320.014 107.384C320.026 107.335 320.041 107.288 320.057 107.239C320.072 107.189 320.087 107.143 320.103 107.097C320.118 107.047 320.134 107.001 320.152 106.955C320.17 106.909 320.186 106.862 320.204 106.816C320.223 106.77 320.241 106.723 320.26 106.677C320.278 106.631 320.3 106.584 320.318 106.541C320.34 106.495 320.361 106.452 320.38 106.405C320.401 106.359 320.423 106.316 320.448 106.273C320.472 106.229 320.494 106.186 320.518 106.143C320.543 106.1 320.568 106.057 320.592 106.013C320.617 105.97 320.641 105.927 320.669 105.887C320.694 105.844 320.721 105.803 320.746 105.76C320.771 105.717 320.798 105.677 320.826 105.637C320.854 105.597 320.881 105.556 320.909 105.516C320.937 105.476 320.968 105.436 320.995 105.396C321.023 105.356 321.054 105.319 321.085 105.279C321.115 105.239 321.146 105.202 321.177 105.164C321.208 105.127 321.239 105.087 321.272 105.053C321.303 105.016 321.337 104.979 321.371 104.942C321.405 104.905 321.439 104.868 321.472 104.834C321.506 104.8 321.54 104.763 321.574 104.729C321.608 104.695 321.645 104.658 321.679 104.627C321.713 104.593 321.749 104.559 321.786 104.525C321.823 104.492 321.86 104.461 321.897 104.427C321.934 104.393 321.971 104.362 322.008 104.331C322.045 104.3 322.085 104.269 322.122 104.238C322.162 104.208 322.199 104.177 322.239 104.149C322.279 104.121 322.316 104.09 322.359 104.062C322.399 104.035 322.439 104.007 322.479 103.979C322.519 103.951 322.559 103.924 322.602 103.899C322.642 103.874 322.685 103.846 322.728 103.822C322.771 103.797 322.811 103.769 322.854 103.744C322.898 103.72 322.941 103.695 322.984 103.67C323.027 103.646 323.07 103.624 323.113 103.599C323.156 103.575 323.202 103.553 323.245 103.531C323.288 103.51 323.335 103.488 323.381 103.47C323.427 103.448 323.47 103.43 323.516 103.411C323.562 103.393 323.609 103.374 323.655 103.356C323.701 103.337 323.747 103.318 323.793 103.303C323.839 103.288 323.889 103.269 323.935 103.254C323.981 103.238 324.03 103.223 324.076 103.207C324.123 103.192 324.172 103.18 324.221 103.164C324.27 103.149 324.32 103.136 324.366 103.124C324.415 103.112 324.464 103.099 324.513 103.087C324.563 103.075 324.612 103.065 324.661 103.056C324.71 103.047 324.763 103.034 324.812 103.028C324.861 103.022 324.914 103.01 324.963 103.004L325.117 102.982C325.169 102.976 325.218 102.97 325.271 102.963C325.323 102.957 325.372 102.954 325.425 102.948C325.477 102.945 325.526 102.942 325.578 102.939C325.631 102.936 325.683 102.936 325.735 102.933C325.788 102.933 325.84 102.933 325.892 102.933H332.021V109.072H325.892V121.553L319.773 121.547L319.783 121.541Z" fill="white"/>
<path d="M393.799 35.6172C406.574 35.6172 416.926 46.0034 416.926 58.812C416.926 71.6205 406.574 82.0067 393.799 82.0067C381.024 82.0067 370.672 71.6242 370.672 58.812C370.672 45.9997 381.028 35.6172 393.799 35.6172Z" fill="#1E7860"/>
<g filter="url(#filter8_i_8_51221)">
<path d="M393.699 39.1494C404.593 39.1494 413.42 48.0058 413.42 58.9278C413.42 69.8497 404.593 78.7061 393.699 78.7061C382.806 78.7061 373.979 69.8529 373.979 58.9278C373.979 48.0026 382.809 39.1494 393.699 39.1494Z" fill="#1D5E4D"/>
</g>
<path d="M393.538 66.1655H391.808V67.9011H393.538V66.1655Z" fill="#216C58"/>
<path d="M396.423 66.1655H394.692V67.9011H396.423V66.1655Z" fill="#216C58"/>
<path d="M388.925 48.1543H399.884C400.212 48.1543 400.462 48.4835 400.462 48.7337V49.0629C400.462 49.3921 400.215 49.6423 399.884 49.6423H388.925C388.597 49.6423 388.348 49.3948 388.348 49.0629V48.7337C388.348 48.4861 388.676 48.1543 388.925 48.1543Z" fill="white"/>
<path d="M393.867 50.2188V69.8846C393.867 70.2138 393.621 70.464 393.29 70.464H392.962C392.633 70.464 392.384 70.2164 392.384 69.8846V50.2188H393.867Z" fill="white"/>
<path d="M396.176 50.2188V69.8846C396.176 70.2138 395.929 70.464 395.598 70.464H395.27C394.942 70.464 394.692 70.2164 394.692 69.8846V50.2188H396.176Z" fill="white"/>
<path d="M392.634 55.0938C393.046 54.9279 393.54 54.8462 394.199 54.8462C395.105 54.8462 395.764 55.0121 396.258 55.3413C396.586 55.5889 396.836 55.8365 396.999 56.25C397.164 56.5792 397.411 56.911 397.905 56.911H400.541C401.035 56.911 401.447 56.4975 401.366 56.0024C401.284 55.1754 400.953 54.5144 400.46 53.8533C399.882 53.0263 398.976 52.4496 397.905 52.0361C396.833 51.6226 395.599 51.375 394.197 51.375C392.794 51.375 391.56 51.6226 390.489 52.0361C389.417 52.4496 388.511 53.1106 387.852 53.8533C387.193 54.6803 386.865 55.5889 386.865 56.6635C386.865 57.9856 387.358 59.0601 388.348 59.8028C389.336 60.5455 390.573 61.1249 392.138 61.4542L394.197 61.8677C394.856 62.0336 395.433 62.1969 395.843 62.3628C396.255 62.5287 396.584 62.692 396.83 62.9422C396.996 63.1081 397.159 63.3557 397.159 63.6849C397.159 64.0141 397.077 64.2643 396.83 64.5935C396.584 64.8411 396.253 65.0887 395.759 65.2546C395.347 65.4205 394.772 65.5022 394.113 65.5022C393.453 65.5022 392.876 65.4205 392.382 65.2546C391.888 65.0887 391.476 64.8411 391.229 64.5119C391.064 64.2643 390.901 64.0167 390.817 63.7692C390.735 63.3557 390.405 63.0265 389.911 63.0265H387.274C386.781 63.0265 386.368 63.44 386.45 63.9351C386.531 64.9254 386.862 65.7524 387.437 66.4977C388.096 67.3247 389.002 67.9857 390.155 68.3992C391.308 68.8127 392.626 69.0603 394.191 69.0603C395.756 69.0603 397.075 68.8944 398.146 68.3992C399.299 67.9857 400.124 67.409 400.701 66.582C401.279 65.755 401.607 64.8464 401.607 63.7718C401.607 63.0291 401.442 62.3681 401.114 61.7886C400.785 61.2092 400.373 60.7141 399.877 60.3006C399.38 59.8871 398.724 59.5579 398.065 59.2261C397.406 58.9785 396.581 58.7309 395.759 58.565L394.113 58.2358C393.7 58.1541 393.372 58.0699 393.041 57.9882C392.713 57.9066 392.382 57.7406 392.135 57.5747C391.888 57.4088 391.723 57.2455 391.557 57.0796C391.476 56.9137 391.392 56.7504 391.392 56.5002C391.392 56.2526 391.473 55.9208 391.639 55.7575C391.967 55.4283 392.217 55.2623 392.626 55.0964L392.634 55.0938Z" fill="white"/>
<path d="M394.199 51.3778C395.599 51.3778 396.836 51.6253 397.907 52.0388C398.978 52.4523 399.884 53.0291 400.462 53.8561C400.956 54.5171 401.287 55.1782 401.368 56.0052C401.45 56.5003 401.04 56.9138 400.544 56.9138H397.907C397.413 56.9138 397.166 56.5846 397.001 56.2527C396.836 55.8392 396.589 55.5917 396.26 55.3441C395.767 55.0149 395.108 54.849 394.202 54.849C393.543 54.849 393.049 54.9306 392.637 55.0965C392.224 55.2625 391.977 55.4257 391.649 55.7576C391.484 55.9235 391.402 56.2527 391.402 56.5003C391.402 56.7479 391.484 56.9138 391.568 57.0797C391.733 57.2456 391.896 57.4089 392.145 57.5748C392.392 57.7408 392.723 57.904 393.051 57.9883C393.38 58.07 393.711 58.1543 394.123 58.2359L395.769 58.5651C396.594 58.731 397.416 58.9786 398.075 59.2262C398.734 59.5554 399.393 59.8872 399.887 60.3007C400.381 60.7142 400.793 61.2093 401.124 61.7888C401.452 62.3682 401.618 63.0292 401.618 63.7719C401.618 64.8465 401.289 65.7551 400.712 66.5821C400.134 67.4091 399.312 67.9858 398.156 68.3993C397.085 68.8945 395.767 69.0604 394.202 69.0604C392.637 69.0604 391.318 68.8128 390.165 68.3993C389.013 67.9858 388.107 67.3248 387.448 66.4978C386.87 65.7551 386.542 64.9281 386.46 63.9352C386.379 63.4401 386.788 63.0266 387.285 63.0266H389.921C390.415 63.0266 390.746 63.3558 390.827 63.7693C390.909 64.0169 391.074 64.2644 391.24 64.512C391.486 64.8412 391.899 65.0914 392.392 65.2547C392.886 65.4206 393.464 65.5023 394.123 65.5023C394.782 65.5023 395.36 65.4206 395.769 65.2547C396.263 65.0888 396.594 64.8412 396.841 64.5936C397.088 64.2644 397.169 64.0142 397.169 63.685C397.169 63.3558 397.004 63.1056 396.841 62.9423C396.594 62.6947 396.263 62.5288 395.853 62.3629C395.441 62.197 394.866 62.0337 394.207 61.8678L392.148 61.4543C390.583 61.1251 389.346 60.5456 388.359 59.8029C387.371 59.0602 386.875 57.9857 386.875 56.6636C386.875 55.589 387.203 54.6804 387.862 53.8534C388.522 53.1107 389.428 52.4497 390.499 52.0362C391.57 51.6227 392.805 51.3751 394.207 51.3751M394.207 50.7114C392.802 50.7114 391.476 50.9485 390.263 51.4173C389.147 51.8492 388.146 52.5392 387.369 53.4136L387.358 53.4268L387.348 53.4399C386.586 54.396 386.213 55.4494 386.213 56.6636C386.213 58.2043 386.817 59.4737 387.96 60.335C389.084 61.1804 390.446 61.7756 392.009 62.1048L394.06 62.5157C394.761 62.6921 395.268 62.8449 395.607 62.9792C396.006 63.1398 396.226 63.2636 396.373 63.4111C396.51 63.5481 396.51 63.6508 396.51 63.685C396.51 63.8483 396.486 63.9563 396.342 64.1591C396.116 64.375 395.869 64.5252 395.562 64.6279L395.544 64.6331L395.525 64.641C395.202 64.7701 394.706 64.8412 394.123 64.8412C393.54 64.8412 393.025 64.7701 392.602 64.6279C392.224 64.5015 391.93 64.325 391.778 64.1275C391.652 63.9378 391.523 63.743 391.465 63.5876C391.295 62.8528 390.683 62.3629 389.921 62.3629H387.285C386.833 62.3629 386.41 62.5578 386.124 62.8949C385.861 63.2057 385.746 63.6113 385.804 64.0116C385.898 65.1046 386.266 66.0501 386.928 66.9008C387.697 67.8673 388.711 68.5758 389.945 69.0183C391.261 69.4897 392.652 69.7188 394.204 69.7188C396.011 69.7188 397.348 69.4923 398.409 69.0104C399.682 68.5495 400.612 67.8779 401.255 66.9587C401.946 65.9711 402.282 64.9255 402.282 63.7693C402.282 62.9133 402.088 62.1338 401.702 61.4569C401.334 60.8117 400.867 60.2507 400.315 59.7898C399.761 59.3262 399.057 58.9733 398.374 58.631L398.343 58.6151L398.311 58.602C397.55 58.3149 396.694 58.07 395.903 57.912L394.257 57.5827C393.86 57.5037 393.548 57.4247 393.217 57.3431C392.996 57.2878 392.736 57.1666 392.516 57.0218C392.356 56.9164 392.24 56.8058 392.117 56.6873C392.08 56.6109 392.067 56.5635 392.067 56.5003C392.067 56.387 392.103 56.2606 392.13 56.2159C392.39 55.9551 392.563 55.8419 392.886 55.7102C393.227 55.5732 393.648 55.51 394.207 55.51C394.95 55.51 395.499 55.6338 395.885 55.884C396.169 56.1 396.297 56.2554 396.394 56.4977L396.405 56.524L396.418 56.5477C396.757 57.2298 397.261 57.5748 397.915 57.5748H400.551C401.003 57.5748 401.426 57.3799 401.712 57.0428C401.977 56.7294 402.093 56.3212 402.033 55.9182C401.943 55.0544 401.625 54.2959 401.006 53.4663C400.402 52.6051 399.441 51.915 398.154 51.4199C396.941 50.9511 395.614 50.7141 394.21 50.7141L394.207 50.7114Z" fill="#216C58"/>
<path d="M393.87 54.0215H392.387V56.0047H393.87V54.0215Z" fill="white"/>
<path d="M393.87 61.209H392.387V63.2738H393.87V61.209Z" fill="white"/>
<path d="M393.87 67.8301H392.387V69.8133H393.87V67.8301Z" fill="white"/>
<path d="M396.176 54.459H394.692V56.4422H396.176V54.459Z" fill="white"/>
<path d="M396.176 61.209H394.692V63.2738H396.176V61.209Z" fill="white"/>
<path d="M396.178 67.8301H394.694V69.8133H396.178V67.8301Z" fill="white"/>
<path fill-rule="evenodd" clip-rule="evenodd" d="M408.368 59.7212C408.122 59.7212 407.956 59.8871 407.956 60.1346C407.297 67.4063 401.283 73.1082 393.868 73.1082C386.452 73.1082 380.438 67.4063 379.779 60.1346C379.779 59.8871 379.532 59.7212 379.367 59.7212C379.12 59.7212 378.954 59.9687 378.954 60.2163C379.613 67.9014 386.039 73.9326 393.868 73.9326C401.696 73.9326 408.122 67.9014 408.781 60.2163C408.862 59.9687 408.615 59.7212 408.368 59.7212ZM379.367 58.0698C379.613 58.0698 379.779 57.9039 379.779 57.6563C380.438 50.3847 386.452 44.767 393.868 44.767C401.283 44.767 407.297 50.469 407.956 57.6563C407.956 57.9039 408.203 58.0698 408.368 58.0698C408.615 58.0698 408.781 57.8223 408.781 57.5747C408.122 49.8896 401.696 43.8584 393.868 43.8584C386.039 43.8584 379.613 49.8896 378.954 57.5747C378.873 57.8223 379.12 58.0698 379.367 58.0698Z" fill="white"/>
<path d="M82.8929 19.3203C95.6678 19.3203 106.02 29.7065 106.02 42.5151C106.02 55.3236 95.6678 65.7098 82.8929 65.7098C70.1179 65.7098 59.7656 55.3273 59.7656 42.5151C59.7656 29.7028 70.1216 19.3203 82.8929 19.3203Z" fill="#1DA1ED"/>
<g filter="url(#filter9_i_8_51221)">
<path d="M82.793 22.853C93.6864 22.853 102.514 31.7094 102.514 42.6314C102.514 53.5533 93.6864 62.4097 82.793 62.4097C71.8997 62.4097 63.0723 53.5565 63.0723 42.6314C63.0723 31.7063 71.9029 22.853 82.793 22.853Z" fill="#178DD0"/>
</g>
<path d="M74.0615 43.2592C74.1513 42.6281 74.1513 42.2655 74.515 41.9947C74.7866 41.7239 75.148 41.8134 75.7833 41.9052C76.1446 41.9052 76.6878 41.9947 77.231 42.0865C77.7742 42.176 78.2277 42.2679 78.6788 42.4468C79.3118 42.6281 79.5834 42.8071 80.0368 43.3487C80.4903 43.8903 80.4903 44.4319 80.4903 45.4233V52.191C80.4903 52.8221 80.4903 53.1847 80.3084 53.3637C80.0368 53.4531 79.6755 53.4531 79.0402 53.4531H76.4162C75.3298 53.4531 74.8787 53.4531 74.4253 53.0929C74.0639 52.7326 73.9718 52.2805 73.8821 51.2891C73.7923 50.2954 73.7002 49.1227 73.7002 47.6792C73.7899 45.8754 73.8821 44.3401 74.0615 43.2569V43.2592Z" fill="white"/>
<path d="M91.8008 43.2592C91.7111 42.6281 91.7111 42.2655 91.3473 41.9947C91.0757 41.7239 90.7144 41.8134 90.0791 41.9052C89.7177 41.9052 89.1745 41.9947 88.6313 42.0865C88.0881 42.176 87.6346 42.2679 87.1835 42.4468C86.5506 42.6281 86.279 42.8071 85.8255 43.3487C85.3721 43.8903 85.3721 44.4319 85.3721 45.4233V52.191C85.3721 52.8221 85.3721 53.1847 85.5539 53.3637C85.7358 53.545 86.0971 53.545 86.7301 53.545H89.354C90.4404 53.545 90.8915 53.545 91.345 53.1847C91.7984 52.8244 91.7984 52.3723 91.8882 51.3809C91.9779 50.3895 92.07 49.2145 92.07 47.771C92.07 45.8754 91.9803 44.3424 91.7984 43.2592H91.8008Z" fill="white"/>
<path d="M74.0619 34.6883C74.0619 33.5156 74.0619 32.974 74.4233 32.6137C74.7846 32.2534 75.3278 32.1616 76.504 32.0721C78.1336 31.9826 80.4859 31.8013 83.0201 31.8013C85.5543 31.8013 87.9066 31.9826 89.6284 32.0721C90.7148 32.1616 91.3477 32.1616 91.7091 32.6137C92.0704 32.974 92.0704 33.6074 92.0704 34.6883V35.2299C92.0704 36.4025 92.0704 36.9441 91.7091 37.3044C91.3477 37.6647 90.8045 37.7566 89.7181 37.846C88.0885 38.0274 85.7362 38.1168 83.0201 38.1168C80.3041 38.1168 78.0415 38.0274 76.4119 37.846C75.3255 37.7566 74.7823 37.7566 74.4209 37.3939C74.0596 36.9418 74.0596 36.4002 74.0596 35.2275V34.6859L74.0619 34.6883Z" fill="white"/>
<path d="M426.814 121.344C443.487 121.344 456.999 134.86 456.999 151.529C456.999 168.197 443.487 181.714 426.814 181.714C410.14 181.714 396.629 168.202 396.629 151.529C396.629 134.855 410.145 121.344 426.814 121.344Z" fill="#282828"/>
<g filter="url(#filter10_i_8_51221)">
<path d="M426.683 125.94C440.901 125.94 452.422 137.465 452.422 151.679C452.422 165.892 440.901 177.418 426.683 177.418C412.466 177.418 400.944 165.896 400.944 151.679C400.944 137.461 412.47 125.94 426.683 125.94Z" fill="black"/>
</g>
<path d="M437.862 151.694C437.862 149.405 437.17 147.275 435.985 145.495L439.5 142.001L436.339 138.859L432.834 142.343C431.034 141.141 428.87 140.439 426.543 140.439C424.217 140.439 422.098 141.127 420.308 142.305L416.792 138.811L413.631 141.953L417.136 145.438C415.927 147.227 415.221 149.379 415.221 151.692C415.221 154.005 415.913 156.111 417.098 157.891L413.583 161.386L416.744 164.528L420.249 161.044C422.049 162.246 424.213 162.948 426.54 162.948C428.866 162.948 430.985 162.26 432.775 161.082L436.291 164.578L439.452 161.436L435.947 157.951C437.156 156.159 437.862 154.007 437.862 151.694ZM419.693 151.694C419.693 147.939 422.766 144.884 426.543 144.884C430.32 144.884 433.393 147.939 433.393 151.694C433.393 155.449 430.32 158.503 426.543 158.503C422.766 158.503 419.693 155.449 419.693 151.694Z" fill="white"/>
<defs>
<filter id="filter0_i_8_51221" x="178.311" y="109.984" width="81.8496" height="85.2109" filterUnits="userSpaceOnUse" color-interpolation-filters="sRGB">
<feFlood flood-opacity="0" result="BackgroundImageFix"/>
<feBlend mode="normal" in="SourceGraphic" in2="BackgroundImageFix" result="shape"/>
<feColorMatrix in="SourceAlpha" type="matrix" values="0 0 0 0 0 0 0 0 0 0 0 0 0 0 0 0 0 0 127 0" result="hardAlpha"/>
<feOffset dy="2.84613"/>
<feGaussianBlur stdDeviation="2.84613"/>
<feComposite in2="hardAlpha" operator="arithmetic" k2="-1" k3="1"/>
<feColorMatrix type="matrix" values="0 0 0 0 0.405556 0 0 0 0 0.405556 0 0 0 0 0.405556 0 0 0 0.15 0"/>
<feBlend mode="normal" in2="shape" result="effect1_innerShadow_8_51221"/>
</filter>
<filter id="filter1_i_8_51221" x="3.30664" y="131.517" width="39.4414" height="40.8272" filterUnits="userSpaceOnUse" color-interpolation-filters="sRGB">
<feFlood flood-opacity="0" result="BackgroundImageFix"/>
<feBlend mode="normal" in="SourceGraphic" in2="BackgroundImageFix" result="shape"/>
<feColorMatrix in="SourceAlpha" type="matrix" values="0 0 0 0 0 0 0 0 0 0 0 0 0 0 0 0 0 0 127 0" result="hardAlpha"/>
<feOffset dy="1.27053"/>
<feGaussianBlur stdDeviation="1.27053"/>
<feComposite in2="hardAlpha" operator="arithmetic" k2="-1" k3="1"/>
<feColorMatrix type="matrix" values="0 0 0 0 0.434722 0 0 0 0 0.434722 0 0 0 0 0.434722 0 0 0 0.15 0"/>
<feBlend mode="normal" in2="shape" result="effect1_innerShadow_8_51221"/>
</filter>
<filter id="filter2_d_8_51221" x="9.76857" y="139.937" width="26.7539" height="23.2226" filterUnits="userSpaceOnUse" color-interpolation-filters="sRGB">
<feFlood flood-opacity="0" result="BackgroundImageFix"/>
<feColorMatrix in="SourceAlpha" type="matrix" values="0 0 0 0 0 0 0 0 0 0 0 0 0 0 0 0 0 0 127 0" result="hardAlpha"/>
<feOffset dy="0.333003"/>
<feGaussianBlur stdDeviation="0.666006"/>
<feComposite in2="hardAlpha" operator="out"/>
<feColorMatrix type="matrix" values="0 0 0 0 0 0 0 0 0 0 0 0 0 0 0 0 0 0 0.16 0"/>
<feBlend mode="normal" in2="BackgroundImageFix" result="effect1_dropShadow_8_51221"/>
<feBlend mode="normal" in="SourceGraphic" in2="effect1_dropShadow_8_51221" result="shape"/>
</filter>
<filter id="filter3_i_8_51221" x="211.774" y="5.01074" width="56.1113" height="57.3814" filterUnits="userSpaceOnUse" color-interpolation-filters="sRGB">
<feFlood flood-opacity="0" result="BackgroundImageFix"/>
<feBlend mode="normal" in="SourceGraphic" in2="BackgroundImageFix" result="shape"/>
<feColorMatrix in="SourceAlpha" type="matrix" values="0 0 0 0 0 0 0 0 0 0 0 0 0 0 0 0 0 0 127 0" result="hardAlpha"/>
<feOffset dy="1.27053"/>
<feGaussianBlur stdDeviation="1.27053"/>
<feComposite in2="hardAlpha" operator="arithmetic" k2="-1" k3="1"/>
<feColorMatrix type="matrix" values="0 0 0 0 0.434722 0 0 0 0 0.434722 0 0 0 0 0.434722 0 0 0 0.15 0"/>
<feBlend mode="normal" in2="shape" result="effect1_innerShadow_8_51221"/>
</filter>
<filter id="filter4_d_8_51221" x="222.538" y="17.3726" width="35.122" height="32.5664" filterUnits="userSpaceOnUse" color-interpolation-filters="sRGB">
<feFlood flood-opacity="0" result="BackgroundImageFix"/>
<feColorMatrix in="SourceAlpha" type="matrix" values="0 0 0 0 0 0 0 0 0 0 0 0 0 0 0 0 0 0 127 0" result="hardAlpha"/>
<feOffset dy="0.333003"/>
<feGaussianBlur stdDeviation="0.666006"/>
<feComposite in2="hardAlpha" operator="out"/>
<feColorMatrix type="matrix" values="0 0 0 0 0 0 0 0 0 0 0 0 0 0 0 0 0 0 0.16 0"/>
<feBlend mode="normal" in2="BackgroundImageFix" result="effect1_dropShadow_8_51221"/>
<feBlend mode="normal" in="SourceGraphic" in2="effect1_dropShadow_8_51221" result="shape"/>
</filter>
<filter id="filter5_i_8_51221" x="100.502" y="106.161" width="39.4414" height="40.8272" filterUnits="userSpaceOnUse" color-interpolation-filters="sRGB">
<feFlood flood-opacity="0" result="BackgroundImageFix"/>
<feBlend mode="normal" in="SourceGraphic" in2="BackgroundImageFix" result="shape"/>
<feColorMatrix in="SourceAlpha" type="matrix" values="0 0 0 0 0 0 0 0 0 0 0 0 0 0 0 0 0 0 127 0" result="hardAlpha"/>
<feOffset dy="1.27053"/>
<feGaussianBlur stdDeviation="1.27053"/>
<feComposite in2="hardAlpha" operator="arithmetic" k2="-1" k3="1"/>
<feColorMatrix type="matrix" values="0 0 0 0 0 0 0 0 0 0 0 0 0 0 0 0 0 0 0.15 0"/>
<feBlend mode="normal" in2="shape" result="effect1_innerShadow_8_51221"/>
</filter>
<filter id="filter6_d_8_51221" x="107.2" y="113.875" width="25.913" height="25.0205" filterUnits="userSpaceOnUse" color-interpolation-filters="sRGB">
<feFlood flood-opacity="0" result="BackgroundImageFix"/>
<feColorMatrix in="SourceAlpha" type="matrix" values="0 0 0 0 0 0 0 0 0 0 0 0 0 0 0 0 0 0 127 0" result="hardAlpha"/>
<feOffset dy="0.333003"/>
<feGaussianBlur stdDeviation="0.666006"/>
<feComposite in2="hardAlpha" operator="out"/>
<feColorMatrix type="matrix" values="0 0 0 0 0 0 0 0 0 0 0 0 0 0 0 0 0 0 0.16 0"/>
<feBlend mode="normal" in2="BackgroundImageFix" result="effect1_dropShadow_8_51221"/>
<feBlend mode="normal" in="SourceGraphic" in2="effect1_dropShadow_8_51221" result="shape"/>
</filter>
<filter id="filter7_i_8_51221" x="302.971" y="92.5557" width="39.4414" height="40.8272" filterUnits="userSpaceOnUse" color-interpolation-filters="sRGB">
<feFlood flood-opacity="0" result="BackgroundImageFix"/>
<feBlend mode="normal" in="SourceGraphic" in2="BackgroundImageFix" result="shape"/>
<feColorMatrix in="SourceAlpha" type="matrix" values="0 0 0 0 0 0 0 0 0 0 0 0 0 0 0 0 0 0 127 0" result="hardAlpha"/>
<feOffset dy="1.27053"/>
<feGaussianBlur stdDeviation="1.27053"/>
<feComposite in2="hardAlpha" operator="arithmetic" k2="-1" k3="1"/>
<feColorMatrix type="matrix" values="0 0 0 0 0 0 0 0 0 0 0 0 0 0 0 0 0 0 0.15 0"/>
<feBlend mode="normal" in2="shape" result="effect1_innerShadow_8_51221"/>
</filter>
<filter id="filter8_i_8_51221" x="373.979" y="39.1494" width="39.4414" height="40.8272" filterUnits="userSpaceOnUse" color-interpolation-filters="sRGB">
<feFlood flood-opacity="0" result="BackgroundImageFix"/>
<feBlend mode="normal" in="SourceGraphic" in2="BackgroundImageFix" result="shape"/>
<feColorMatrix in="SourceAlpha" type="matrix" values="0 0 0 0 0 0 0 0 0 0 0 0 0 0 0 0 0 0 127 0" result="hardAlpha"/>
<feOffset dy="1.27053"/>
<feGaussianBlur stdDeviation="1.27053"/>
<feComposite in2="hardAlpha" operator="arithmetic" k2="-1" k3="1"/>
<feColorMatrix type="matrix" values="0 0 0 0 0 0 0 0 0 0 0 0 0 0 0 0 0 0 0.15 0"/>
<feBlend mode="normal" in2="shape" result="effect1_innerShadow_8_51221"/>
</filter>
<filter id="filter9_i_8_51221" x="63.0723" y="22.853" width="39.4414" height="41.86" filterUnits="userSpaceOnUse" color-interpolation-filters="sRGB">
<feFlood flood-opacity="0" result="BackgroundImageFix"/>
<feBlend mode="normal" in="SourceGraphic" in2="BackgroundImageFix" result="shape"/>
<feColorMatrix in="SourceAlpha" type="matrix" values="0 0 0 0 0 0 0 0 0 0 0 0 0 0 0 0 0 0 127 0" result="hardAlpha"/>
<feOffset dy="2.30333"/>
<feGaussianBlur stdDeviation="2.30333"/>
<feComposite in2="hardAlpha" operator="arithmetic" k2="-1" k3="1"/>
<feColorMatrix type="matrix" values="0 0 0 0 0.434722 0 0 0 0 0.434722 0 0 0 0 0.434722 0 0 0 0.15 0"/>
<feBlend mode="normal" in2="shape" result="effect1_innerShadow_8_51221"/>
</filter>
<filter id="filter10_i_8_51221" x="400.944" y="125.94" width="51.4775" height="53.7814" filterUnits="userSpaceOnUse" color-interpolation-filters="sRGB">
<feFlood flood-opacity="0" result="BackgroundImageFix"/>
<feBlend mode="normal" in="SourceGraphic" in2="BackgroundImageFix" result="shape"/>
<feColorMatrix in="SourceAlpha" type="matrix" values="0 0 0 0 0 0 0 0 0 0 0 0 0 0 0 0 0 0 127 0" result="hardAlpha"/>
<feOffset dy="2.30333"/>
<feGaussianBlur stdDeviation="2.30333"/>
<feComposite in2="hardAlpha" operator="arithmetic" k2="-1" k3="1"/>
<feColorMatrix type="matrix" values="0 0 0 0 0.434722 0 0 0 0 0.434722 0 0 0 0 0.434722 0 0 0 0.15 0"/>
<feBlend mode="normal" in2="shape" result="effect1_innerShadow_8_51221"/>
</filter>
<linearGradient id="paint0_linear_8_51221" x1="232.186" y1="124.974" x2="212.143" y2="176.575" gradientUnits="userSpaceOnUse">
<stop stop-color="#136A8A"/>
<stop offset="0.0001" stop-color="#1A2980"/>
<stop offset="1" stop-color="#26D0CE"/>
</linearGradient>
<linearGradient id="paint1_linear_8_51221" x1="244.502" y1="124.974" x2="213.846" y2="171.829" gradientUnits="userSpaceOnUse">
<stop stop-color="#136A8A"/>
<stop offset="0.0001" stop-color="#1A2980"/>
<stop offset="1" stop-color="#26D0CE"/>
</linearGradient>
</defs>
</svg>
