<svg width="400" height="174" viewBox="0 0 400 174" fill="none" xmlns="http://www.w3.org/2000/svg">
<path d="M191.664 89.6406C214.819 89.6406 233.582 108.529 233.582 131.822C233.582 155.116 214.819 174.004 191.664 174.004C168.51 174.004 149.746 155.123 149.746 131.822C149.746 108.522 168.516 89.6406 191.664 89.6406Z" fill="#2C324D"/>
<g filter="url(#filter0_i_8401_33007)">
<path d="M191.482 96.0625C211.226 96.0625 227.226 112.169 227.226 132.031C227.226 151.894 211.226 168 191.482 168C171.738 168 155.738 151.9 155.738 132.031C155.738 112.163 171.744 96.0625 191.482 96.0625Z" fill="#111111"/>
</g>
<path d="M185.337 130.183L181.111 136.281L169.867 120.047H178.316L185.337 130.183Z" fill="white"/>
<path d="M202.908 120.047L186.372 143.875L183.348 139.512L196.857 120.047H202.908Z" fill="url(#paint0_linear_8401_33007)"/>
<path d="M213.454 120.047L191.639 151.48L188.617 147.12L207.406 120.047H213.454Z" fill="url(#paint1_linear_8401_33007)"/>
<path d="M20.1994 111.781C31.3571 111.781 40.3988 120.853 40.3988 132.04C40.3988 143.227 31.3571 152.298 20.1994 152.298C9.0417 152.298 0 143.23 0 132.04C0 120.849 9.04494 111.781 20.1994 111.781Z" fill="#F5AC37"/>
<g filter="url(#filter1_i_8401_33007)">
<path d="M20.1109 114.867C29.6252 114.867 37.3351 122.602 37.3351 132.142C37.3351 141.681 29.6252 149.416 20.1109 149.416C10.5966 149.416 2.88672 141.684 2.88672 132.142C2.88672 122.6 10.5994 114.867 20.1109 114.867Z" fill="#E8A436"/>
</g>
<g filter="url(#filter2_d_8401_33007)">
<path d="M20.469 133.209H26.5865C26.7159 133.209 26.778 133.209 26.7883 133.038C26.8375 132.412 26.8375 131.785 26.7883 131.162C26.7883 131.04 26.7288 130.991 26.5969 130.991H14.4212C14.2712 130.991 14.2298 131.04 14.2298 131.183V132.978C14.2298 133.132 14.31 133.209 14.4704 133.209H20.4664H20.469ZM26.1054 128.889C26.1235 128.843 26.1235 128.793 26.1054 128.749C26.0045 128.526 25.883 128.313 25.7407 128.114C25.5286 127.771 25.2803 127.457 24.9957 127.175C24.8612 127.003 24.706 126.85 24.5327 126.721C23.661 125.976 22.6263 125.452 21.514 125.187C20.9527 125.06 20.3784 125.001 19.8042 125.006H14.4005C14.2505 125.006 14.2298 125.065 14.2298 125.198V128.78C14.2298 128.931 14.2298 128.972 14.4212 128.972H26.033C26.033 128.972 26.1339 128.952 26.1546 128.892H26.1054V128.889ZM26.1054 135.308C25.9347 135.289 25.7614 135.289 25.5907 135.308H14.4316C14.2816 135.308 14.2298 135.308 14.2298 135.51V139.012C14.2298 139.173 14.2298 139.215 14.4316 139.215H19.5843C19.8301 139.233 20.0758 139.215 20.3189 139.165C21.0665 139.111 21.8011 138.95 22.5021 138.68C22.7582 138.592 23.004 138.475 23.2368 138.338H23.3066C24.5146 137.707 25.495 136.719 26.1132 135.502C26.1132 135.502 26.183 135.349 26.1054 135.31V135.308ZM12.2096 141.03V135.45C12.2096 135.318 12.2096 135.3 12.0492 135.3H9.86604C9.74446 135.3 9.69531 135.3 9.69531 135.139V133.222H12.0285C12.1579 133.222 12.2096 133.222 12.2096 133.051V131.154C12.2096 131.032 12.2096 131.004 12.0492 131.004H9.86604C9.74446 131.004 9.69531 131.004 9.69531 130.843V129.068C9.69531 128.957 9.69532 128.928 9.85569 128.928H12.0182C12.1682 128.928 12.2096 128.928 12.2096 128.736V123.296C12.2096 123.135 12.2096 123.094 12.4114 123.094H19.9568C20.5052 123.115 21.0484 123.177 21.5864 123.275C22.6961 123.48 23.7619 123.877 24.7345 124.445C25.3811 124.827 25.9761 125.288 26.5038 125.818C26.9021 126.233 27.2617 126.682 27.5798 127.159C27.8954 127.644 28.1593 128.16 28.3662 128.703C28.3921 128.843 28.5266 128.939 28.6663 128.915H30.4666C30.6201 128.915 30.7003 128.99 30.7072 129.138V130.794C30.7072 130.954 30.6477 130.996 30.4847 130.996H29.0957C28.956 130.996 28.9146 130.996 28.9249 131.177C28.9793 131.792 28.9793 132.41 28.9249 133.025C28.9249 133.196 28.9249 133.217 29.1164 133.217H30.7046C30.7744 133.307 30.7046 133.398 30.7046 133.489C30.7149 133.606 30.7149 133.725 30.7046 133.842V135.064C30.7046 135.235 30.6554 135.287 30.5028 135.287H28.6016C28.4697 135.261 28.3403 135.346 28.3093 135.479C27.8566 136.659 27.1323 137.718 26.196 138.566C25.8545 138.875 25.495 139.165 25.1199 139.432C24.7164 139.666 24.3258 139.907 23.9119 140.099C23.1514 140.442 22.3547 140.696 21.5373 140.857C20.7613 140.997 19.9723 141.059 19.1834 141.049H12.1993V141.038H12.2018L12.2096 141.03Z" fill="#FEFEFD"/>
</g>
<path d="M209.592 0C225.465 0 238.328 12.8676 238.328 28.7363C238.328 44.6051 225.465 57.4727 209.592 57.4727C193.718 57.4727 180.855 44.6097 180.855 28.7363C180.855 12.863 193.723 0 209.592 0Z" fill="#50C1A2"/>
<g filter="url(#filter3_i_8401_33007)">
<path d="M209.469 4.375C223.004 4.375 233.972 15.3473 233.972 28.8787C233.972 42.4101 223.004 53.3824 209.469 53.3824C195.933 53.3824 184.965 42.414 184.965 28.8787C184.965 15.3434 195.937 4.375 209.469 4.375Z" fill="#48A58C"/>
</g>
<g filter="url(#filter4_d_8401_33007)">
<path fill-rule="evenodd" clip-rule="evenodd" d="M212.587 30.0853C212.427 30.0978 211.594 30.1479 209.738 30.1479C208.26 30.1479 207.211 30.104 206.845 30.0853C201.138 29.8348 196.88 28.8392 196.88 27.6526C196.88 26.4661 201.141 25.4705 206.845 25.2169V29.0991C207.218 29.1272 208.288 29.1898 209.763 29.1898C211.535 29.1898 212.421 29.1147 212.584 29.1022V25.2232C218.279 25.4768 222.53 26.4692 222.53 27.6558C222.53 28.8423 218.282 29.8348 212.584 30.0884H212.59L212.587 30.0853ZM212.587 24.8162V21.3441H220.536V16.0469H198.896V21.3441H206.842V24.8162C200.383 25.1136 195.527 26.3909 195.527 27.925C195.527 29.4591 200.383 30.7365 206.842 31.0339V42.1638H212.584V31.0307C219.027 30.7333 223.876 29.456 223.876 27.925C223.876 26.3941 219.03 25.1136 212.584 24.8162H212.587Z" fill="white"/>
</g>
<path d="M105.09 89.6406C116.248 89.6406 125.289 98.712 125.289 109.899C125.289 121.086 116.248 130.157 105.09 130.157C93.9323 130.157 84.8906 121.089 84.8906 109.899C84.8906 98.7087 93.9356 89.6406 105.09 89.6406Z" fill="#2F80D8"/>
<g filter="url(#filter5_i_8401_33007)">
<path d="M105.002 92.7266C114.516 92.7266 122.226 100.462 122.226 110.001C122.226 119.54 114.516 127.275 105.002 127.275C95.4873 127.275 87.7773 119.543 87.7773 110.001C87.7773 100.459 95.49 92.7266 105.002 92.7266Z" fill="#2369B4"/>
</g>
<path d="M108.659 112.074C108.659 110.098 107.477 109.421 105.114 109.14C103.426 108.915 103.089 108.463 103.089 107.673C103.089 106.883 103.652 106.375 104.777 106.375C105.789 106.375 106.353 106.713 106.634 107.56C106.692 107.73 106.859 107.843 107.028 107.843H107.928C108.153 107.843 108.322 107.673 108.322 107.448V107.39C108.098 106.15 107.085 105.19 105.791 105.077V103.722C105.791 103.497 105.622 103.327 105.34 103.27H104.497C104.273 103.27 104.104 103.439 104.046 103.722V105.02C102.358 105.245 101.289 106.375 101.289 107.785C101.289 109.648 102.413 110.381 104.777 110.663C106.353 110.946 106.859 111.284 106.859 112.186C106.859 113.089 106.071 113.709 105.001 113.709C103.538 113.709 103.032 113.089 102.862 112.241C102.805 112.016 102.638 111.904 102.468 111.904H101.511C101.287 111.904 101.117 112.074 101.117 112.299V112.356C101.342 113.767 102.242 114.782 104.099 115.064V116.42C104.099 116.645 104.269 116.815 104.55 116.872H105.393C105.618 116.872 105.787 116.702 105.844 116.42V115.064C107.532 114.782 108.657 113.597 108.657 112.074H108.659Z" fill="white"/>
<g filter="url(#filter6_d_8401_33007)">
<path d="M102.077 117.999C97.6892 116.419 95.4379 111.511 97.0708 107.165C97.9136 104.794 99.771 102.989 102.077 102.144C102.302 102.031 102.414 101.861 102.414 101.579V100.788C102.414 100.563 102.302 100.393 102.077 100.336C102.02 100.336 101.908 100.336 101.853 100.393C96.5074 102.086 93.5827 107.785 95.2706 113.146C96.2829 116.307 98.7037 118.732 101.853 119.747C102.077 119.86 102.304 119.747 102.359 119.522C102.416 119.465 102.416 119.41 102.416 119.297V118.507C102.416 118.337 102.247 118.112 102.08 117.999H102.077ZM108.041 100.393C107.817 100.281 107.59 100.393 107.535 100.618C107.478 100.676 107.478 100.731 107.478 100.844V101.634C107.478 101.859 107.647 102.086 107.815 102.199C112.203 103.779 114.454 108.688 112.821 113.033C111.978 115.404 110.121 117.209 107.815 118.055C107.59 118.167 107.478 118.337 107.478 118.62V119.41C107.478 119.635 107.59 119.805 107.815 119.862C107.872 119.862 107.984 119.862 108.039 119.805C113.384 118.112 116.309 112.413 114.621 107.052C113.609 103.836 111.133 101.409 108.039 100.393H108.041Z" fill="white"/>
</g>
<path d="M281.926 77.75C293.084 77.75 302.125 86.8214 302.125 98.0084C302.125 109.195 293.084 118.267 281.926 118.267C270.768 118.267 261.727 109.199 261.727 98.0084C261.727 86.8181 270.772 77.75 281.926 77.75Z" fill="#6B94FF"/>
<g filter="url(#filter7_i_8401_33007)">
<path d="M281.837 80.8359C291.352 80.8359 299.062 88.5711 299.062 98.1104C299.062 107.65 291.352 115.385 281.837 115.385C272.323 115.385 264.613 107.652 264.613 98.1104C264.613 88.5684 272.326 80.8359 281.837 80.8359Z" fill="#1B5AFE"/>
</g>
<path fill-rule="evenodd" clip-rule="evenodd" d="M273.895 89.8828V95.2966C276.876 95.2966 279.293 92.8728 279.293 89.8828H273.895Z" fill="white"/>
<path fill-rule="evenodd" clip-rule="evenodd" d="M279.297 106.147V95.2463C279.297 95.2005 279.297 95.1547 279.297 95.1088C279.297 95.063 279.297 95.0172 279.303 94.9713C279.303 94.9255 279.308 94.8797 279.311 94.8365C279.313 94.7907 279.319 94.7476 279.324 94.7017C279.329 94.6559 279.335 94.6127 279.34 94.5669C279.346 94.5211 279.351 94.4779 279.359 94.4321C279.364 94.3863 279.372 94.3431 279.38 94.3C279.389 94.2542 279.397 94.211 279.405 94.1679C279.413 94.1247 279.423 94.0816 279.432 94.0385C279.442 93.9953 279.453 93.9522 279.464 93.9091C279.475 93.8659 279.485 93.8228 279.499 93.7823C279.51 93.7392 279.523 93.6988 279.536 93.6556C279.55 93.6125 279.563 93.572 279.577 93.5316C279.59 93.4885 279.604 93.448 279.62 93.4076C279.636 93.3671 279.649 93.3267 279.665 93.2863C279.682 93.2458 279.698 93.2054 279.714 93.1649C279.73 93.1245 279.749 93.084 279.765 93.0463C279.784 93.0059 279.803 92.9681 279.819 92.9277C279.837 92.8872 279.856 92.8495 279.878 92.8117C279.899 92.774 279.918 92.7362 279.94 92.6985C279.961 92.6608 279.983 92.623 280.004 92.5853C280.026 92.5475 280.047 92.5098 280.071 92.4747C280.093 92.437 280.117 92.4019 280.139 92.3642C280.16 92.3264 280.184 92.2914 280.208 92.2563C280.233 92.2213 280.257 92.1862 280.281 92.1512C280.305 92.1161 280.332 92.0811 280.356 92.046C280.381 92.011 280.407 91.9786 280.434 91.9436C280.461 91.9085 280.488 91.8762 280.515 91.8438C280.542 91.8115 280.569 91.7764 280.598 91.7468C280.625 91.7144 280.655 91.6821 280.684 91.6497C280.714 91.6174 280.743 91.585 280.773 91.5553C280.803 91.5257 280.832 91.4933 280.862 91.4637C280.891 91.434 280.924 91.4017 280.953 91.3747C280.983 91.345 281.015 91.3154 281.047 91.2857C281.079 91.2561 281.112 91.2291 281.144 91.1995C281.176 91.1698 281.208 91.1428 281.241 91.1159C281.273 91.0889 281.308 91.062 281.34 91.035C281.375 91.008 281.407 90.9811 281.442 90.9568C281.477 90.9325 281.51 90.9056 281.547 90.8813C281.582 90.857 281.617 90.8328 281.652 90.8085C281.687 90.7843 281.722 90.76 281.76 90.7384C281.795 90.7168 281.832 90.6926 281.87 90.671C281.907 90.6494 281.942 90.6252 281.98 90.6036C282.018 90.582 282.055 90.5605 282.093 90.5389C282.131 90.5173 282.168 90.4985 282.206 90.4769C282.243 90.4553 282.284 90.4365 282.321 90.4176C282.359 90.3987 282.399 90.3798 282.44 90.3637C282.48 90.3448 282.518 90.3286 282.558 90.3124C282.598 90.2963 282.639 90.2801 282.679 90.2639C282.719 90.2477 282.76 90.2315 282.8 90.2181C282.84 90.2046 282.883 90.1884 282.924 90.1749C282.964 90.1614 283.007 90.148 283.047 90.1345C283.088 90.121 283.131 90.1102 283.174 90.0967C283.217 90.0833 283.26 90.0725 283.3 90.0617C283.343 90.0509 283.386 90.0401 283.429 90.0293C283.472 90.0186 283.515 90.0105 283.558 90.0024C283.601 89.9943 283.647 89.9835 283.69 89.9781C283.733 89.9727 283.778 89.9619 283.821 89.9565L283.956 89.9377C284.002 89.9323 284.045 89.9269 284.09 89.9215C284.136 89.9161 284.179 89.9134 284.225 89.908C284.27 89.9053 284.313 89.9026 284.359 89.8999C284.405 89.8972 284.451 89.8972 284.496 89.8945C284.542 89.8945 284.588 89.8945 284.633 89.8945H289.986V95.2571H284.633V106.158L279.289 106.152L279.297 106.147Z" fill="white"/>
<path d="M343.945 31.1094C355.103 31.1094 364.145 40.1807 364.145 51.3678C364.145 62.5548 355.103 71.6261 343.945 71.6261C332.788 71.6261 323.746 62.558 323.746 51.3678C323.746 40.1775 332.791 31.1094 343.945 31.1094Z" fill="#1E7860"/>
<g filter="url(#filter8_i_8401_33007)">
<path d="M343.857 34.1953C353.371 34.1953 361.081 41.9305 361.081 51.4698C361.081 61.009 353.371 68.7442 343.857 68.7442C334.343 68.7442 326.633 61.0118 326.633 51.4698C326.633 41.9277 334.346 34.1953 343.857 34.1953Z" fill="#1D5E4D"/>
</g>
<path d="M343.722 57.793H342.211V59.3089H343.722V57.793Z" fill="#216C58"/>
<path d="M346.238 57.793H344.727V59.3089H346.238V57.793Z" fill="#216C58"/>
<path d="M339.692 42.0625H349.263C349.55 42.0625 349.768 42.35 349.768 42.5686V42.8561C349.768 43.1436 349.552 43.3622 349.263 43.3622H339.692C339.405 43.3622 339.188 43.1459 339.188 42.8561V42.5686C339.188 42.3523 339.474 42.0625 339.692 42.0625Z" fill="white"/>
<path d="M344.007 43.8633V61.0395C344.007 61.327 343.791 61.5455 343.502 61.5455H343.216C342.929 61.5455 342.711 61.3293 342.711 61.0395V43.8633H344.007Z" fill="white"/>
<path d="M346.022 43.8633V61.0395C346.022 61.327 345.807 61.5455 345.518 61.5455H345.231C344.944 61.5455 344.727 61.3293 344.727 61.0395V43.8633H346.022Z" fill="white"/>
<path d="M342.93 48.1191C343.29 47.9742 343.721 47.9029 344.297 47.9029C345.088 47.9029 345.664 48.0478 346.095 48.3353C346.382 48.5515 346.6 48.7678 346.742 49.1289C346.886 49.4164 347.102 49.7063 347.533 49.7063H349.836C350.267 49.7063 350.627 49.3451 350.556 48.9127C350.485 48.1904 350.196 47.613 349.765 47.0357C349.26 46.3134 348.469 45.8096 347.533 45.4485C346.597 45.0873 345.519 44.8711 344.295 44.8711C343.07 44.8711 341.992 45.0873 341.056 45.4485C340.12 45.8096 339.329 46.387 338.753 47.0357C338.178 47.7579 337.891 48.5515 337.891 49.4901C337.891 50.6448 338.322 51.5833 339.187 52.232C340.049 52.8807 341.129 53.3867 342.496 53.6743L344.295 54.0354C344.87 54.1803 345.375 54.3229 345.733 54.4679C346.093 54.6128 346.379 54.7554 346.595 54.9739C346.74 55.1188 346.882 55.3351 346.882 55.6226C346.882 55.9101 346.811 56.1287 346.595 56.4162C346.379 56.6324 346.09 56.8487 345.659 56.9936C345.299 57.1385 344.797 57.2098 344.221 57.2098C343.646 57.2098 343.141 57.1385 342.71 56.9936C342.279 56.8487 341.918 56.6324 341.703 56.3449C341.558 56.1287 341.416 55.9124 341.343 55.6962C341.272 55.3351 340.983 55.0475 340.551 55.0475H338.249C337.818 55.0475 337.457 55.4087 337.529 55.8411C337.6 56.706 337.889 57.4283 338.391 58.0793C338.967 58.8016 339.758 59.379 340.765 59.7401C341.772 60.1012 342.923 60.3175 344.29 60.3175C345.657 60.3175 346.808 60.1726 347.744 59.7401C348.751 59.379 349.471 58.8752 349.976 58.1529C350.48 57.4306 350.767 56.637 350.767 55.6985C350.767 55.0498 350.623 54.4725 350.336 53.9664C350.049 53.4603 349.689 53.0279 349.256 52.6667C348.822 52.3056 348.249 52.0181 347.673 51.7282C347.097 51.512 346.377 51.2958 345.659 51.1509L344.221 50.8633C343.861 50.792 343.574 50.7184 343.285 50.6471C342.999 50.5758 342.71 50.4309 342.494 50.286C342.279 50.141 342.134 49.9984 341.99 49.8535C341.918 49.7086 341.845 49.566 341.845 49.3474C341.845 49.1312 341.916 48.8414 342.061 48.6988C342.347 48.4112 342.565 48.2663 342.923 48.1214L342.93 48.1191Z" fill="white"/>
<path d="M344.298 44.8749C345.521 44.8749 346.601 45.0912 347.537 45.4523C348.473 45.8135 349.264 46.3172 349.769 47.0395C350.2 47.6169 350.489 48.1942 350.56 48.9165C350.631 49.349 350.273 49.7101 349.84 49.7101H347.537C347.106 49.7101 346.89 49.4226 346.746 49.1328C346.601 48.7716 346.386 48.5554 346.099 48.3392C345.668 48.0516 345.092 47.9067 344.301 47.9067C343.725 47.9067 343.294 47.978 342.934 48.1229C342.574 48.2678 342.358 48.4105 342.071 48.7003C341.927 48.8452 341.856 49.1328 341.856 49.349C341.856 49.5652 341.927 49.7101 342 49.855C342.145 50 342.287 50.1426 342.505 50.2875C342.72 50.4324 343.009 50.575 343.296 50.6486C343.583 50.7199 343.872 50.7936 344.232 50.8649L345.67 51.1524C346.39 51.2973 347.108 51.5135 347.684 51.7298C348.259 52.0173 348.835 52.3071 349.266 52.6683C349.698 53.0294 350.058 53.4619 350.347 53.9679C350.633 54.474 350.778 55.0514 350.778 55.7001C350.778 56.6386 350.491 57.4322 349.987 58.1544C349.482 58.8767 348.764 59.3805 347.755 59.7416C346.819 60.1741 345.668 60.319 344.301 60.319C342.934 60.319 341.782 60.1028 340.775 59.7416C339.769 59.3805 338.977 58.8031 338.402 58.0808C337.897 57.4322 337.61 56.7099 337.539 55.8427C337.468 55.4102 337.826 55.0491 338.259 55.0491H340.562C340.993 55.0491 341.282 55.3366 341.353 55.6978C341.425 55.914 341.569 56.1302 341.714 56.3464C341.929 56.634 342.289 56.8525 342.72 56.9951C343.152 57.14 343.656 57.2113 344.232 57.2113C344.808 57.2113 345.312 57.14 345.67 56.9951C346.101 56.8502 346.39 56.634 346.606 56.4177C346.821 56.1302 346.892 55.9117 346.892 55.6241C346.892 55.3366 346.748 55.1181 346.606 54.9755C346.39 54.7592 346.101 54.6143 345.743 54.4694C345.383 54.3245 344.881 54.1819 344.305 54.037L342.507 53.6758C341.14 53.3883 340.06 52.8822 339.198 52.2335C338.335 51.5849 337.902 50.6463 337.902 49.4916C337.902 48.5531 338.188 47.7595 338.764 47.0372C339.34 46.3885 340.131 45.8112 341.067 45.45C342.003 45.0889 343.081 44.8726 344.305 44.8726M344.305 44.293C343.078 44.293 341.92 44.5 340.86 44.9094C339.886 45.2867 339.012 45.8894 338.333 46.6531L338.324 46.6646L338.314 46.6761C337.649 47.5111 337.324 48.4312 337.324 49.4916C337.324 50.8373 337.851 51.946 338.849 52.6982C339.831 53.4366 341.021 53.9564 342.386 54.244L344.177 54.6028C344.789 54.7569 345.232 54.8904 345.528 55.0077C345.876 55.148 346.069 55.2561 346.198 55.3849C346.317 55.5045 346.317 55.5942 346.317 55.6241C346.317 55.7668 346.296 55.8611 346.17 56.0382C345.973 56.2268 345.757 56.3579 345.489 56.4476L345.473 56.4522L345.457 56.4591C345.175 56.5719 344.741 56.634 344.232 56.634C343.723 56.634 343.273 56.5719 342.904 56.4476C342.574 56.3372 342.317 56.1831 342.184 56.0106C342.074 55.845 341.961 55.6747 341.911 55.539C341.762 54.8973 341.227 54.4694 340.562 54.4694H338.259C337.865 54.4694 337.496 54.6396 337.246 54.9341C337.016 55.2055 336.915 55.5597 336.966 55.9094C337.048 56.864 337.37 57.6898 337.948 58.4328C338.62 59.277 339.505 59.8958 340.583 60.2822C341.732 60.694 342.948 60.8941 344.303 60.8941C345.881 60.8941 347.048 60.6963 347.975 60.2753C349.087 59.8728 349.899 59.2862 350.461 58.4834C351.065 57.6208 351.358 56.7076 351.358 55.6978C351.358 54.9502 351.188 54.2693 350.851 53.6781C350.53 53.1145 350.122 52.6246 349.64 52.222C349.156 51.8172 348.542 51.5089 347.945 51.2099L347.918 51.1961L347.89 51.1846C347.225 50.9339 346.477 50.7199 345.787 50.5819L344.349 50.2944C344.003 50.2254 343.73 50.1564 343.441 50.0851C343.248 50.0368 343.021 49.931 342.828 49.8044C342.688 49.7124 342.587 49.6158 342.48 49.5123C342.448 49.4456 342.436 49.4042 342.436 49.349C342.436 49.2501 342.468 49.1397 342.491 49.1006C342.718 48.8728 342.87 48.7739 343.152 48.6589C343.45 48.5393 343.817 48.4841 344.305 48.4841C344.954 48.4841 345.434 48.5922 345.771 48.8107C346.019 48.9993 346.131 49.1351 346.216 49.3467L346.225 49.3697L346.237 49.3904C346.532 49.9862 346.973 50.2875 347.544 50.2875H349.847C350.241 50.2875 350.61 50.1173 350.86 49.8228C351.092 49.5491 351.193 49.1926 351.14 48.8406C351.062 48.0861 350.785 47.4236 350.243 46.6991C349.716 45.9469 348.876 45.3442 347.753 44.9117C346.693 44.5023 345.535 44.2953 344.308 44.2953L344.305 44.293Z" fill="#216C58"/>
<path d="M344.011 47.1836H342.715V48.9157H344.011V47.1836Z" fill="white"/>
<path d="M344.011 53.4609H342.715V55.2644H344.011V53.4609Z" fill="white"/>
<path d="M344.011 59.2461H342.715V60.9782H344.011V59.2461Z" fill="white"/>
<path d="M346.022 47.5664H344.727V49.2985H346.022V47.5664Z" fill="white"/>
<path d="M346.022 53.4609H344.727V55.2644H346.022V53.4609Z" fill="white"/>
<path d="M346.026 59.2461H344.73V60.9782H346.026V59.2461Z" fill="white"/>
<path fill-rule="evenodd" clip-rule="evenodd" d="M356.673 52.1632C356.457 52.1632 356.313 52.3081 356.313 52.5243C355.737 58.8754 350.485 63.8555 344.008 63.8555C337.531 63.8555 332.278 58.8754 331.703 52.5243C331.703 52.3081 331.487 52.1632 331.343 52.1632C331.127 52.1632 330.983 52.3794 330.983 52.5956C331.558 59.3078 337.171 64.5755 344.008 64.5755C350.845 64.5755 356.457 59.3078 357.033 52.5956C357.104 52.3794 356.889 52.1632 356.673 52.1632ZM331.343 50.7209C331.558 50.7209 331.703 50.576 331.703 50.3598C332.278 44.0087 337.531 39.1022 344.008 39.1022C350.485 39.1022 355.737 44.0823 356.313 50.3598C356.313 50.576 356.529 50.7209 356.673 50.7209C356.889 50.7209 357.033 50.5047 357.033 50.2885C356.457 43.5762 350.845 38.3086 344.008 38.3086C337.171 38.3086 331.558 43.5762 330.983 50.2885C330.911 50.5047 331.127 50.7209 331.343 50.7209Z" fill="white"/>
<path d="M72.3986 16.875C83.5563 16.875 92.598 25.9464 92.598 37.1334C92.598 48.3204 83.5563 57.3918 72.3986 57.3918C61.2409 57.3918 52.1992 48.3237 52.1992 37.1334C52.1992 25.9431 61.2442 16.875 72.3986 16.875Z" fill="#1DA1ED"/>
<g filter="url(#filter9_i_8401_33007)">
<path d="M72.3101 19.9609C81.8244 19.9609 89.5343 27.6961 89.5343 37.2354C89.5343 46.7747 81.8244 54.5099 72.3101 54.5099C62.7959 54.5099 55.0859 46.7774 55.0859 37.2354C55.0859 27.6934 62.7986 19.9609 72.3101 19.9609Z" fill="#178DD0"/>
</g>
<path d="M64.6828 37.7857C64.7612 37.2345 64.7612 36.9178 65.0788 36.6813C65.3161 36.4448 65.6317 36.5229 66.1866 36.6031C66.5022 36.6031 66.9766 36.6813 67.451 36.7615C67.9255 36.8397 68.3215 36.9199 68.7155 37.0762C69.2683 37.2345 69.5056 37.3908 69.9016 37.8639C70.2977 38.3369 70.2977 38.81 70.2977 39.6758V45.5867C70.2977 46.1379 70.2977 46.4547 70.1388 46.611C69.9016 46.6891 69.586 46.6891 69.0311 46.6891H66.7394C65.7905 46.6891 65.3965 46.6891 65.0005 46.3745C64.6849 46.0598 64.6044 45.6649 64.526 44.799C64.4476 43.9311 64.3672 42.9069 64.3672 41.6461C64.4456 40.0707 64.526 38.7298 64.6828 37.7837V37.7857Z" fill="white"/>
<path d="M80.1735 37.7857C80.0951 37.2345 80.0951 36.9178 79.7774 36.6813C79.5402 36.4448 79.2246 36.5229 78.6697 36.6031C78.3541 36.6031 77.8797 36.6813 77.4052 36.7615C76.9308 36.8397 76.5347 36.9199 76.1407 37.0762C75.5879 37.2345 75.3507 37.3908 74.9546 37.8639C74.5586 38.3369 74.5586 38.81 74.5586 39.6758V45.5867C74.5586 46.1379 74.5586 46.4547 74.7174 46.611C74.8763 46.7693 75.1919 46.7693 75.7447 46.7693H78.0364C78.9853 46.7693 79.3793 46.7693 79.7754 46.4547C80.1714 46.14 80.1714 45.7451 80.2498 44.8792C80.3282 44.0134 80.4086 42.9871 80.4086 41.7263C80.4086 40.0707 80.3302 38.7318 80.1714 37.7857H80.1735Z" fill="white"/>
<path d="M64.6817 30.2988C64.6817 29.2746 64.6817 28.8016 64.9974 28.4869C65.313 28.1722 65.7874 28.092 66.8147 28.0139C68.238 27.9357 70.2925 27.7773 72.5059 27.7773C74.7192 27.7773 76.7737 27.9357 78.2775 28.0139C79.2264 28.092 79.7792 28.092 80.0948 28.4869C80.4104 28.8016 80.4104 29.3548 80.4104 30.2988V30.7719C80.4104 31.7961 80.4104 32.2692 80.0948 32.5838C79.7792 32.8985 79.3048 32.9787 78.3559 33.0569C76.9326 33.2152 74.8781 33.2934 72.5059 33.2934C70.1337 33.2934 68.1575 33.2152 66.7342 33.0569C65.7853 32.9787 65.3109 32.9787 64.9953 32.662C64.6797 32.2671 64.6797 31.7941 64.6797 30.7698V30.2968L64.6817 30.2988Z" fill="white"/>
<path d="M372.782 105.984C387.344 105.984 399.145 117.79 399.145 132.348C399.145 146.906 387.344 158.712 372.782 158.712C358.219 158.712 346.418 146.911 346.418 132.348C346.418 117.785 358.223 105.984 372.782 105.984Z" fill="#282828"/>
<g filter="url(#filter10_i_8401_33007)">
<path d="M372.668 110C385.086 110 395.148 120.066 395.148 132.48C395.148 144.895 385.086 154.961 372.668 154.961C360.25 154.961 350.188 144.898 350.188 132.48C350.188 120.063 360.254 110 372.668 110Z" fill="black"/>
</g>
<path d="M382.432 132.494C382.432 130.495 381.828 128.634 380.793 127.08L383.862 124.028L381.102 121.284L378.041 124.327C376.469 123.278 374.578 122.664 372.546 122.664C370.514 122.664 368.664 123.265 367.1 124.294L364.029 121.242L361.269 123.987L364.33 127.03C363.274 128.593 362.657 130.472 362.657 132.493C362.657 134.513 363.261 136.352 364.296 137.906L361.227 140.959L363.987 143.704L367.048 140.661C368.62 141.71 370.511 142.323 372.543 142.323C374.575 142.323 376.425 141.723 377.989 140.694L381.06 143.747L383.821 141.003L380.759 137.959C381.815 136.394 382.432 134.514 382.432 132.494ZM366.563 132.494C366.563 129.214 369.247 126.546 372.546 126.546C375.845 126.546 378.529 129.214 378.529 132.494C378.529 135.774 375.845 138.442 372.546 138.442C369.247 138.442 366.563 135.774 366.563 132.494Z" fill="white"/>
<defs>
<filter id="filter0_i_8401_33007" x="155.738" y="96.0625" width="71.4883" height="74.4233" filterUnits="userSpaceOnUse" color-interpolation-filters="sRGB">
<feFlood flood-opacity="0" result="BackgroundImageFix"/>
<feBlend mode="normal" in="SourceGraphic" in2="BackgroundImageFix" result="shape"/>
<feColorMatrix in="SourceAlpha" type="matrix" values="0 0 0 0 0 0 0 0 0 0 0 0 0 0 0 0 0 0 127 0" result="hardAlpha"/>
<feOffset dy="2.48582"/>
<feGaussianBlur stdDeviation="2.48582"/>
<feComposite in2="hardAlpha" operator="arithmetic" k2="-1" k3="1"/>
<feColorMatrix type="matrix" values="0 0 0 0 0.405556 0 0 0 0 0.405556 0 0 0 0 0.405556 0 0 0 0.15 0"/>
<feBlend mode="normal" in2="shape" result="effect1_innerShadow_8401_33007"/>
</filter>
<filter id="filter1_i_8401_33007" x="2.88672" y="114.867" width="34.4492" height="35.6605" filterUnits="userSpaceOnUse" color-interpolation-filters="sRGB">
<feFlood flood-opacity="0" result="BackgroundImageFix"/>
<feBlend mode="normal" in="SourceGraphic" in2="BackgroundImageFix" result="shape"/>
<feColorMatrix in="SourceAlpha" type="matrix" values="0 0 0 0 0 0 0 0 0 0 0 0 0 0 0 0 0 0 127 0" result="hardAlpha"/>
<feOffset dy="1.10968"/>
<feGaussianBlur stdDeviation="1.10968"/>
<feComposite in2="hardAlpha" operator="arithmetic" k2="-1" k3="1"/>
<feColorMatrix type="matrix" values="0 0 0 0 0.434722 0 0 0 0 0.434722 0 0 0 0 0.434722 0 0 0 0.15 0"/>
<feBlend mode="normal" in2="shape" result="effect1_innerShadow_8401_33007"/>
</filter>
<filter id="filter2_d_8401_33007" x="8.53193" y="122.221" width="23.3658" height="20.2838" filterUnits="userSpaceOnUse" color-interpolation-filters="sRGB">
<feFlood flood-opacity="0" result="BackgroundImageFix"/>
<feColorMatrix in="SourceAlpha" type="matrix" values="0 0 0 0 0 0 0 0 0 0 0 0 0 0 0 0 0 0 127 0" result="hardAlpha"/>
<feOffset dy="0.290846"/>
<feGaussianBlur stdDeviation="0.581692"/>
<feComposite in2="hardAlpha" operator="out"/>
<feColorMatrix type="matrix" values="0 0 0 0 0 0 0 0 0 0 0 0 0 0 0 0 0 0 0.16 0"/>
<feBlend mode="normal" in2="BackgroundImageFix" result="effect1_dropShadow_8401_33007"/>
<feBlend mode="normal" in="SourceGraphic" in2="effect1_dropShadow_8401_33007" result="shape"/>
</filter>
<filter id="filter3_i_8401_33007" x="184.965" y="4.375" width="49.0078" height="50.1175" filterUnits="userSpaceOnUse" color-interpolation-filters="sRGB">
<feFlood flood-opacity="0" result="BackgroundImageFix"/>
<feBlend mode="normal" in="SourceGraphic" in2="BackgroundImageFix" result="shape"/>
<feColorMatrix in="SourceAlpha" type="matrix" values="0 0 0 0 0 0 0 0 0 0 0 0 0 0 0 0 0 0 127 0" result="hardAlpha"/>
<feOffset dy="1.10968"/>
<feGaussianBlur stdDeviation="1.10968"/>
<feComposite in2="hardAlpha" operator="arithmetic" k2="-1" k3="1"/>
<feColorMatrix type="matrix" values="0 0 0 0 0.434722 0 0 0 0 0.434722 0 0 0 0 0.434722 0 0 0 0.15 0"/>
<feBlend mode="normal" in2="shape" result="effect1_innerShadow_8401_33007"/>
</filter>
<filter id="filter4_d_8401_33007" x="194.364" y="15.1743" width="30.6744" height="28.444" filterUnits="userSpaceOnUse" color-interpolation-filters="sRGB">
<feFlood flood-opacity="0" result="BackgroundImageFix"/>
<feColorMatrix in="SourceAlpha" type="matrix" values="0 0 0 0 0 0 0 0 0 0 0 0 0 0 0 0 0 0 127 0" result="hardAlpha"/>
<feOffset dy="0.290846"/>
<feGaussianBlur stdDeviation="0.581692"/>
<feComposite in2="hardAlpha" operator="out"/>
<feColorMatrix type="matrix" values="0 0 0 0 0 0 0 0 0 0 0 0 0 0 0 0 0 0 0.16 0"/>
<feBlend mode="normal" in2="BackgroundImageFix" result="effect1_dropShadow_8401_33007"/>
<feBlend mode="normal" in="SourceGraphic" in2="effect1_dropShadow_8401_33007" result="shape"/>
</filter>
<filter id="filter5_i_8401_33007" x="87.7773" y="92.7266" width="34.4492" height="35.6605" filterUnits="userSpaceOnUse" color-interpolation-filters="sRGB">
<feFlood flood-opacity="0" result="BackgroundImageFix"/>
<feBlend mode="normal" in="SourceGraphic" in2="BackgroundImageFix" result="shape"/>
<feColorMatrix in="SourceAlpha" type="matrix" values="0 0 0 0 0 0 0 0 0 0 0 0 0 0 0 0 0 0 127 0" result="hardAlpha"/>
<feOffset dy="1.10968"/>
<feGaussianBlur stdDeviation="1.10968"/>
<feComposite in2="hardAlpha" operator="arithmetic" k2="-1" k3="1"/>
<feColorMatrix type="matrix" values="0 0 0 0 0 0 0 0 0 0 0 0 0 0 0 0 0 0 0.15 0"/>
<feBlend mode="normal" in2="shape" result="effect1_innerShadow_8401_33007"/>
</filter>
<filter id="filter6_d_8401_33007" x="93.6296" y="99.4634" width="22.6315" height="21.8541" filterUnits="userSpaceOnUse" color-interpolation-filters="sRGB">
<feFlood flood-opacity="0" result="BackgroundImageFix"/>
<feColorMatrix in="SourceAlpha" type="matrix" values="0 0 0 0 0 0 0 0 0 0 0 0 0 0 0 0 0 0 127 0" result="hardAlpha"/>
<feOffset dy="0.290846"/>
<feGaussianBlur stdDeviation="0.581692"/>
<feComposite in2="hardAlpha" operator="out"/>
<feColorMatrix type="matrix" values="0 0 0 0 0 0 0 0 0 0 0 0 0 0 0 0 0 0 0.16 0"/>
<feBlend mode="normal" in2="BackgroundImageFix" result="effect1_dropShadow_8401_33007"/>
<feBlend mode="normal" in="SourceGraphic" in2="effect1_dropShadow_8401_33007" result="shape"/>
</filter>
<filter id="filter7_i_8401_33007" x="264.613" y="80.8359" width="34.4492" height="35.6605" filterUnits="userSpaceOnUse" color-interpolation-filters="sRGB">
<feFlood flood-opacity="0" result="BackgroundImageFix"/>
<feBlend mode="normal" in="SourceGraphic" in2="BackgroundImageFix" result="shape"/>
<feColorMatrix in="SourceAlpha" type="matrix" values="0 0 0 0 0 0 0 0 0 0 0 0 0 0 0 0 0 0 127 0" result="hardAlpha"/>
<feOffset dy="1.10968"/>
<feGaussianBlur stdDeviation="1.10968"/>
<feComposite in2="hardAlpha" operator="arithmetic" k2="-1" k3="1"/>
<feColorMatrix type="matrix" values="0 0 0 0 0 0 0 0 0 0 0 0 0 0 0 0 0 0 0.15 0"/>
<feBlend mode="normal" in2="shape" result="effect1_innerShadow_8401_33007"/>
</filter>
<filter id="filter8_i_8401_33007" x="326.633" y="34.1953" width="34.4492" height="35.6605" filterUnits="userSpaceOnUse" color-interpolation-filters="sRGB">
<feFlood flood-opacity="0" result="BackgroundImageFix"/>
<feBlend mode="normal" in="SourceGraphic" in2="BackgroundImageFix" result="shape"/>
<feColorMatrix in="SourceAlpha" type="matrix" values="0 0 0 0 0 0 0 0 0 0 0 0 0 0 0 0 0 0 127 0" result="hardAlpha"/>
<feOffset dy="1.10968"/>
<feGaussianBlur stdDeviation="1.10968"/>
<feComposite in2="hardAlpha" operator="arithmetic" k2="-1" k3="1"/>
<feColorMatrix type="matrix" values="0 0 0 0 0 0 0 0 0 0 0 0 0 0 0 0 0 0 0.15 0"/>
<feBlend mode="normal" in2="shape" result="effect1_innerShadow_8401_33007"/>
</filter>
<filter id="filter9_i_8401_33007" x="55.0859" y="19.9609" width="34.4492" height="36.5625" filterUnits="userSpaceOnUse" color-interpolation-filters="sRGB">
<feFlood flood-opacity="0" result="BackgroundImageFix"/>
<feBlend mode="normal" in="SourceGraphic" in2="BackgroundImageFix" result="shape"/>
<feColorMatrix in="SourceAlpha" type="matrix" values="0 0 0 0 0 0 0 0 0 0 0 0 0 0 0 0 0 0 127 0" result="hardAlpha"/>
<feOffset dy="2.01173"/>
<feGaussianBlur stdDeviation="2.01173"/>
<feComposite in2="hardAlpha" operator="arithmetic" k2="-1" k3="1"/>
<feColorMatrix type="matrix" values="0 0 0 0 0.434722 0 0 0 0 0.434722 0 0 0 0 0.434722 0 0 0 0.15 0"/>
<feBlend mode="normal" in2="shape" result="effect1_innerShadow_8401_33007"/>
</filter>
<filter id="filter10_i_8401_33007" x="350.188" y="110" width="44.9609" height="46.9727" filterUnits="userSpaceOnUse" color-interpolation-filters="sRGB">
<feFlood flood-opacity="0" result="BackgroundImageFix"/>
<feBlend mode="normal" in="SourceGraphic" in2="BackgroundImageFix" result="shape"/>
<feColorMatrix in="SourceAlpha" type="matrix" values="0 0 0 0 0 0 0 0 0 0 0 0 0 0 0 0 0 0 127 0" result="hardAlpha"/>
<feOffset dy="2.01173"/>
<feGaussianBlur stdDeviation="2.01173"/>
<feComposite in2="hardAlpha" operator="arithmetic" k2="-1" k3="1"/>
<feColorMatrix type="matrix" values="0 0 0 0 0.434722 0 0 0 0 0.434722 0 0 0 0 0.434722 0 0 0 0.15 0"/>
<feBlend mode="normal" in2="shape" result="effect1_innerShadow_8401_33007"/>
</filter>
<linearGradient id="paint0_linear_8401_33007" x1="202.794" y1="109.158" x2="185.289" y2="154.226" gradientUnits="userSpaceOnUse">
<stop stop-color="#136A8A"/>
<stop offset="0.0001" stop-color="#1A2980"/>
<stop offset="1" stop-color="#26D0CE"/>
</linearGradient>
<linearGradient id="paint1_linear_8401_33007" x1="213.55" y1="109.158" x2="186.774" y2="150.081" gradientUnits="userSpaceOnUse">
<stop stop-color="#136A8A"/>
<stop offset="0.0001" stop-color="#1A2980"/>
<stop offset="1" stop-color="#26D0CE"/>
</linearGradient>
</defs>
</svg>
