<svg xmlns="http://www.w3.org/2000/svg" width="102" height="103" viewBox="0 0 102 103" fill="none">
  <path d="M89.4081 24.6905C82.9933 24.6905 77.8136 19.5108 77.8136 13.0961C77.8136 12.0601 77.973 10.9844 78.2519 9.98828H49.6043C48.4887 9.98828 47.5723 10.9047 47.5723 12.0203V76.4868C47.5723 77.6024 48.4887 78.5188 49.6043 78.5188H93.6315C94.7472 78.5188 95.6636 77.6024 95.6636 76.4868V22.8577C93.7909 24.053 91.6393 24.6905 89.4081 24.6905Z" fill="#EDF4FC"/>
  <path d="M47.573 14.0078C47.4136 14.0078 47.2542 14.0078 47.1347 14.0078C45.5808 14.0078 44.0667 14.4461 42.712 15.2429C41.1581 12.6133 38.3292 11.0195 35.3011 11.0195H30.8785C22.2722 11.0594 15.2996 18.032 15.2598 26.6381V33.6107C16.6543 32.4951 18.4074 32.017 20.1605 32.2959V31.5787C20.1605 31.1404 20.5191 30.7818 20.9574 30.7818H21.1168C23.866 31.3396 31.9941 32.3357 37.5324 25.403C37.8113 25.0444 38.3292 25.0045 38.6878 25.2834C38.7277 25.2834 38.7277 25.3233 38.7675 25.3233C39.8831 26.4389 42.6324 28.5107 47.573 29.1084V14.0078Z" fill="#818182"/>
  <path d="M47.5738 29.114C42.5933 28.5164 39.8839 26.4445 38.7683 25.3289C38.4496 25.0102 37.9316 25.0102 37.6129 25.3289C37.573 25.3687 37.573 25.3687 37.573 25.4086C32.0347 32.3413 23.9066 31.3851 21.1574 30.7874C20.7191 30.7078 20.2809 30.9867 20.2012 31.4249V31.5843V43.7365C20.241 52.0638 26.9746 58.8371 35.3019 58.8371C40.1628 58.8371 44.7449 56.4465 47.5738 52.502V29.114Z" fill="#F9D0B4"/>
  <path d="M82.0793 85.1078H81.2027V84.1914C81.2027 83.5141 80.6449 82.9961 80.0074 82.9961C79.3301 82.9961 78.8121 83.5539 78.8121 84.1914V85.0679H77.9355C77.2582 85.0679 76.7402 85.6258 76.7402 86.2632C76.7402 86.9406 77.298 87.4585 77.9355 87.4585H78.8121V88.3351C78.8121 89.0124 79.3699 89.5304 80.0074 89.5304C80.6848 89.5304 81.2027 88.9726 81.2027 88.3351V87.4585H82.0793C82.7566 87.4585 83.2746 86.9007 83.2746 86.2632C83.3144 85.6258 82.7566 85.1078 82.0793 85.1078Z" fill="#70D6F9"/>
  <path d="M22.3922 4.72575C23.0963 4.72575 23.6672 4.15492 23.6672 3.45077C23.6672 2.74661 23.0963 2.17578 22.3922 2.17578C21.688 2.17578 21.1172 2.74661 21.1172 3.45077C21.1172 4.15492 21.688 4.72575 22.3922 4.72575Z" fill="#70D6F9"/>
  <path d="M96.1031 87.1867C96.8073 87.1867 97.3781 86.6159 97.3781 85.9117C97.3781 85.2075 96.8073 84.6367 96.1031 84.6367C95.399 84.6367 94.8281 85.2075 94.8281 85.9117C94.8281 86.6159 95.399 87.1867 96.1031 87.1867Z" fill="#F5C84C"/>
  <path d="M75.7828 95.9523C76.487 95.9523 77.0578 95.3815 77.0578 94.6773C77.0578 93.9732 76.487 93.4023 75.7828 93.4023C75.0786 93.4023 74.5078 93.9732 74.5078 94.6773C74.5078 95.3815 75.0786 95.9523 75.7828 95.9523Z" fill="#87D147"/>
  <path d="M17.6508 11.2219C16.057 10.943 14.8219 9.70789 14.5031 8.154C14.5031 8.11416 14.4633 8.07432 14.4234 8.11416C14.3836 8.11416 14.3836 8.154 14.3836 8.154C14.0648 9.74774 12.8297 10.943 11.2359 11.2219C11.1961 11.2219 11.1562 11.2618 11.1562 11.3016C11.1562 11.3415 11.1961 11.3415 11.2359 11.3813C12.8297 11.6602 14.0648 12.8954 14.3836 14.4492C14.3836 14.4891 14.4234 14.5289 14.4633 14.4891C14.5031 14.4891 14.5031 14.4492 14.5031 14.4492C14.8219 12.8555 16.057 11.6602 17.6508 11.3813C17.6906 11.3813 17.7305 11.3415 17.7305 11.3016C17.7305 11.2618 17.6906 11.2219 17.6508 11.2219Z" fill="#F5C84C"/>
  <path d="M18.6469 55.2492C17.5711 55.05 16.6945 54.2133 16.4555 53.1375C16.4555 53.0977 16.4156 53.0977 16.4156 53.0977C16.3758 53.0977 16.3758 53.0977 16.3758 53.1375C16.1367 54.2133 15.3 55.05 14.1844 55.2492C14.1445 55.2492 14.1445 55.289 14.1445 55.289C14.1445 55.3289 14.1445 55.3289 14.1844 55.3289C15.2602 55.5281 16.1367 56.3648 16.3758 57.4406C16.3758 57.4804 16.4156 57.4804 16.4156 57.4804C16.4555 57.4804 16.4555 57.4804 16.4555 57.4406C16.6945 56.3648 17.5312 55.5281 18.6469 55.3289C18.6867 55.3289 18.6469 55.289 18.6469 55.2492C18.6469 55.289 18.6469 55.289 18.6469 55.2492Z" fill="#FC657E"/>
  <path d="M20.2007 43.7396V32.3046C16.7741 31.7468 13.5069 34.0975 12.9491 37.5241C12.3913 40.9506 14.7421 44.2177 18.1686 44.7755C18.846 44.8951 19.5632 44.8951 20.2405 44.7755C20.2007 44.4169 20.2007 44.0982 20.2007 43.7396Z" fill="#F9D0B4"/>
  <path d="M68.0141 78.4748H49.6063C48.4907 78.4748 47.5743 77.5584 47.5743 76.4428V64.4101L45.4626 63.3742C43.7891 62.5374 42.7532 60.864 42.7532 58.9914V56.8398C40.4821 58.1547 37.9321 58.832 35.3024 58.832C32.6728 58.832 30.1228 58.1547 27.8517 56.8398V58.9914C27.8517 60.864 26.8157 62.5374 25.1423 63.3742L21.5962 65.1273C20.7197 65.5655 19.8033 65.8843 18.847 66.1233L7.69079 68.9124C4.98142 69.5897 3.02908 71.9803 2.86971 74.7693L0.997059 98.5558C0.877528 100.03 1.99315 101.345 3.46737 101.464H3.66658H66.9383C68.4125 101.464 69.6477 100.269 69.6477 98.755C69.6477 98.6753 69.6477 98.5956 69.6477 98.5558L68.0141 78.4748Z" fill="#70D6F9"/>
  <path d="M47.5746 64.4491L45.4628 63.4132C43.7894 62.5765 42.7535 60.9031 42.7535 59.0304V56.8789C40.4824 58.1937 37.9324 58.8711 35.3027 58.8711C32.673 58.8711 30.123 58.1937 27.8519 56.8789V59.0304C27.8519 60.9031 26.816 62.5765 25.1426 63.4132L22.5527 64.6882C25.3019 69.071 30.123 71.7405 35.3027 71.7405C40.1636 71.7405 44.7457 69.3499 47.5746 65.4054V64.4491Z" fill="#F9D0B4"/>
  <path d="M35.2997 51.6134C32.5505 51.6134 30.0005 50.2189 28.5661 47.908C28.2872 47.4299 28.4068 46.8322 28.8849 46.5135C29.363 46.1947 29.9607 46.3541 30.2794 46.8322C32.0325 49.6213 35.6982 50.458 38.4872 48.7049C39.2442 48.2267 39.8817 47.5893 40.3599 46.8322C40.6388 46.3541 41.2763 46.2346 41.7544 46.5135C42.2325 46.7924 42.3521 47.4299 42.0731 47.908C40.5989 50.1791 38.0489 51.6134 35.2997 51.6134Z" fill="black"/>
  <path d="M28.8066 40.9882C29.7969 40.9882 30.5996 40.1855 30.5996 39.1953C30.5996 38.2051 29.7969 37.4023 28.8066 37.4023C27.8164 37.4023 27.0137 38.2051 27.0137 39.1953C27.0137 40.1855 27.8164 40.9882 28.8066 40.9882Z" fill="black"/>
  <path d="M42.1152 40.9882C43.1055 40.9882 43.9082 40.1855 43.9082 39.1953C43.9082 38.2051 43.1055 37.4023 42.1152 37.4023C41.125 37.4023 40.3223 38.2051 40.3223 39.1953C40.3223 40.1855 41.125 40.9882 42.1152 40.9882Z" fill="black"/>
  <path d="M19.2043 45.8452C15.1801 45.8452 11.873 42.6178 11.873 38.5538C11.873 34.4898 15.1004 31.2227 19.1644 31.2227C19.5629 31.2227 19.9613 31.2625 20.3597 31.3023C20.8379 31.382 21.1965 31.7805 21.1965 32.2984V43.7335C21.1965 44.0124 21.1965 44.3311 21.2363 44.6897C21.2761 45.2077 20.9176 45.6459 20.3996 45.7256C20.0012 45.8053 19.6027 45.8452 19.2043 45.8452ZM19.2043 33.2148C16.2558 33.2148 13.9051 35.6054 13.9051 38.514C13.9051 41.4624 16.2957 43.8131 19.2043 43.8131C19.2043 43.7733 19.2043 43.7335 19.2043 43.6936V33.2148Z" fill="black"/>
  <path d="M66.9373 102.505H3.70546C1.67343 102.505 0 100.871 0 98.7993C0 98.7196 0 98.6001 0 98.5204L1.87265 74.7339C2.03203 71.5066 4.30311 68.7973 7.45076 68.0004L18.607 65.2114C19.4835 64.9723 20.3203 64.6934 21.157 64.295L24.7031 62.5419C26.0179 61.9044 26.8945 60.5497 26.8546 59.0755V56.924C26.8546 56.3661 27.2929 55.9279 27.8507 55.9279C28.0101 55.9279 28.2093 55.9677 28.3288 56.0474C32.632 58.5177 37.9312 58.5177 42.2343 56.0474C42.7124 55.7685 43.3101 55.9279 43.589 56.406C43.6686 56.5654 43.7085 56.7247 43.7085 56.8841V59.0356C43.7085 60.5098 44.5452 61.8645 45.86 62.502L47.9718 63.5379C48.3303 63.6973 48.5296 64.0559 48.5296 64.4145V76.4472C48.5296 77.005 48.9678 77.4831 49.5655 77.4831H67.9733C68.4912 77.4831 68.9295 77.8815 68.9694 78.3995L70.5631 98.5204C70.7225 100.552 69.2084 102.345 67.1764 102.505C67.0967 102.505 67.017 102.505 66.9373 102.505ZM28.8468 58.5177V59.0356C28.8468 61.2669 27.5718 63.3387 25.5796 64.295L22.0335 66.0481C21.1171 66.5262 20.121 66.8848 19.0851 67.1238L7.92889 69.9129C5.61795 70.4707 3.98436 72.4628 3.86483 74.8534L1.99218 98.6797C1.9125 99.5961 2.62968 100.433 3.54608 100.513H3.66562H66.9373C67.8936 100.513 68.6506 99.7555 68.6506 98.7993C68.6506 98.7594 68.6506 98.7196 68.6506 98.6797L67.1366 79.4753H49.6452C47.9718 79.4753 46.6171 78.1206 46.6171 76.4472V65.052L45.0632 64.295C43.0311 63.2989 41.796 61.2669 41.796 59.0356V58.5177C37.6523 60.3106 32.9507 60.3106 28.8468 58.5177Z" fill="black"/>
  <path d="M35.3013 72.7417C29.763 72.7417 24.6232 69.9129 21.7146 65.2512C21.4357 64.7731 21.5552 64.1754 22.0333 63.8567C22.0732 63.8567 22.113 63.8168 22.113 63.8168L24.7029 62.5419C26.0177 61.9044 26.8943 60.5497 26.8544 59.0755V56.924C26.8544 56.3661 27.2927 55.9279 27.8505 55.9279C28.0099 55.9279 28.2091 55.9677 28.3286 56.0474C32.6317 58.5177 37.931 58.5177 42.2341 56.0474C42.7122 55.7685 43.3098 55.9279 43.5888 56.406C43.6684 56.5654 43.7083 56.7247 43.7083 56.8841V59.0356C43.7083 60.5098 44.545 61.8645 45.8598 62.502L47.9716 63.5379C48.3301 63.6973 48.5294 64.0559 48.5294 64.4145V65.3309C48.5294 65.5301 48.4497 65.7293 48.3301 65.9285C45.3817 70.1918 40.5208 72.7019 35.3013 72.7417ZM24.0255 65.052C28.6474 71.2675 37.4927 72.5824 43.7083 67.9207C44.7841 67.1238 45.7802 66.1278 46.577 65.052L45.0231 64.295C42.9911 63.2989 41.7559 61.2669 41.7559 59.0356V58.5177C37.6521 60.3505 32.9505 60.3505 28.8466 58.5177V59.0356C28.8466 61.2669 27.5716 63.3387 25.5794 64.295L24.0255 65.052Z" fill="black"/>
  <path d="M89.409 24.6849C95.8124 24.6849 101.003 19.4939 101.003 13.0905C101.003 6.68709 95.8124 1.49609 89.409 1.49609C83.0055 1.49609 77.8145 6.68709 77.8145 13.0905C77.8145 19.4939 83.0055 24.6849 89.409 24.6849Z" fill="#87D147"/>
  <path d="M86.8598 17.8245L83.3137 14.2784C82.5168 13.5214 82.5168 12.2464 83.2738 11.4496C84.0309 10.6527 85.3059 10.6527 86.1027 11.4097L86.1426 11.4496L88.2941 13.6011L92.7965 9.09882C93.5535 8.30195 94.8285 8.30195 95.6254 9.05898C96.4222 9.816 96.4222 11.091 95.6652 11.8879L95.6254 11.9277L89.7285 17.8245C88.8918 18.6214 87.6566 18.6214 86.8598 17.8245Z" fill="#EDF4FC"/>
  <path d="M89.4089 25.6849C82.4762 25.6849 76.8184 20.067 76.8184 13.0944C76.8184 6.12181 82.4762 0.503906 89.4089 0.503906C96.3417 0.503906 102 6.12181 102 13.0944C102 20.0271 96.3417 25.6849 89.4089 25.6849ZM89.4089 2.49607C83.5519 2.49607 78.8105 7.23743 78.8105 13.0944C78.8105 18.9514 83.5519 23.6927 89.4089 23.6927C95.266 23.6927 100.007 18.9514 100.007 13.0944C100.007 7.23743 95.266 2.49607 89.4089 2.49607Z" fill="black"/>
  <path d="M88.2946 19.4382C87.4977 19.4382 86.7407 19.1195 86.1829 18.5617L82.6368 15.0156C81.4415 13.8602 81.4016 11.9875 82.5571 10.7922C83.7126 9.59693 85.5852 9.55709 86.7805 10.7125C86.8204 10.7524 86.8602 10.7922 86.8602 10.7922L88.2946 12.2266L92.0797 8.44148C93.2352 7.24618 95.1079 7.20634 96.3032 8.36179C97.4985 9.51725 97.5383 11.3899 96.3829 12.5852C96.343 12.625 96.343 12.625 96.3032 12.6649L90.4063 18.5617C89.8485 19.1195 89.0915 19.4382 88.2946 19.4382ZM87.5774 17.1672C87.7766 17.3664 88.0157 17.4461 88.2946 17.4461C88.5735 17.4461 88.8126 17.3265 89.0118 17.1672L94.9086 11.2704C95.3071 10.8719 95.3071 10.2344 94.9086 9.87584C94.5102 9.51725 93.9126 9.51725 93.5141 9.87584L89.0118 14.3781C88.6133 14.7766 87.9758 14.7766 87.6173 14.3781L85.4657 12.2266C85.0673 11.868 84.4696 11.868 84.0712 12.2266C83.6727 12.625 83.6727 13.2625 84.0712 13.6211L87.5774 17.1672Z" fill="black"/>
  <path d="M93.6315 79.4711H49.6043C47.9309 79.4711 46.5762 78.1164 46.5762 76.443V12.0164C46.5762 10.343 47.9309 8.98828 49.6043 8.98828H78.2519C78.8097 8.98828 79.248 9.42656 79.248 9.98436C79.248 10.0641 79.248 10.1836 79.2081 10.2633C77.6542 15.8812 80.9214 21.7381 86.5792 23.292C89.4878 24.0889 92.5956 23.6506 95.1456 22.017C95.6237 21.7381 96.2214 21.8577 96.5401 22.3358C96.6596 22.4952 96.6995 22.6944 96.6995 22.8538V76.4828C96.6596 78.1164 95.305 79.4711 93.6315 79.4711ZM49.6043 10.9804C49.0465 10.9804 48.5684 11.4187 48.5684 12.0164V76.4828C48.5684 77.0407 49.0066 77.5188 49.6043 77.5188H93.6315C94.1893 77.5188 94.6675 77.0805 94.6675 76.4828V24.5272C88.3722 27.4357 80.8816 24.6865 77.973 18.3515C76.8972 16.0405 76.5784 13.4906 77.0167 10.9804H49.6043Z" fill="black"/>
  <path d="M15.2598 34.6263C14.702 34.6263 14.2637 34.188 14.2637 33.6302V26.6576C14.2637 17.4937 21.7144 10.0828 30.8785 10.043H35.3011C38.3691 10.043 41.198 11.5172 43.0308 13.9476C44.4652 13.2703 46.0589 12.9515 47.6128 13.0312C48.1308 13.0711 48.5691 13.5093 48.5691 14.0273V29.0881C48.5691 29.6459 48.1308 30.0842 47.573 30.0842C47.5331 30.0842 47.4933 30.0842 47.4534 30.0842C42.4331 29.4865 39.5245 27.4545 38.2097 26.1795C32.4324 33.3115 23.9855 32.3951 21.1965 31.8373V32.3154C21.1965 32.8732 20.7582 33.3115 20.2004 33.3115C20.1605 33.3115 20.0808 33.3115 20.041 33.3115C19.7621 33.2716 19.4832 33.2318 19.2043 33.2318C18.009 33.2318 16.8137 33.6302 15.8973 34.3872C15.7379 34.5466 15.4988 34.6263 15.2598 34.6263ZM30.8785 12.0351C22.8301 12.0351 16.2957 18.5694 16.2559 26.6576V31.8771C17.1723 31.4787 18.1684 31.2396 19.2043 31.2795C19.4035 30.2834 20.3598 29.6857 21.316 29.8849C24.3043 30.4427 31.7152 31.1998 36.7753 24.8248C37.4128 24.028 38.5285 23.9084 39.3253 24.5459C39.3652 24.5858 39.405 24.6256 39.4847 24.6655C40.4808 25.6615 42.6722 27.2951 46.6167 27.9725V15.0632C45.4214 15.1429 44.2659 15.5015 43.2699 16.139C42.7917 16.4179 42.1941 16.2585 41.9152 15.7804C40.5206 13.4695 38.0503 12.075 35.3808 12.0351H30.8785Z" fill="black"/>
  <path d="M35.3019 59.8709C26.4168 59.8709 19.2051 52.6593 19.2051 43.7742V31.5821C19.2051 31.0243 19.4441 30.5064 19.8824 30.1876C20.3207 29.829 20.8785 29.7095 21.3965 29.829C24.3051 30.4267 31.716 31.1837 36.7761 24.8088C37.4136 24.0119 38.5292 23.8924 39.3261 24.5299C39.366 24.5697 39.4058 24.6096 39.4855 24.6494C40.5613 25.7252 43.0714 27.5978 47.7331 28.1556C48.2511 28.2353 48.6097 28.6337 48.6097 29.1517V52.5796C48.6097 52.7788 48.53 52.978 48.4105 53.1772C45.3824 57.3209 40.4816 59.8311 35.3019 59.8709ZM21.1973 31.8212V43.7344C21.1973 51.5436 27.4926 57.8389 35.3019 57.8389C39.7644 57.8389 43.948 55.7272 46.6175 52.1811V29.9486C42.1152 29.2314 39.4855 27.3588 38.2503 26.1635C32.4332 33.2954 23.9863 32.379 21.1973 31.8212Z" fill="black"/>
  <path d="M78.6914 29.707H64.7461C64.1883 29.707 63.75 29.2687 63.75 28.7109C63.75 28.1531 64.1883 27.7148 64.7461 27.7148H78.6914C79.2492 27.7148 79.6875 28.1531 79.6875 28.7109C79.6875 29.2687 79.2492 29.707 78.6914 29.707Z" fill="black"/>
  <path d="M86.8206 37.6758H61.002C60.4441 37.6758 60.0059 37.2375 60.0059 36.6797C60.0059 36.1219 60.4441 35.6836 61.002 35.6836H86.8206C87.3784 35.6836 87.8167 36.1219 87.8167 36.6797C87.8167 37.2375 87.3784 37.6758 86.8206 37.6758Z" fill="black"/>
  <path d="M86.8206 42.7226H61.002C60.4441 42.7226 60.0059 42.2844 60.0059 41.7266C60.0059 41.1687 60.4441 40.7305 61.002 40.7305H86.8206C87.3784 40.7305 87.8167 41.1687 87.8167 41.7266C87.8167 42.2844 87.3784 42.7226 86.8206 42.7226Z" fill="black"/>
  <path d="M86.8206 47.8008H61.002C60.4441 47.8008 60.0059 47.3625 60.0059 46.8047C60.0059 46.2469 60.4441 45.8086 61.002 45.8086H86.8206C87.3784 45.8086 87.8167 46.2469 87.8167 46.8047C87.8167 47.3625 87.3784 47.8008 86.8206 47.8008Z" fill="black"/>
  <path d="M86.8206 52.8554H61.002C60.4441 52.8554 60.0059 52.4172 60.0059 51.8594C60.0059 51.3016 60.4441 50.8633 61.002 50.8633H86.8206C87.3784 50.8633 87.8167 51.3016 87.8167 51.8594C87.8167 52.3773 87.3784 52.8554 86.8206 52.8554Z" fill="black"/>
  <path d="M86.8206 57.8945H61.002C60.4441 57.8945 60.0059 57.4562 60.0059 56.8984C60.0059 56.3406 60.4441 55.9023 61.002 55.9023H86.8206C87.3784 55.9023 87.8167 56.3406 87.8167 56.8984C87.8167 57.4562 87.3784 57.8945 86.8206 57.8945Z" fill="black"/>
  <path d="M86.8206 62.9414H61.002C60.4441 62.9414 60.0059 62.5031 60.0059 61.9453C60.0059 61.3875 60.4441 60.9492 61.002 60.9492H86.8206C87.3784 60.9492 87.8167 61.3875 87.8167 61.9453C87.8167 62.5031 87.3784 62.9414 86.8206 62.9414Z" fill="black"/>
  <path d="M56.5383 37.6758H55.7812C55.2234 37.6758 54.7852 37.2375 54.7852 36.6797C54.7852 36.1219 55.2234 35.6836 55.7812 35.6836H56.5383C57.0961 35.6836 57.5344 36.1219 57.5344 36.6797C57.5344 37.2375 57.0961 37.6758 56.5383 37.6758Z" fill="black"/>
  <path d="M56.5383 42.7226H55.7812C55.2234 42.7226 54.7852 42.2844 54.7852 41.7266C54.7852 41.1687 55.2234 40.7305 55.7812 40.7305H56.5383C57.0961 40.7305 57.5344 41.1687 57.5344 41.7266C57.5344 42.2844 57.0961 42.7226 56.5383 42.7226Z" fill="black"/>
  <path d="M56.5383 47.8008H55.7812C55.2234 47.8008 54.7852 47.3625 54.7852 46.8047C54.7852 46.2469 55.2234 45.8086 55.7812 45.8086H56.5383C57.0961 45.8086 57.5344 46.2469 57.5344 46.8047C57.5344 47.3625 57.0961 47.8008 56.5383 47.8008Z" fill="black"/>
  <path d="M56.5383 52.8554H55.7812C55.2234 52.8554 54.7852 52.4172 54.7852 51.8594C54.7852 51.3016 55.2234 50.8633 55.7812 50.8633H56.5383C57.0961 50.8633 57.5344 51.3016 57.5344 51.8594C57.5344 52.3773 57.0961 52.8554 56.5383 52.8554Z" fill="black"/>
  <path d="M56.5383 57.8945H55.7812C55.2234 57.8945 54.7852 57.4562 54.7852 56.8984C54.7852 56.3406 55.2234 55.9023 55.7812 55.9023H56.5383C57.0961 55.9023 57.5344 56.3406 57.5344 56.8984C57.5344 57.4562 57.0961 57.8945 56.5383 57.8945Z" fill="black"/>
  <path d="M56.5383 62.9414H55.7812C55.2234 62.9414 54.7852 62.5031 54.7852 61.9453C54.7852 61.3875 55.2234 60.9492 55.7812 60.9492H56.5383C57.0961 60.9492 57.5344 61.3875 57.5344 61.9453C57.5344 62.5031 57.0961 62.9414 56.5383 62.9414Z" fill="black"/>
  <path d="M13.1484 101.304C12.5906 101.304 12.1523 100.866 12.1523 100.308V84.9687C12.1523 84.4109 12.5906 83.9727 13.1484 83.9727C13.7062 83.9727 14.1445 84.4109 14.1445 84.9687V100.308C14.1445 100.866 13.7062 101.304 13.1484 101.304Z" fill="black"/>
  <path d="M57.7734 101.304C57.2156 101.304 56.7773 100.866 56.7773 100.308V84.9687C56.7773 84.4109 57.2156 83.9727 57.7734 83.9727C58.3312 83.9727 58.7695 84.4109 58.7695 84.9687V100.308C58.7695 100.866 58.3312 101.304 57.7734 101.304Z" fill="black"/>
</svg>