<svg xmlns="http://www.w3.org/2000/svg" width="23" height="23" viewBox="0 0 23 23" fill="none">
  <path fill-rule="evenodd" clip-rule="evenodd" d="M10.7628 5.6363C11.9758 5.53278 13.1949 5.74612 14.3007 6.25541C15.4064 6.7647 16.3609 7.55248 17.0707 8.54158V7.14824C17.0707 6.97349 17.1401 6.8059 17.2637 6.68233C17.3872 6.55876 17.5548 6.48935 17.7296 6.48935C17.9043 6.48935 18.0719 6.55876 18.1955 6.68233C18.319 6.8059 18.3885 6.97349 18.3885 7.14824V10.882H14.6547C14.48 10.882 14.3124 10.8126 14.1888 10.689C14.0652 10.5654 13.9958 10.3978 13.9958 10.2231C13.9958 10.0483 14.0652 9.88074 14.1888 9.75717C14.3124 9.63361 14.48 9.56419 14.6547 9.56419H16.1719C15.5711 8.62408 14.7081 7.88057 13.6894 7.42549C12.6707 6.97042 11.5411 6.82372 10.44 7.00351C9.33886 7.18331 8.31454 7.68173 7.49354 8.43719C6.67253 9.19266 6.09082 10.1721 5.82026 11.2545C5.8003 11.3395 5.76364 11.4197 5.7124 11.4904C5.66117 11.5612 5.59638 11.621 5.52181 11.6665C5.44725 11.7119 5.36438 11.7421 5.27804 11.7553C5.1917 11.7684 5.10361 11.7643 5.01889 11.7431C4.93416 11.7219 4.85449 11.6841 4.78452 11.6318C4.71455 11.5796 4.65566 11.5139 4.61128 11.4387C4.56691 11.3635 4.53793 11.2802 4.52604 11.1936C4.51414 11.1071 4.51957 11.0191 4.542 10.9347C4.8974 9.51361 5.68795 8.23909 6.80314 7.28929C7.91834 6.33948 9.30244 5.76186 10.762 5.63717L10.7628 5.6363ZM7.77586 18.6842C8.71762 19.2424 9.77677 19.5728 10.8689 19.6493C11.961 19.7257 13.0558 19.5459 14.0661 19.1243C15.0765 18.7026 15.9743 18.0508 16.6881 17.2208C17.402 16.3908 17.912 15.4054 18.1776 14.3434C18.2172 14.1749 18.1888 13.9976 18.0987 13.8498C18.0086 13.702 17.864 13.5956 17.6961 13.5536C17.5282 13.5116 17.3505 13.5374 17.2014 13.6253C17.0523 13.7132 16.9438 13.8563 16.8994 14.0236C16.6286 15.1058 16.0469 16.0849 15.226 16.8402C14.4051 17.5955 13.3809 18.0938 12.28 18.2735C11.179 18.4533 10.0496 18.3067 9.03102 17.8518C8.01247 17.397 7.14946 16.6537 6.54855 15.7139H8.06577C8.24052 15.7139 8.40811 15.6445 8.53168 15.5209C8.65525 15.3973 8.72466 15.2297 8.72466 15.055C8.72466 14.8802 8.65525 14.7126 8.53168 14.5891C8.40811 14.4655 8.24052 14.3961 8.06577 14.3961H4.33203V18.1298C4.33203 18.3046 4.40145 18.4722 4.52502 18.5957C4.64858 18.7193 4.81618 18.7887 4.99093 18.7887C5.16568 18.7887 5.33327 18.7193 5.45684 18.5957C5.5804 18.4722 5.64982 18.3046 5.64982 18.1298V16.7365C6.21628 17.5257 6.94019 18.1888 7.77586 18.6842Z" fill="black"/>
</svg>