<svg xmlns="http://www.w3.org/2000/svg" width="14" height="14" viewBox="0 0 14 14" fill="none">
  <path d="M7.09127 1.29248C6.2614 1.29248 5.52302 1.81523 5.24858 2.59935H1.21034V3.90622H2.48454L0.556908 8.48027C0.249793 9.78715 1.21034 10.4406 2.84393 10.4406C4.47752 10.4406 5.49688 9.78715 5.13096 8.48027L3.20332 3.90622H5.24204C5.45768 4.46164 5.88241 4.88638 6.43783 5.10201V12.4009H0.556908V13.7078H13.6256V12.4009H7.7447V5.09548C8.30012 4.88638 8.72485 4.46164 8.93395 3.90622H10.9792L9.05157 8.48027C8.74446 9.78715 9.70501 10.4406 11.3386 10.4406C12.9722 10.4406 13.9915 9.78715 13.6256 8.48027L11.698 3.90622H12.9722V2.59935H8.94049C8.65951 1.81523 7.92113 1.29248 7.09127 1.29248ZM7.09127 2.59935C7.26457 2.59935 7.43077 2.6682 7.55331 2.79074C7.67586 2.91328 7.7447 3.07949 7.7447 3.25279C7.7447 3.42609 7.67586 3.59229 7.55331 3.71484C7.43077 3.83738 7.26457 3.90622 7.09127 3.90622C6.91796 3.90622 6.75176 3.83738 6.62922 3.71484C6.50667 3.59229 6.43783 3.42609 6.43783 3.25279C6.43783 3.07949 6.50667 2.91328 6.62922 2.79074C6.75176 2.6682 6.91796 2.59935 7.09127 2.59935ZM2.84393 6.02989L3.82409 8.48027H1.86378L2.84393 6.02989ZM11.3386 6.02989L12.3188 8.48027H10.3584L11.3386 6.02989Z" fill="black"/>
</svg>