<svg xmlns="http://www.w3.org/2000/svg" width="22" height="22" viewBox="0 0 22 22" fill="none">
  <path d="M8.80251 13.1952L20.4264 1.57129M8.80251 13.1952L12.501 20.5922C12.5474 20.6934 12.6218 20.7791 12.7155 20.8392C12.8091 20.8993 12.9181 20.9313 13.0294 20.9313C13.1407 20.9313 13.2496 20.8993 13.3433 20.8392C13.4369 20.7791 13.5114 20.6934 13.5577 20.5922L20.4264 1.57129M8.80251 13.1952L1.40548 9.49668C1.3043 9.45031 1.21857 9.37588 1.15846 9.28222C1.09836 9.18856 1.06641 9.07961 1.06641 8.96832C1.06641 8.85703 1.09836 8.74808 1.15846 8.65442C1.21857 8.56076 1.3043 8.48632 1.40548 8.43996L20.4264 1.57129" stroke="black" stroke-width="2.11344" stroke-linecap="round" stroke-linejoin="round"/>
</svg>