<svg width="14" height="14" viewBox="0 0 14 14" fill="none" xmlns="http://www.w3.org/2000/svg">
<g clip-path="url(#clip0_816_8593)">
<path d="M9.10714 10.2148V11.5006C9.10714 11.8416 8.97168 12.1686 8.73057 12.4097C8.48945 12.6508 8.16242 12.7863 7.82143 12.7863H2.03571C1.69472 12.7863 1.3677 12.6508 1.12658 12.4097C0.885459 12.1686 0.75 11.8416 0.75 11.5006V2.50056C0.75 2.15957 0.885459 1.83254 1.12658 1.59142C1.3677 1.3503 1.69472 1.21484 2.03571 1.21484H7.82143C8.16242 1.21484 8.48945 1.3503 8.73057 1.59142C8.97168 1.83254 9.10714 2.15957 9.10714 2.50056V3.78627H7.82143V2.50056H2.03571V11.5006H7.82143V10.2148H9.10714ZM10.7143 3.46484L9.80529 4.37384L11.7891 6.3577H5.25V7.64341H11.7891L9.80529 9.62727L10.7143 10.5363L14.25 7.00056L10.7143 3.46484Z" fill="#DC412A"/>
</g>
<defs>
<clipPath id="clip0_816_8593">
<rect width="14" height="14" fill="white"/>
</clipPath>
</defs>
</svg>
