<svg xmlns="http://www.w3.org/2000/svg" width="70" height="69" viewBox="0 0 70 69" fill="none">
<path d="M42.5107 57.7287H44.6173C44.9012 57.7287 45.1583 57.8993 45.2665 58.1619C45.3755 58.4246 45.315 58.7265 45.1141 58.9273L39.4928 64.5447C39.3557 64.6817 39.1759 64.7505 38.996 64.7505C38.8161 64.7505 38.6362 64.6817 38.4992 64.5447L32.8779 58.9273C32.6769 58.7265 32.6165 58.4246 32.7254 58.1619C32.8343 57.8993 33.0908 57.7287 33.3747 57.7287H35.4813V54.2178C35.4813 53.8295 35.796 53.5156 36.1839 53.5156H41.808C42.1966 53.5156 42.5107 53.8295 42.5107 54.2178V57.7287Z" fill="black"/>
<path d="M52.11 45.3252H45.4476C46.8432 44.3918 48.0593 43.1479 48.9811 41.6223C50.6128 38.9206 51.0893 35.7494 50.3221 32.6919C49.8107 30.6531 48.7873 28.8285 47.3568 27.3576L47.2493 26.6696C46.8257 23.9564 46.2984 20.5804 46.1084 19.0796C45.9215 17.6061 45.1247 16.2553 43.9223 15.374L34.9134 8.77208C33.4405 7.69238 31.6939 7.09804 29.8621 7.05277C23.8318 6.90379 19.2797 6.56635 17.3102 6.12467L17.2556 6.09361L17.4865 5.71143C18.0572 4.76701 17.7491 3.5357 16.7998 2.9661L13.1668 0.789848C12.7062 0.513473 12.1646 0.432929 11.6426 0.561904C11.12 0.690879 10.6795 1.01516 10.4026 1.47368L0.80075 17.3687C0.229488 18.3136 0.53762 19.5449 1.4869 20.1135L5.11989 22.2897C5.43756 22.4803 5.79334 22.5782 6.15494 22.5782C6.31801 22.5782 6.48266 22.5582 6.64467 22.5182C6.76168 22.4892 6.87445 22.4503 6.98245 22.4024L9.32415 26.0416C10.599 27.9978 12.4023 29.5392 14.5386 30.4994L19.2871 32.6335L27.0746 37.285C27.5659 40.5863 29.393 43.4669 32.1699 45.3252H25.698C24.7143 45.3252 23.9138 46.1211 23.9138 47.0992V49.295C23.9138 50.2731 24.7143 51.069 25.698 51.069H52.11C53.0937 51.069 53.8937 50.2731 53.8937 49.295V47.0992C53.8942 46.1206 53.0937 45.3252 52.11 45.3252ZM6.31166 20.2835C6.30477 20.2956 6.29736 20.3072 6.29048 20.3193L6.1523 20.5483L2.55371 18.3926L12.1349 2.5318L15.7335 4.68752L6.31166 20.2835ZM25.5149 32.793L24.9812 33.6764L20.283 30.8705C20.2491 30.85 20.2141 30.8321 20.1781 30.8158L15.3761 28.6574C13.5956 27.8567 12.0931 26.5722 11.0337 24.9466L8.36799 20.8052L16.2084 7.82662L16.4276 7.95138C16.5107 7.99876 16.6002 8.03456 16.6929 8.05667C19.4639 8.72734 26.102 8.9816 29.8118 9.0732C31.2243 9.10847 32.5712 9.56699 33.7068 10.3993L42.7157 17.0012C43.4723 17.5555 43.9737 18.4052 44.0912 19.3322C44.2506 20.5915 44.6381 23.1141 45.0077 25.4872C44.978 25.4693 44.9489 25.4514 44.9192 25.4341C43.3341 24.4876 41.5626 23.9295 39.7477 23.7864L38.4977 20.8194C38.4268 20.652 38.3119 20.5062 38.1652 20.3983L34.6296 17.793C34.3856 17.6129 34.0737 17.5513 33.7783 17.6245L24.8292 19.845C24.7435 19.866 24.6609 19.8987 24.5836 19.9413C23.2356 20.6825 22.3695 22.594 22.73 24.0306L22.7385 24.0638C22.9593 24.9434 23.5093 25.6836 24.2871 26.1484C25.3931 26.8086 27.3996 28.0062 29.1658 29.0612C29.3734 29.1854 29.5809 29.3228 29.7864 29.4728L29.7885 29.4739C29.816 29.4965 29.8446 29.5176 29.8737 29.5365C31.9343 31.0732 33.8095 33.7911 34.2315 35.9616C34.3776 36.7144 34.3173 37.3135 34.0616 37.6493C34.0393 37.6783 34.0192 37.7083 34.0001 37.7393C33.7439 38.1631 33.4792 38.2326 33.2536 38.2447C33.0922 38.2537 32.9053 38.2268 32.702 38.1673C33.4898 36.2627 32.7808 34.0138 30.9527 32.922L29.204 31.8776C27.9323 31.1184 26.2783 31.5296 25.5149 32.793ZM37.5558 23.8164C37.2848 23.8448 37.0137 23.8832 36.7437 23.9306C34.2633 24.3681 31.9952 25.5746 30.2655 27.3608C30.2475 27.3497 30.23 27.3392 30.212 27.3287C28.4458 26.2737 26.4393 25.0756 25.3333 24.4154C25.0209 24.2291 24.7996 23.9301 24.7106 23.5753L24.7027 23.5426C24.5709 23.0178 24.9722 22.1207 25.4741 21.7686L33.8048 19.7013L36.7299 21.857L37.5558 23.8164ZM26.7241 34.7171L27.2578 33.8338C27.4436 33.5258 27.847 33.4258 28.1567 33.6106L29.9055 34.6555C30.8008 35.1898 31.183 36.2548 30.8902 37.2055L26.7241 34.7171ZM29.5132 38.7411L30.7706 39.4923L30.7716 39.4929L30.8198 39.5218C31.65 40.0177 32.4462 40.2683 33.189 40.2683C33.2467 40.2683 33.3045 40.2667 33.3611 40.2636C34.0033 40.2299 34.5714 40.0077 35.0426 39.6118C35.1893 40.4878 36.6261 41.4407 38.5041 41.487V41.9429C38.5041 42.155 38.7502 42.3503 39.0616 42.3503C39.34 42.3503 39.6185 42.1545 39.6185 41.9429V41.438C41.4535 41.1448 42.7152 39.9877 42.7152 37.9836C42.7152 35.7679 41.0766 35.0345 39.6185 34.4971V31.6296C40.716 31.7112 41.093 32.2324 41.552 32.2324C42.1582 32.2324 42.4203 31.4827 42.4203 31.1079C42.4203 30.163 40.6837 29.8534 39.6185 29.8208V29.3976C39.6185 29.1854 39.3395 28.9901 39.0616 28.9901C38.7502 28.9901 38.5041 29.1859 38.5041 29.3976V29.8534C36.8654 30.0656 35.3253 30.9616 35.3253 33.031V33.0468C34.5121 31.4238 33.2827 29.815 31.9046 28.5869C33.314 27.2039 35.1252 26.269 37.0989 25.921C37.7305 25.8094 38.3669 25.761 39.0001 25.7731C39.0229 25.7741 39.0462 25.7747 39.069 25.7741C40.752 25.8184 42.4081 26.2927 43.872 27.1671C44.5147 27.5508 45.104 27.9994 45.6324 28.5032C45.671 28.5484 45.7139 28.59 45.76 28.6274C47.0142 29.8687 47.9095 31.4296 48.3489 33.181C48.9848 35.7147 48.5904 38.3426 47.2376 40.581C44.4465 45.202 38.3945 46.7034 33.7471 43.9275C31.7289 42.7225 30.2544 40.8947 29.5132 38.7411ZM38.5046 36.3059V39.5481C37.1095 39.3902 36.6039 38.3937 36.0083 38.3295C36.3577 37.5825 36.434 36.6454 36.2269 35.5789C36.1904 35.3904 36.1454 35.1993 36.0925 35.0061C36.722 35.6405 37.6458 35.9869 38.5046 36.3059ZM37.3245 32.8188C37.3245 32.1997 37.8163 31.8086 38.6354 31.6786V34.1386C37.8814 33.8453 37.3245 33.5358 37.3245 32.8188ZM39.4872 39.5318V36.6965C40.1919 37.006 40.7166 37.3972 40.7166 38.1958C40.7166 38.9612 40.2083 39.385 39.4872 39.5318ZM51.8607 49.0476H25.9469V47.3467H51.8607V49.0476Z" fill="black"/>
<path d="M65.5424 38.25H53.0662C52.505 38.25 52.0497 38.7022 52.0497 39.2607C52.0497 39.8188 52.505 40.2715 53.0662 40.2715H65.5424C66.8284 40.2715 67.8751 41.3117 67.8751 42.5909V63.9197C67.8751 65.1989 66.8284 66.2392 65.5424 66.2392H12.0772C10.7907 66.2392 9.74397 65.1989 9.74397 63.9197V42.5909C9.74397 41.3117 10.7907 40.2715 12.0772 40.2715H24.5423C25.1035 40.2715 25.5588 39.8188 25.5588 39.2607C25.5588 38.7022 25.1035 38.25 24.5423 38.25H12.0772C9.66985 38.25 7.71094 40.1973 7.71094 42.5909V63.9197C7.71094 66.3134 9.66985 68.2612 12.0772 68.2612H65.5424C67.9497 68.2612 69.9081 66.3134 69.9081 63.9197V42.5909C69.9081 40.1973 67.9497 38.25 65.5424 38.25Z" fill="black"/>
</svg>