<svg xmlns="http://www.w3.org/2000/svg" width="14" height="14" viewBox="0 0 14 14" fill="none">
  <g clip-path="url(#clip0_157_7681)">
    <path d="M6.57843 0.778775C6.65081 0.654581 6.75448 0.551535 6.87911 0.479915C7.00374 0.408295 7.14497 0.370605 7.28871 0.370605C7.43245 0.370605 7.57368 0.408295 7.69831 0.479915C7.82294 0.551535 7.92661 0.654581 7.99899 0.778775L9.83716 3.93424L13.407 4.70766C13.5474 4.73817 13.6773 4.80496 13.7839 4.90136C13.8905 4.99776 13.9699 5.12041 14.0143 5.25708C14.0587 5.39375 14.0664 5.53967 14.0368 5.68029C14.0073 5.8209 13.9413 5.95131 13.8456 6.0585L11.4123 8.78188L11.7806 12.4155C11.7951 12.5586 11.7718 12.7029 11.7131 12.8342C11.6544 12.9655 11.5622 13.0791 11.4459 13.1636C11.3295 13.2481 11.193 13.3007 11.05 13.3159C10.9071 13.3312 10.7625 13.3087 10.631 13.2507L7.28871 11.7775L3.94646 13.2507C3.81488 13.3087 3.67037 13.3312 3.52737 13.3159C3.38437 13.3007 3.24788 13.2481 3.13154 13.1636C3.01519 13.0791 2.92305 12.9655 2.86432 12.8342C2.8056 12.7029 2.78234 12.5586 2.79687 12.4155L3.16516 8.78188L0.731805 6.05915C0.635936 5.95197 0.569859 5.82152 0.540171 5.68081C0.510483 5.54011 0.518223 5.39408 0.562617 5.2573C0.607012 5.12052 0.686508 4.99779 0.793169 4.90134C0.899831 4.80489 1.02993 4.73811 1.17047 4.70766L4.74026 3.93424L6.57843 0.778775Z" fill="black"/>
  </g>
  <defs>
    <clipPath id="clip0_157_7681">
      <rect width="14" height="14" rx="2" fill="white"/>
    </clipPath>
  </defs>
</svg>