<svg xmlns="http://www.w3.org/2000/svg" width="22" height="22" viewBox="0 0 22 22" fill="none">
  <g clip-path="url(#clip0_610_12388)">
    <path fill-rule="evenodd" clip-rule="evenodd" d="M18.129 4.0608C18.3555 3.96546 18.6035 3.93258 18.847 3.96558C19.0906 3.99857 19.3208 4.09625 19.5138 4.24843C19.7068 4.40061 19.8555 4.60174 19.9443 4.83088C20.0332 5.06002 20.0591 5.30879 20.0192 5.5513L17.9402 18.1619C17.7385 19.3783 16.4038 20.0759 15.2883 19.47C14.3551 18.963 12.9691 18.182 11.7224 17.3671C11.0991 16.9592 9.18967 15.653 9.42434 14.7235C9.62601 13.9287 12.8343 10.9422 14.6677 9.16663C15.3873 8.46905 15.0591 8.06663 14.2093 8.7083C12.0992 10.3015 8.71117 12.7242 7.591 13.4062C6.60284 14.0075 6.08767 14.1102 5.47167 14.0075C4.34784 13.8205 3.30559 13.5309 2.45492 13.178C1.30542 12.7013 1.36134 11.121 2.45401 10.6608L18.129 4.0608Z" fill="white"/>
  </g>
  <defs>
    <clipPath id="clip0_610_12388">
      <rect width="22" height="22" fill="white"/>
    </clipPath>
  </defs>
</svg>