<svg width="43" height="40" viewBox="0 0 43 40" fill="none" xmlns="http://www.w3.org/2000/svg">
<g filter="url(#filter0_d_1_4)">
<rect x="4.89404" y="4" width="31.6765" height="30" rx="10" fill="#62C669"/>
</g>
<path d="M20.5588 9C23.3592 9 26.0449 10.0536 28.025 11.9289C30.0052 13.8043 31.1176 16.3478 31.1176 19C31.1176 21.6522 30.0052 24.1957 28.025 26.0711C26.0449 27.9464 23.3592 29 20.5588 29C17.7584 29 15.0728 27.9464 13.0926 26.0711C11.1124 24.1957 10 21.6522 10 19C10 16.3478 11.1124 13.8043 13.0926 11.9289C15.0728 10.0536 17.7584 9 20.5588 9ZM19.2435 20.9729L16.8979 18.75C16.8138 18.6704 16.714 18.6072 16.6041 18.5641C16.4943 18.521 16.3765 18.4988 16.2576 18.4988C16.1387 18.4988 16.0209 18.521 15.9111 18.5641C15.8012 18.6072 15.7014 18.6704 15.6173 18.75C15.4475 18.9108 15.3521 19.129 15.3521 19.3564C15.3521 19.5839 15.4475 19.802 15.6173 19.9629L18.6039 22.7914C18.6878 22.8715 18.7875 22.935 18.8974 22.9783C19.0073 23.0217 19.1252 23.044 19.2443 23.044C19.3633 23.044 19.4812 23.0217 19.5911 22.9783C19.701 22.935 19.8007 22.8715 19.8846 22.7914L26.069 16.9329C26.1542 16.8536 26.222 16.759 26.2685 16.6548C26.3149 16.5506 26.3391 16.4386 26.3397 16.3255C26.3402 16.2123 26.3171 16.1002 26.2717 15.9956C26.2263 15.8909 26.1594 15.7958 26.075 15.7158C25.9906 15.6357 25.8902 15.5723 25.7798 15.5291C25.6694 15.486 25.551 15.464 25.4315 15.4644C25.312 15.4648 25.1938 15.4876 25.0837 15.5314C24.9736 15.5753 24.8737 15.6394 24.7899 15.72L19.2435 20.9729Z" fill="white"/>
<defs>
<filter id="filter0_d_1_4" x="0.894043" y="0" width="41.6765" height="40" filterUnits="userSpaceOnUse" color-interpolation-filters="sRGB">
<feFlood flood-opacity="0" result="BackgroundImageFix"/>
<feColorMatrix in="SourceAlpha" type="matrix" values="0 0 0 0 0 0 0 0 0 0 0 0 0 0 0 0 0 0 127 0" result="hardAlpha"/>
<feOffset dx="1" dy="1"/>
<feGaussianBlur stdDeviation="2.5"/>
<feComposite in2="hardAlpha" operator="out"/>
<feColorMatrix type="matrix" values="0 0 0 0 0.242555 0 0 0 0 0.491667 0 0 0 0 0.259994 0 0 0 0.36 0"/>
<feBlend mode="normal" in2="BackgroundImageFix" result="effect1_dropShadow_1_4"/>
<feBlend mode="normal" in="SourceGraphic" in2="effect1_dropShadow_1_4" result="shape"/>
</filter>
</defs>
</svg>
