<svg width="40" height="41" viewBox="0 0 40 41" fill="none" xmlns="http://www.w3.org/2000/svg">
<path d="M20 0C31.0476 0 40 9.01198 40 20.1258C40 31.2396 31.0476 40.2516 20 40.2516C8.95244 40.2516 0 31.2428 0 20.1258C0 9.00875 8.95565 0 20 0Z" fill="#2C324D"/>
<g filter="url(#filter0_i_6048_241194)">
<path d="M19.9135 3.06445C29.3339 3.06445 36.9677 10.749 36.9677 20.2259C36.9677 29.7027 29.3339 37.3873 19.9135 37.3873C10.4932 37.3873 2.85938 29.7054 2.85938 20.2259C2.85938 10.7463 10.4959 3.06445 19.9135 3.06445Z" fill="#111111"/>
</g>
<path d="M16.9798 19.3428L14.9631 22.2526L9.59863 14.5068H13.6297L16.9798 19.3428Z" fill="white"/>
<path d="M25.3631 14.5068L17.4732 25.8756L16.0303 23.7943L22.4761 14.5068H25.3631Z" fill="url(#paint0_linear_6048_241194)"/>
<path d="M30.3961 14.5068L19.9877 29.5043L18.5459 27.4241L27.5103 14.5068H30.3961Z" fill="url(#paint1_linear_6048_241194)"/>
<defs>
<filter id="filter0_i_6048_241194" x="2.85938" y="3.06445" width="34.1084" height="35.5093" filterUnits="userSpaceOnUse" color-interpolation-filters="sRGB">
<feFlood flood-opacity="0" result="BackgroundImageFix"/>
<feBlend mode="normal" in="SourceGraphic" in2="BackgroundImageFix" result="shape"/>
<feColorMatrix in="SourceAlpha" type="matrix" values="0 0 0 0 0 0 0 0 0 0 0 0 0 0 0 0 0 0 127 0" result="hardAlpha"/>
<feOffset dy="1.18603"/>
<feGaussianBlur stdDeviation="1.18603"/>
<feComposite in2="hardAlpha" operator="arithmetic" k2="-1" k3="1"/>
<feColorMatrix type="matrix" values="0 0 0 0 0.405556 0 0 0 0 0.405556 0 0 0 0 0.405556 0 0 0 0.15 0"/>
<feBlend mode="normal" in2="shape" result="effect1_innerShadow_6048_241194"/>
</filter>
<linearGradient id="paint0_linear_6048_241194" x1="25.3084" y1="9.31139" x2="16.9563" y2="30.8146" gradientUnits="userSpaceOnUse">
<stop stop-color="#136A8A"/>
<stop offset="0.0001" stop-color="#1A2980"/>
<stop offset="1" stop-color="#26D0CE"/>
</linearGradient>
<linearGradient id="paint1_linear_6048_241194" x1="30.4417" y1="9.31139" x2="17.6664" y2="28.8366" gradientUnits="userSpaceOnUse">
<stop stop-color="#136A8A"/>
<stop offset="0.0001" stop-color="#1A2980"/>
<stop offset="1" stop-color="#26D0CE"/>
</linearGradient>
</defs>
</svg>
