<svg xmlns="http://www.w3.org/2000/svg" width="59" height="20" viewBox="0 0 59 20" fill="none">
  <path d="M22.4376 1.04586L14.7001 19.5056H9.65237L5.84644 4.77377C5.61501 3.86659 5.414 3.53466 4.7118 3.15115C3.56261 2.52962 1.66758 1.9451 0 1.58276L0.113728 1.04586H8.24002C9.27548 1.04586 10.2065 1.73484 10.4419 2.92767L12.4533 13.6102L17.4216 1.04586H22.4376ZM42.2171 13.4793C42.2369 8.60747 35.4793 8.33902 35.5269 6.16231C35.5415 5.49978 36.1723 4.79625 37.5529 4.6164C38.2366 4.52648 40.1223 4.45771 42.2607 5.44292L43.0991 1.52854C41.9499 1.11198 40.4715 0.709961 38.632 0.709961C33.9122 0.709961 30.5903 3.2186 30.5625 6.81162C30.5321 9.4697 32.9337 10.9521 34.7427 11.8355C36.6034 12.74 37.2289 13.3206 37.2209 14.1299C37.2077 15.3677 35.7359 15.9152 34.3619 15.9363C31.9617 15.9734 30.5692 15.287 29.4583 14.77L28.5935 18.8139C29.7096 19.3257 31.7686 19.7727 33.9043 19.7952C38.9216 19.7952 42.2025 17.317 42.2184 13.4793M54.6809 19.5056H59.0978L55.2429 1.04586H51.1659C50.2495 1.04586 49.4759 1.57879 49.1333 2.40002L41.9671 19.5056H46.9818L47.9775 16.7483H54.1043L54.6809 19.5056ZM49.3529 12.9649L51.8668 6.03404L53.3135 12.9649H49.3542H49.3529ZM29.2613 1.04586L25.3125 19.5056H20.5372L24.4873 1.04586H29.2613Z" fill="#2637C6"/>
</svg>