<svg xmlns="http://www.w3.org/2000/svg" width="60" height="60" viewBox="0 0 60 60" fill="none">
  <path d="M47.5 50H12.5C11.1739 50 9.90215 49.4732 8.96447 48.5355C8.02678 47.5979 7.5 46.3261 7.5 45V22.5C7.5 21.1739 8.02678 19.9021 8.96447 18.9645C9.90215 18.0268 11.1739 17.5 12.5 17.5H47.5C48.8261 17.5 50.0979 18.0268 51.0355 18.9645C51.9732 19.9021 52.5 21.1739 52.5 22.5V45C52.5 46.3261 51.9732 47.5979 51.0355 48.5355C50.0979 49.4732 48.8261 50 47.5 50Z" stroke="white" stroke-width="4"/>
  <path d="M41.25 35C40.9185 35 40.6005 34.8683 40.3661 34.6339C40.1317 34.3995 40 34.0815 40 33.75C40 33.4185 40.1317 33.1005 40.3661 32.8661C40.6005 32.6317 40.9185 32.5 41.25 32.5C41.5815 32.5 41.8995 32.6317 42.1339 32.8661C42.3683 33.1005 42.5 33.4185 42.5 33.75C42.5 34.0815 42.3683 34.3995 42.1339 34.6339C41.8995 34.8683 41.5815 35 41.25 35Z" fill="white" stroke="white" stroke-width="4" stroke-linecap="round" stroke-linejoin="round"/>
  <path d="M45 17.4989V14.0064C44.9998 13.2402 44.8235 12.4842 44.4847 11.797C44.1458 11.1097 43.6536 10.5095 43.046 10.0427C42.4383 9.57591 41.7315 9.25502 40.9801 9.10482C40.2288 8.95462 39.4529 8.97911 38.7125 9.17642L11.2125 16.5089C10.1476 16.7927 9.20635 17.4203 8.53497 18.2942C7.8636 19.1682 7.49976 20.2394 7.5 21.3414V22.4989" stroke="white" stroke-width="4"/>
</svg>