<svg width="14" height="14" viewBox="0 0 14 14" fill="none" xmlns="http://www.w3.org/2000/svg">
<g clip-path="url(#clip0_1895_58211)">
<path d="M11.3079 7.91304C11.3079 8.15382 11.2447 8.38919 11.1264 8.58939C11.0081 8.78959 10.8399 8.94563 10.6431 9.03777C10.4463 9.12991 10.2298 9.15402 10.0209 9.10704C9.81204 9.06007 9.62016 8.94413 9.46956 8.77387C9.31896 8.60361 9.2164 8.3867 9.17485 8.15055C9.1333 7.91439 9.15462 7.66962 9.23612 7.44717C9.31763 7.22472 9.45565 7.03459 9.63274 6.90082C9.80983 6.76705 10.018 6.69565 10.231 6.69565C10.5166 6.69565 10.7905 6.82391 10.9925 7.05222C11.1944 7.28052 11.3079 7.59017 11.3079 7.91304ZM14 5.47826V11.5652C14 12.211 13.7731 12.8303 13.3692 13.2869C12.9653 13.7435 12.4175 14 11.8463 14H2.1546C1.5834 14 1.0356 13.7435 0.631697 13.2869C0.227798 12.8303 0.000890332 12.211 0.000890332 11.5652V2.50478C-0.00739302 2.1792 0.0421929 1.85505 0.146712 1.55152C0.251231 1.24799 0.408559 0.971257 0.60938 0.7377C0.810202 0.504143 1.05043 0.318512 1.31585 0.191799C1.58127 0.0650855 1.86648 -0.000134433 2.1546 2.08042e-07H11.0386C11.2528 2.08042e-07 11.4583 0.0961955 11.6097 0.267424C11.7612 0.438653 11.8463 0.67089 11.8463 0.913044C11.8463 1.1552 11.7612 1.38743 11.6097 1.55866C11.4583 1.72989 11.2528 1.82609 11.0386 1.82609H2.1546C2.0824 1.82604 2.01092 1.84242 1.94443 1.87424C1.87794 1.90606 1.81778 1.95267 1.76755 2.01131C1.71732 2.06994 1.67803 2.1394 1.65202 2.21555C1.62602 2.2917 1.61383 2.37298 1.61617 2.45457V2.46065C1.62748 2.62182 1.69291 2.77199 1.79903 2.88036C1.90515 2.98873 2.04393 3.04709 2.18691 3.04348H11.8463C12.4175 3.04348 12.9653 3.3 13.3692 3.75661C13.7731 4.21322 14 4.83252 14 5.47826ZM12.3847 5.47826C12.3847 5.31682 12.328 5.162 12.227 5.04785C12.126 4.9337 11.9891 4.86957 11.8463 4.86957H2.18691C1.99435 4.86966 1.80256 4.84204 1.61617 4.78739V11.5652C1.61617 11.7267 1.6729 11.8815 1.77387 11.9956C1.87485 12.1098 2.0118 12.1739 2.1546 12.1739H11.8463C11.9891 12.1739 12.126 12.1098 12.227 11.9956C12.328 11.8815 12.3847 11.7267 12.3847 11.5652V5.47826Z" fill="black"/>
</g>
<defs>
<clipPath id="clip0_1895_58211">
<rect width="14" height="14" fill="white"/>
</clipPath>
</defs>
</svg>
