<svg xmlns="http://www.w3.org/2000/svg" width="64" height="64" viewBox="0 0 64 64" fill="none">
  <path d="M61.4018 35.725V22.9323C61.4013 22.4928 61.3069 22.0586 61.1248 21.6582C60.9428 21.2578 60.6772 20.9004 60.3458 20.6097V12.4326C60.3458 11.5972 60.012 10.796 59.4179 10.2053C58.8238 9.61459 58.018 9.28273 57.1778 9.28273H50.0213C48.1293 6.85143 45.4609 5.13331 42.4556 4.41133C39.4503 3.68935 36.2873 4.00656 33.4875 5.31072C31.9318 3.6199 29.9725 2.34639 27.7907 1.60793C25.6089 0.869469 23.275 0.689903 21.0049 1.08584C18.7348 1.48177 16.6018 2.44042 14.803 3.87314C13.0042 5.30587 11.5978 7.16641 10.7138 9.28273H6.48981C4.81111 9.28827 3.20276 9.95377 2.01573 11.134C0.828705 12.3142 0.159376 13.9134 0.153809 15.5825L0.153809 57.5811C0.155486 59.2514 0.823566 60.8528 2.01143 62.0339C3.1993 63.2149 4.80991 63.8792 6.48981 63.8809H58.2338C59.074 63.8809 59.8798 63.549 60.4739 62.9583C61.068 62.3676 61.4018 61.5664 61.4018 60.731V47.9382C62.0174 47.7218 62.5506 47.3216 62.9287 46.7924C63.3067 46.2631 63.5111 45.6307 63.5138 44.9815V38.6817C63.5111 38.0326 63.3067 37.4001 62.9287 36.8708C62.5506 36.3416 62.0174 35.9414 61.4018 35.725ZM58.2338 12.4326V19.7824H52.7732C52.8875 19.088 52.9479 18.386 52.9538 17.6824C52.9574 15.4888 52.4258 13.3271 51.4047 11.3827H57.1778C57.4579 11.3827 57.7265 11.4933 57.9245 11.6902C58.1226 11.8871 58.2338 12.1542 58.2338 12.4326ZM48.6643 10.9469C49.5877 12.2049 50.2391 13.6394 50.5776 15.16C50.916 16.6806 50.934 18.2545 50.6306 19.7824H27.821C27.3356 17.2009 27.7505 14.5321 28.997 12.2168C30.2435 9.90149 32.2471 8.07826 34.6768 7.04833C37.1064 6.0184 39.8167 5.8434 42.36 6.55224C44.9032 7.26109 47.1271 8.81136 48.6643 10.9469ZM23.3858 2.98294C24.9078 2.98081 26.4152 3.27691 27.822 3.85431C29.2288 4.43172 30.5073 5.27912 31.5846 6.34808C29.3999 7.78051 27.6794 9.81165 26.6312 12.1958C25.583 14.58 25.2521 17.2151 25.6784 19.7824H13.0571C12.1456 18.0239 11.7048 16.0618 11.7772 14.0848C11.8496 12.1079 12.4328 10.1828 13.4705 8.49497C14.5083 6.80712 15.9656 5.41338 17.7022 4.44798C19.4388 3.48257 21.3962 2.97803 23.3858 2.98294ZM2.26581 15.5825C2.27026 14.47 2.71671 13.4043 3.5079 12.6177C4.2991 11.831 5.3709 11.3871 6.48981 11.3827H10.0411C9.35832 14.1817 9.59176 17.1244 10.7075 19.7824H6.71157C5.62969 19.8021 4.5786 19.4239 3.76003 18.7203C2.94146 18.0166 2.4131 17.0372 2.27637 15.97C2.26547 15.8446 2.26194 15.7188 2.26581 15.593V15.5825ZM58.2338 61.7809H6.48981C5.36953 61.7809 4.29514 61.3384 3.50299 60.5508C2.71084 59.7632 2.26581 58.6949 2.26581 57.5811V49.1814H9.22485C9.53532 49.1815 9.842 49.2492 10.1233 49.3798C10.4046 49.5104 10.6538 49.7007 10.8532 49.9373L12.5703 51.99C11.9535 52.8293 11.6661 53.8636 11.7623 54.8987C11.8585 55.9338 12.3316 56.8983 13.0926 57.611C13.8536 58.3237 14.8502 58.7355 15.8951 58.769C16.94 58.8026 17.9613 58.4556 18.767 57.7932C19.5727 57.1308 20.1074 56.1987 20.2705 55.1719C20.4337 54.1452 20.2141 53.0946 19.6531 52.2175C19.092 51.3404 18.2281 50.6972 17.2237 50.4088C16.2193 50.1204 15.1436 50.2066 14.1986 50.6513L12.4784 48.5955C12.0813 48.1209 11.5839 47.7391 11.0216 47.4774C10.4592 47.2157 9.84574 47.0805 9.22485 47.0814H2.26581V42.8816H20.3678C20.6248 43.8713 21.236 44.7339 22.0869 45.3076C22.9378 45.8813 23.97 46.1268 24.9899 45.998C26.0098 45.8692 26.9474 45.375 27.627 44.608C28.3067 43.841 28.6816 42.8538 28.6816 41.8316C28.6816 40.8094 28.3067 39.8223 27.627 39.0553C26.9474 38.2883 26.0098 37.794 24.9899 37.6652C23.97 37.5364 22.9378 37.7819 22.0869 38.3556C21.236 38.9293 20.6248 39.7919 20.3678 40.7817H2.26581V36.5818H9.22485C9.84511 36.582 10.4578 36.4467 11.0197 36.1854C11.5816 35.9241 12.0788 35.5433 12.4763 35.0698L14.1986 33.0119C14.758 33.2833 15.3714 33.4268 15.9938 33.4319C16.9494 33.4382 17.8792 33.1244 18.6334 32.541C19.3876 31.9576 19.9222 31.1386 20.151 30.2161C20.3798 29.2937 20.2894 28.3215 19.8945 27.4563C19.4995 26.5911 18.8231 25.8834 17.9741 25.4473C17.1251 25.0112 16.1532 24.8721 15.215 25.0524C14.2768 25.2328 13.427 25.722 12.8027 26.4413C12.1784 27.1606 11.8159 28.068 11.7738 29.0172C11.7316 29.9663 12.0122 30.902 12.5703 31.6732L10.8564 33.7227C10.6568 33.9602 10.4072 34.1512 10.1253 34.2823C9.84345 34.4135 9.53607 34.4816 9.22485 34.4819H2.26581V20.2024C3.49111 21.2843 5.07284 21.882 6.71157 21.8823H58.2338C58.5139 21.8823 58.7825 21.9929 58.9805 22.1898C59.1786 22.3867 59.2898 22.6538 59.2898 22.9323V35.5318H54.0098C52.3294 35.5318 50.7178 36.1956 49.5296 37.377C48.3413 38.5584 47.6738 40.1608 47.6738 41.8316C47.6738 43.5024 48.3413 45.1048 49.5296 46.2862C50.7178 47.4677 52.3294 48.1314 54.0098 48.1314H59.2898V60.731C59.2898 61.0094 59.1786 61.2765 58.9805 61.4734C58.7825 61.6703 58.5139 61.7809 58.2338 61.7809ZM15.9938 52.3313C16.4115 52.3313 16.8199 52.4544 17.1672 52.6852C17.5145 52.9159 17.7852 53.2439 17.945 53.6276C18.1049 54.0113 18.1467 54.4335 18.0652 54.8409C17.9837 55.2482 17.7826 55.6224 17.4872 55.9161C17.1918 56.2097 16.8155 56.4097 16.4058 56.4908C15.9962 56.5718 15.5715 56.5302 15.1856 56.3713C14.7997 56.2123 14.4698 55.9432 14.2377 55.5978C14.0057 55.2525 13.8818 54.8465 13.8818 54.4312C13.8818 53.8742 14.1043 53.3401 14.5004 52.9463C14.8965 52.5525 15.4337 52.3313 15.9938 52.3313ZM22.3298 41.8316C22.3298 41.4163 22.4537 41.0103 22.6857 40.665C22.9178 40.3196 23.2477 40.0505 23.6336 39.8915C24.0195 39.7326 24.4442 39.691 24.8538 39.772C25.2635 39.8531 25.6398 40.0531 25.9352 40.3467C26.2306 40.6404 26.4317 41.0146 26.5132 41.4219C26.5947 41.8293 26.5529 42.2515 26.393 42.6352C26.2332 43.0189 25.9625 43.3469 25.6152 43.5776C25.2679 43.8084 24.8595 43.9315 24.4418 43.9315C23.8817 43.9315 23.3445 43.7103 22.9484 43.3165C22.5523 42.9227 22.3298 42.3885 22.3298 41.8316ZM13.8818 29.232C13.8818 28.8167 14.0057 28.4107 14.2377 28.0654C14.4698 27.7201 14.7997 27.4509 15.1856 27.292C15.5715 27.133 15.9962 27.0914 16.4058 27.1725C16.8155 27.2535 17.1918 27.4535 17.4872 27.7472C17.7826 28.0409 17.9837 28.415 18.0652 28.8224C18.1467 29.2297 18.1049 29.6519 17.945 30.0357C17.7852 30.4194 17.5145 30.7473 17.1672 30.9781C16.8199 31.2088 16.4115 31.332 15.9938 31.332C15.4337 31.332 14.8965 31.1107 14.5004 30.7169C14.1043 30.3231 13.8818 29.789 13.8818 29.232ZM61.4018 44.9815C61.4018 45.26 61.2906 45.527 61.0925 45.7239C60.8945 45.9208 60.6259 46.0315 60.3458 46.0315H54.0098C52.8895 46.0315 51.8151 45.589 51.023 44.8014C50.2308 44.0137 49.7858 42.9455 49.7858 41.8316C49.7858 40.7177 50.2308 39.6495 51.023 38.8619C51.8151 38.0742 52.8895 37.6318 54.0098 37.6318H60.3458C60.6259 37.6318 60.8945 37.7424 61.0925 37.9393C61.2906 38.1362 61.4018 38.4033 61.4018 38.6817V44.9815Z" fill="black"/>
</svg>