<svg width="31" height="31" viewBox="0 0 31 31" fill="none" xmlns="http://www.w3.org/2000/svg">
<circle cx="15.5" cy="15.5" r="15" fill="#D9D9D9"/>
<path d="M21.7882 20.4615C21.9644 20.6376 22.0633 20.8765 22.0633 21.1256C22.0633 21.3746 21.9644 21.6135 21.7882 21.7896C21.6121 21.9657 21.3733 22.0647 21.1242 22.0647C20.8751 22.0647 20.6362 21.9657 20.4601 21.7896L15.5 16.8279L10.5382 21.7881C10.3621 21.9642 10.1233 22.0631 9.87418 22.0631C9.62511 22.0631 9.38624 21.9642 9.21012 21.7881C9.034 21.6119 8.93506 21.3731 8.93506 21.124C8.93506 20.8749 9.034 20.636 9.21012 20.4599L14.1718 15.4998L9.21168 10.5381C9.03556 10.3619 8.93662 10.1231 8.93662 9.87399C8.93662 9.62492 9.03556 9.38605 9.21168 9.20993C9.3878 9.03381 9.62668 8.93486 9.87575 8.93486C10.1248 8.93486 10.3637 9.03381 10.5398 9.20993L15.5 14.1716L20.4617 9.20915C20.6378 9.03303 20.8767 8.93408 21.1257 8.93408C21.3748 8.93408 21.6137 9.03303 21.7898 9.20915C21.9659 9.38527 22.0649 9.62414 22.0649 9.87321C22.0649 10.1223 21.9659 10.3612 21.7898 10.5373L16.8281 15.4998L21.7882 20.4615Z" fill="#333333"/>
</svg>
